if (_typeface_js && _typeface_js.loadFace) _typeface_js.loadFace({"glyphs":{"0":{"ha":776,"x_min":68,"x_max":711,"o":"m 445 831 q 646 647 568 808 q 711 383 711 511 q 691 229 711 300 q 642 124 671 158 q 411 12 549 12 q 121 220 216 12 q 68 478 68 338 q 88 654 68 575 q 145 781 108 732 q 386 916 246 916 q 443 906 417 916 q 469 865 469 897 q 445 831 469 846 m 376 788 q 397 827 376 814 q 382 828 389 828 q 279 798 322 828 q 210 716 237 767 q 169 603 182 666 q 156 476 156 541 q 201 259 156 358 q 408 100 273 100 q 596 226 547 100 q 622 368 622 292 q 602 512 622 436 q 469 728 557 675 q 422 745 443 745 q 376 788 376 748 z "},"1":{"ha":323,"x_min":68,"x_max":255,"o":"m 68 886 q 85 920 68 909 q 122 932 102 932 q 186 908 160 932 q 233 821 222 875 q 248 699 243 768 q 255 509 255 604 q 243 257 255 384 l 221 35 q 206 7 219 16 q 177 -3 193 -3 q 147 8 161 -3 q 133 39 133 18 q 133 43 133 41 l 155 266 q 167 513 167 392 q 165 615 167 557 q 158 726 163 673 q 141 808 153 779 q 123 843 127 844 q 111 841 117 841 q 80 854 93 841 q 68 886 68 868 z "},"2":{"ha":903,"x_min":65,"x_max":836,"o":"m 113 687 q 81 702 97 687 q 65 732 65 717 q 78 762 65 746 q 349 932 213 921 q 383 933 366 933 q 566 869 494 933 q 633 783 611 829 q 656 675 656 736 q 614 528 656 595 q 298 125 505 351 q 410 136 349 136 q 499 130 449 136 q 597 118 549 124 q 683 112 646 112 q 758 121 730 112 q 793 128 778 128 q 824 116 812 128 q 836 82 836 103 q 802 43 836 54 q 678 22 735 22 q 649 23 663 22 q 457 50 582 30 q 404 54 431 54 q 183 -2 302 54 q 134 -17 153 -17 q 105 0 115 -17 q 94 28 94 16 q 109 58 94 43 l 138 85 q 541 576 380 323 q 568 671 568 622 q 508 803 568 748 q 382 845 462 845 q 355 844 370 845 q 145 705 257 836 q 113 687 130 687 z "},"3":{"ha":801,"x_min":68,"x_max":734,"o":"m 500 77 q 606 107 568 77 q 645 199 645 138 q 621 284 645 245 q 566 340 596 323 q 496 360 534 360 q 409 338 455 360 q 389 334 399 334 q 359 348 371 334 q 347 380 347 362 q 366 415 347 402 q 452 483 413 446 q 572 684 555 579 q 574 718 574 701 q 541 811 574 775 q 450 846 508 846 q 434 846 442 846 q 162 692 311 834 q 131 680 149 680 q 100 693 111 680 q 88 724 88 707 q 101 755 88 743 q 427 934 272 920 q 453 935 440 935 q 612 865 553 935 q 663 719 663 803 q 659 668 663 694 q 539 445 639 550 q 654 385 608 432 q 721 274 700 337 q 734 196 734 233 q 710 99 734 145 q 500 -11 653 -11 q 90 131 335 -11 q 68 168 68 143 q 89 206 68 191 q 134 207 110 222 q 500 77 359 77 z "},"4":{"ha":1015,"x_min":66,"x_max":947,"o":"m 947 422 q 934 391 947 404 q 903 377 921 377 q 860 412 868 377 q 791 420 842 420 q 557 401 714 420 l 557 60 q 545 30 557 43 q 514 16 532 16 q 483 30 496 16 q 469 60 469 43 l 469 390 q 437 386 467 389 q 352 374 408 382 q 222 363 267 363 q 195 365 206 363 q 105 384 145 371 q 66 436 66 397 q 76 483 66 461 q 103 524 87 505 q 188 623 156 586 q 240 686 220 661 q 279 735 261 711 q 322 797 297 760 q 388 893 347 833 q 422 918 405 918 q 438 913 430 918 q 469 869 469 892 q 461 844 469 857 q 395 747 420 784 q 350 683 370 710 q 303 624 329 655 q 235 543 277 593 q 163 458 165 460 q 224 453 188 453 q 340 462 273 453 q 432 474 400 470 q 469 479 465 478 l 469 705 q 483 735 469 722 q 514 749 496 749 q 545 735 532 749 q 557 705 557 722 l 557 490 q 808 511 728 511 q 869 505 852 511 q 947 422 947 474 z "},"5":{"ha":886,"x_min":67,"x_max":818,"o":"m 252 945 q 348 942 294 945 q 454 936 402 939 q 541 933 506 933 q 661 941 604 933 q 760 964 717 949 q 777 967 768 967 q 807 952 795 967 q 818 920 818 938 q 811 897 818 908 q 789 881 804 886 q 539 845 684 845 q 426 849 477 845 q 305 858 375 853 q 249 860 274 860 q 173 850 196 860 q 165 814 170 844 q 158 749 161 785 q 155 688 155 713 q 167 517 155 614 q 489 599 353 599 q 684 539 610 599 q 758 362 758 479 q 728 234 758 300 q 648 118 700 171 q 524 32 595 64 q 364 0 452 0 q 227 19 291 0 q 109 66 163 39 q 85 106 85 78 q 104 142 85 127 q 149 145 123 158 q 362 87 263 87 q 486 112 429 87 q 584 177 543 136 q 646 267 625 218 q 669 364 669 318 q 619 474 669 436 q 488 511 569 511 q 152 414 355 511 q 132 409 142 409 q 104 420 115 409 q 90 444 92 431 q 79 517 84 471 q 71 614 74 562 q 67 713 67 667 q 70 778 67 743 q 78 842 73 812 q 90 884 83 871 q 129 926 100 909 q 252 945 160 945 z "},"6":{"ha":798,"x_min":65,"x_max":730,"o":"m 418 909 q 446 896 435 909 q 458 866 458 882 q 431 828 458 844 q 207 554 296 745 q 169 452 182 499 q 157 357 157 405 q 411 106 157 106 q 606 165 560 106 q 641 255 641 208 q 622 322 641 290 q 569 376 602 355 q 496 397 536 397 q 396 371 445 397 q 320 319 347 345 q 267 290 290 290 q 238 305 251 290 q 224 334 224 319 q 241 366 224 350 q 429 477 324 445 q 500 489 466 489 q 616 453 564 489 q 699 363 668 417 q 730 254 730 309 q 717 182 730 218 q 676 110 704 145 q 412 18 604 18 q 90 209 165 18 q 65 337 65 271 q 73 416 65 376 q 269 807 125 664 q 418 909 370 909 z "},"7":{"ha":814,"x_min":67,"x_max":745,"o":"m 656 714 q 621 843 656 806 q 491 879 585 879 q 452 878 473 879 q 126 791 333 869 q 109 788 117 788 q 79 803 90 788 q 67 835 67 817 q 74 858 67 847 q 95 874 80 869 q 498 970 349 970 q 684 903 623 970 q 745 711 745 837 q 738 618 745 668 q 674 332 726 530 q 613 44 622 132 q 597 16 611 26 q 568 5 584 5 q 537 19 550 5 q 526 52 524 33 q 587 348 534 146 q 628 516 612 449 q 649 619 644 584 q 656 714 656 672 z "},"8":{"ha":806,"x_min":67,"x_max":740,"o":"m 576 676 q 539 688 555 676 q 524 713 524 699 q 526 725 524 718 q 528 737 528 731 q 487 785 528 763 q 333 809 441 809 q 203 786 250 809 q 157 715 157 763 q 208 599 157 665 q 283 543 245 569 q 358 494 321 517 q 494 592 400 526 q 623 693 591 659 q 658 712 640 712 q 688 697 673 712 q 703 667 703 683 q 684 629 703 650 q 557 528 646 590 q 485 477 513 497 q 445 449 456 458 q 475 435 452 446 q 534 408 497 425 q 656 320 606 376 q 727 220 705 265 q 740 167 740 195 q 733 125 740 147 q 651 35 718 76 q 438 -8 583 -8 q 233 30 304 -8 q 117 182 117 92 q 285 436 117 289 q 140 544 165 512 q 88 628 109 583 q 67 715 67 672 q 107 818 67 777 q 210 878 147 858 q 341 898 273 898 q 523 865 462 898 q 619 745 619 813 q 608 698 619 720 q 576 676 597 676 m 366 389 q 210 198 233 280 q 208 182 208 190 q 263 114 208 144 q 437 79 328 79 q 602 108 555 79 q 640 133 626 123 q 653 157 653 144 q 638 197 653 172 q 503 326 588 284 q 436 357 471 341 q 366 389 400 372 z "},"9":{"ha":755,"x_min":70,"x_max":688,"o":"m 251 404 q 151 435 191 404 q 90 517 111 467 q 70 624 70 567 q 119 800 70 728 q 245 905 168 871 q 382 932 309 932 q 663 856 507 932 q 688 817 688 844 q 676 786 688 800 q 646 772 665 772 q 625 777 635 772 q 383 844 487 844 q 251 809 304 844 q 175 716 197 774 q 156 624 156 667 q 161 578 156 601 q 196 513 174 534 q 250 492 219 492 q 378 549 303 492 q 538 722 452 607 q 572 739 551 739 q 600 730 587 739 q 616 705 613 721 q 638 454 638 607 q 608 20 638 274 q 593 -8 606 1 q 565 -18 580 -18 q 534 -7 548 -18 q 519 24 519 3 q 520 30 519 26 q 549 450 549 273 q 544 589 549 525 q 462 506 509 549 q 361 434 415 463 q 251 404 307 404 z "},"\r":{"ha":407,"x_min":0,"x_max":0,"o":""}," ":{"ha":380,"x_min":0,"x_max":0,"o":""},"!":{"ha":277,"x_min":65,"x_max":214,"o":"m 138 172 q 85 201 99 172 q 71 279 71 231 l 71 300 q 65 434 65 357 q 87 789 65 578 q 102 820 89 807 q 133 833 116 833 q 161 821 150 833 q 176 794 173 809 q 201 437 201 625 q 198 294 201 367 q 197 281 197 289 q 198 268 197 275 q 198 254 198 262 q 184 196 198 220 q 138 172 171 172 m 68 -67 q 76 -15 68 -45 q 99 38 84 15 q 136 61 114 61 q 176 39 163 61 q 214 -73 214 -23 q 196 -132 214 -106 q 144 -157 179 -157 q 121 -153 132 -157 q 68 -67 68 -132 z "},"\"":{"ha":357,"x_min":52,"x_max":353,"o":"m 52 819 q 58 875 52 846 q 78 923 64 903 q 115 942 92 942 q 146 932 129 942 q 186 835 186 910 q 159 673 186 772 q 143 651 155 660 q 116 642 132 642 q 86 652 96 642 q 71 682 76 662 q 52 819 52 762 m 218 815 q 225 871 218 842 q 245 919 231 899 q 281 938 259 938 q 313 928 296 938 q 353 831 353 906 q 326 669 353 768 q 310 647 321 656 q 283 638 299 638 q 253 648 263 638 q 238 678 243 658 q 218 815 218 758 z "},"#":{"ha":1078,"x_min":68,"x_max":1010,"o":"m 112 212 q 81 225 94 212 q 68 256 68 238 q 81 287 68 273 q 112 300 94 300 l 286 300 l 384 572 l 212 572 q 181 585 194 572 q 168 616 168 598 q 181 647 168 633 q 212 660 194 660 l 416 660 l 488 863 q 521 895 500 895 q 532 893 526 895 q 574 850 574 878 q 571 833 574 842 l 509 660 l 779 660 l 854 862 q 887 895 866 895 q 899 892 892 895 q 940 849 940 878 q 937 831 940 841 l 873 660 l 966 660 q 997 647 984 660 q 1010 616 1010 633 q 997 585 1010 598 q 966 572 984 572 l 841 572 l 741 300 l 948 300 q 979 287 966 300 q 992 256 992 273 q 979 225 992 238 q 948 212 966 212 l 708 212 l 630 -1 q 597 -33 618 -33 q 585 -31 591 -33 q 544 12 544 -16 q 547 30 544 20 l 614 212 l 348 212 l 276 11 q 242 -22 264 -22 q 231 -20 237 -22 q 189 23 189 -5 q 193 41 189 31 l 254 212 l 112 212 m 646 300 l 747 572 l 477 572 l 380 300 l 646 300 z "},"$":{"ha":892,"x_min":68,"x_max":825,"o":"m 712 704 q 697 671 712 688 q 667 655 682 655 q 639 667 654 655 q 546 727 594 701 q 445 770 497 753 q 444 654 444 712 q 444 538 444 596 q 455 537 445 538 q 482 535 465 536 q 813 332 758 519 q 825 250 825 291 q 785 105 825 177 q 551 -78 709 -33 q 441 -93 497 -93 l 440 -191 q 426 -222 440 -210 q 395 -234 412 -234 q 365 -221 378 -234 q 353 -100 353 -209 q 353 -83 353 -92 q 188 2 261 -61 q 81 148 115 66 q 75 170 75 160 q 91 198 75 186 q 126 211 106 211 q 162 182 150 211 q 353 9 218 51 q 354 232 353 121 q 355 456 355 344 q 161 523 224 470 q 68 691 68 603 q 80 755 68 723 q 158 851 102 816 q 298 886 214 886 q 357 882 326 886 q 363 940 357 913 q 401 966 368 966 q 432 952 419 966 q 446 922 446 939 l 446 862 q 692 737 579 823 q 712 704 712 722 m 296 799 q 229 786 262 799 q 175 752 197 774 q 154 700 154 730 q 158 676 154 688 q 216 592 175 627 q 355 545 257 557 l 357 793 q 296 799 324 799 m 441 -5 q 654 78 567 -5 q 737 246 737 157 q 728 307 737 275 q 541 441 696 418 q 492 447 522 444 q 444 450 461 449 q 442 222 443 336 q 441 -5 441 109 z "},"%":{"ha":839,"x_min":68,"x_max":771,"o":"m 150 -37 q 117 -25 134 -37 q 101 1 101 -14 q 111 30 101 14 l 541 724 l 442 676 q 430 671 436 673 q 418 667 424 669 q 374 565 414 599 q 239 511 309 511 q 148 534 195 511 q 68 643 68 572 q 228 882 68 761 q 256 892 241 892 q 297 859 287 892 q 323 868 310 868 q 405 756 366 868 l 639 868 q 665 876 654 876 q 691 859 682 876 q 701 826 701 843 q 695 805 701 814 l 315 191 l 454 299 q 482 310 469 310 q 514 293 498 310 q 525 294 518 294 q 581 282 545 294 q 758 148 722 235 q 771 88 771 116 q 732 4 771 40 q 656 -43 701 -25 q 566 -61 611 -61 q 498 -48 530 -61 q 443 -7 466 -36 q 402 115 402 43 q 404 149 402 132 l 176 -28 q 150 -37 163 -37 m 152 659 q 180 617 152 633 q 236 601 208 601 q 259 604 248 601 q 330 675 328 622 q 278 810 279 709 q 152 659 152 712 m 488 109 q 513 47 488 68 q 572 26 538 26 q 624 36 602 26 q 663 60 647 45 q 684 97 684 80 q 682 109 684 103 q 517 210 655 163 q 513 212 515 211 q 509 214 511 214 q 488 109 488 149 z "},"&":{"ha":874,"x_min":68,"x_max":807,"o":"m 756 431 q 792 418 777 431 q 807 390 807 406 q 803 370 807 380 q 674 181 766 267 q 741 81 741 109 q 731 55 741 66 q 708 35 721 43 q 692 31 700 31 q 659 56 675 31 q 606 125 638 90 q 351 12 486 38 q 279 4 313 4 q 152 43 206 4 q 98 157 98 82 q 124 275 98 216 q 182 368 151 334 q 211 400 201 389 q 222 412 221 411 q 94 571 119 500 q 68 705 68 646 q 130 852 68 802 q 285 901 191 901 q 414 876 353 901 q 515 804 476 851 q 554 693 554 758 q 433 491 554 593 q 394 457 414 474 q 355 422 374 439 q 398 393 370 412 q 469 347 427 374 q 546 293 511 319 q 610 242 581 267 q 720 400 688 314 q 756 431 731 431 m 288 813 q 190 785 224 813 q 156 704 156 758 q 197 567 156 621 q 284 475 237 516 q 330 518 307 497 q 377 559 353 538 q 468 688 468 635 q 467 701 468 694 q 402 782 454 751 q 288 813 351 813 m 540 186 q 407 281 486 230 q 292 358 326 334 q 195 213 220 281 q 184 162 184 184 q 210 109 184 125 q 278 93 236 93 q 342 100 307 93 q 540 186 440 119 z "},"'":{"ha":250,"x_min":52,"x_max":186,"o":"m 52 819 q 58 875 52 846 q 78 923 64 903 q 115 942 92 942 q 146 932 129 942 q 186 835 186 910 q 159 673 186 772 q 144 651 155 660 q 117 642 133 642 q 71 682 81 642 q 52 819 52 762 z "},"(":{"ha":489,"x_min":68,"x_max":422,"o":"m 422 -201 q 406 -232 422 -216 q 374 -247 390 -247 q 342 -230 358 -247 q 68 364 68 71 q 238 820 68 595 q 350 939 327 938 q 386 928 370 941 q 401 899 401 916 q 381 856 401 880 q 179 522 225 677 q 153 354 153 431 q 166 250 153 298 q 408 -170 228 27 q 422 -201 422 -186 z "},")":{"ha":489,"x_min":68,"x_max":422,"o":"m 68 -201 q 82 -170 68 -186 q 323 250 262 27 q 337 354 337 298 q 311 522 337 431 q 109 856 264 677 q 88 899 88 880 q 104 929 88 916 q 140 939 119 941 q 252 820 163 938 q 422 364 422 595 q 147 -230 422 71 q 115 -247 132 -247 q 84 -232 100 -247 q 68 -201 68 -216 z "},"*":{"ha":802,"x_min":63,"x_max":739,"o":"m 641 437 q 628 406 641 419 q 597 393 616 393 q 566 406 578 393 l 401 570 l 237 406 q 206 393 224 393 q 175 406 188 393 q 162 437 162 418 q 175 469 162 456 l 330 623 l 93 702 q 71 719 79 707 q 63 745 63 731 q 80 778 63 762 q 121 785 97 793 l 355 707 l 355 918 q 369 953 355 939 q 401 967 382 967 q 433 954 420 967 q 446 923 446 941 l 446 713 l 680 791 q 694 793 687 793 q 725 780 712 793 q 739 750 739 768 q 729 723 739 734 q 708 707 720 711 l 469 627 l 628 469 q 641 437 641 456 z "},"+":{"ha":955,"x_min":68,"x_max":887,"o":"m 843 475 q 874 462 861 475 q 887 431 887 449 q 874 400 887 414 q 843 387 861 387 l 546 387 l 546 -5 q 533 -36 546 -23 q 502 -50 519 -50 q 471 -36 484 -50 q 458 -5 458 -23 l 458 387 l 112 387 q 81 400 94 387 q 68 431 68 414 q 81 462 68 449 q 112 475 94 475 l 458 475 l 458 817 q 471 847 458 834 q 502 861 484 861 q 533 847 519 861 q 546 817 546 834 l 546 475 l 843 475 z "},",":{"ha":302,"x_min":68,"x_max":233,"o":"m 151 108 q 215 75 197 108 q 233 -2 233 41 q 224 -81 233 -40 q 203 -157 215 -123 q 181 -210 191 -191 q 159 -247 164 -242 q 120 -267 146 -267 q 85 -250 100 -267 q 81 -205 71 -233 q 94 -142 94 -168 q 92 -127 94 -134 q 83 -79 87 -100 q 75 -45 79 -58 q 68 2 68 -21 q 81 57 68 33 q 114 96 94 81 q 151 108 131 108 z "},"-":{"ha":531,"x_min":73,"x_max":460,"o":"m 117 288 q 85 301 98 288 q 73 332 73 314 q 85 363 73 351 q 117 376 98 376 l 416 376 q 447 363 434 376 q 460 332 460 351 q 447 301 460 314 q 416 288 434 288 l 117 288 z "},".":{"ha":286,"x_min":68,"x_max":218,"o":"m 218 58 q 197 7 218 29 q 144 -14 176 -14 q 87 10 106 -14 q 68 69 68 35 q 73 102 68 85 q 85 133 75 115 q 108 166 94 152 q 136 180 121 180 q 176 160 157 180 q 206 111 195 139 q 218 58 218 82 z "},"/":{"ha":705,"x_min":68,"x_max":637,"o":"m 113 -120 q 81 -107 94 -120 q 68 -76 68 -94 q 73 -57 68 -66 l 553 927 q 591 951 565 951 q 623 940 609 951 q 637 910 637 928 q 633 890 637 900 l 152 -95 q 137 -113 147 -105 q 113 -120 126 -120 z "},":":{"ha":313,"x_min":70,"x_max":251,"o":"m 251 578 q 224 531 251 549 q 164 513 198 513 q 100 533 125 513 q 75 587 75 553 q 81 618 75 602 q 109 663 87 636 q 156 689 130 689 q 200 671 178 689 q 236 628 222 654 q 251 578 251 602 m 245 116 q 219 68 245 86 q 159 50 193 50 q 95 70 120 50 q 70 124 70 90 q 75 155 70 139 q 103 200 81 174 q 151 227 125 227 q 195 209 173 227 q 231 165 216 191 q 245 116 245 140 z "},";":{"ha":288,"x_min":77,"x_max":242,"o":"m 227 465 q 206 414 227 436 q 153 392 185 392 q 97 416 116 392 q 79 475 79 440 q 83 509 79 492 q 95 539 85 521 q 118 573 104 558 q 146 587 131 587 q 185 567 167 587 q 216 517 204 546 q 227 465 227 489 m 161 292 q 225 259 208 292 q 242 182 242 225 q 233 103 242 144 q 212 27 224 62 q 191 -25 200 -7 q 168 -62 174 -58 q 129 -83 156 -83 q 95 -66 109 -83 q 90 -21 80 -49 q 103 42 103 16 q 102 57 103 50 q 93 105 97 85 q 85 139 89 126 q 77 186 77 163 q 90 241 77 217 q 123 279 103 264 q 161 292 141 292 z "},"<":{"ha":848,"x_min":67,"x_max":780,"o":"m 719 656 q 736 659 728 659 q 767 645 755 659 q 778 614 778 631 q 771 590 778 602 q 750 574 764 579 q 661 539 720 562 q 531 490 602 517 q 392 436 460 463 q 274 390 324 410 q 208 361 224 370 q 161 332 178 347 q 217 300 177 319 q 338 252 251 285 q 559 173 425 220 q 668 135 620 152 q 751 106 716 118 q 772 89 765 101 q 780 63 780 77 q 763 29 780 45 q 722 22 746 14 q 637 52 686 35 q 527 91 588 70 q 352 153 420 128 q 236 196 283 177 q 147 236 189 215 q 95 272 123 249 q 67 330 67 296 q 74 362 67 346 q 113 409 87 392 q 168 440 139 425 q 477 564 232 472 q 719 656 629 621 z "},"=":{"ha":587,"x_min":68,"x_max":519,"o":"m 121 513 q 86 525 102 513 q 71 555 71 536 q 86 586 71 574 q 121 598 102 598 l 469 598 q 504 586 488 598 q 519 555 519 574 q 504 525 519 536 q 469 513 488 513 l 121 513 m 119 233 q 84 245 100 233 q 68 277 68 258 q 84 309 68 296 q 119 321 100 321 l 468 321 q 504 309 488 321 q 519 277 519 296 q 504 245 519 258 q 468 233 488 233 l 119 233 z "},">":{"ha":848,"x_min":68,"x_max":781,"o":"m 130 656 q 372 564 220 621 q 680 440 616 472 q 735 409 709 425 q 774 362 762 392 q 781 330 781 346 q 753 272 781 296 q 701 236 726 249 q 613 196 660 215 q 496 153 566 177 q 321 91 427 128 q 211 52 260 70 q 127 22 162 35 q 85 29 102 14 q 68 63 68 45 q 76 89 68 77 q 97 106 83 101 q 180 135 132 118 q 289 173 228 152 q 510 252 423 220 q 631 300 597 285 q 664 318 650 310 q 687 332 678 326 q 640 361 670 347 q 340 481 578 393 q 204 533 264 510 q 98 574 143 557 q 77 590 83 579 q 71 614 71 602 q 82 645 71 631 q 111 659 93 659 q 130 656 120 659 z "},"?":{"ha":667,"x_min":68,"x_max":600,"o":"m 267 866 q 188 842 219 866 q 156 766 156 817 q 163 711 156 741 q 164 701 164 705 q 150 670 164 681 q 118 659 135 659 q 92 667 104 659 q 76 692 79 675 q 68 766 68 732 q 125 903 68 853 q 265 954 182 954 q 389 932 321 954 q 597 774 572 873 q 600 751 600 763 q 466 561 600 671 q 371 465 399 507 q 343 373 343 424 q 356 303 343 338 q 391 239 370 268 q 401 214 401 227 q 386 182 401 195 q 353 169 371 169 q 321 186 334 169 q 256 378 256 272 q 305 525 256 450 q 401 621 332 565 q 503 724 468 676 q 514 755 517 741 q 480 794 509 776 q 416 828 451 813 q 359 849 381 842 q 267 866 307 866 m 351 -89 q 299 -60 319 -89 q 279 1 279 -32 q 299 63 279 35 q 351 92 319 92 q 403 63 383 92 q 422 1 422 35 q 403 -60 422 -32 q 351 -89 383 -89 z "},"@":{"ha":1055,"x_min":68,"x_max":987,"o":"m 480 -27 q 326 33 380 -27 q 271 193 271 92 q 300 318 271 263 q 374 407 330 373 q 515 450 429 450 q 638 420 597 450 q 708 330 680 391 q 720 271 720 302 q 716 232 720 245 q 715 185 713 220 q 724 139 716 165 q 743 93 731 114 q 767 64 754 72 q 783 58 773 58 q 825 78 799 58 q 879 158 861 104 q 897 271 897 212 q 875 398 897 340 q 649 573 822 534 q 504 591 570 591 q 195 388 280 591 q 173 318 181 355 q 156 241 165 281 q 155 227 155 237 q 183 69 155 139 q 260 -53 211 -1 q 503 -149 349 -149 q 526 -148 514 -149 q 549 -147 537 -147 q 579 -161 569 -147 q 590 -192 590 -175 q 581 -221 590 -208 q 551 -235 571 -234 q 506 -237 528 -237 q 325 -203 403 -237 q 195 -113 247 -168 q 71 173 87 3 q 68 221 68 199 q 72 269 68 248 q 144 484 90 392 q 289 627 198 576 q 507 677 379 677 q 680 656 588 677 q 957 430 888 608 q 987 273 987 352 q 968 147 987 210 q 933 71 958 112 q 870 0 907 29 q 787 -30 833 -30 q 702 1 735 -30 q 652 75 669 33 q 518 -24 594 -14 q 480 -27 499 -27 m 519 362 q 401 314 442 362 q 359 190 359 267 q 372 122 359 153 q 407 80 384 92 q 485 59 454 59 q 496 60 491 59 q 627 229 572 71 q 631 268 631 240 q 620 309 631 289 q 599 340 608 330 q 566 357 589 351 q 519 362 543 362 z "},"A":{"ha":929,"x_min":66,"x_max":862,"o":"m 111 -26 q 81 -13 95 -26 q 68 16 66 0 q 173 606 92 344 q 366 951 254 866 q 455 985 412 985 q 686 713 578 985 q 850 85 781 473 l 861 25 q 862 18 862 21 q 847 -14 862 -3 q 816 -25 833 -25 q 789 -17 802 -25 q 774 10 777 -8 l 764 69 q 731 236 748 157 q 696 388 714 316 l 210 388 q 156 14 170 190 q 141 -15 155 -4 q 111 -26 127 -26 m 229 476 l 673 476 q 515 849 597 747 q 477 884 496 873 q 452 893 460 894 q 366 825 408 888 q 229 476 285 703 z "},"B":{"ha":783,"x_min":68,"x_max":715,"o":"m 455 494 q 578 439 518 474 q 676 351 637 404 q 715 231 715 299 q 634 71 715 138 q 315 -23 523 -23 q 107 -1 217 -23 q 83 15 94 3 q 72 41 73 26 l 68 931 q 80 961 68 949 q 108 975 92 974 q 197 979 153 979 q 389 957 298 979 q 547 891 479 935 q 643 779 614 846 q 659 707 659 743 q 627 612 659 654 q 549 540 596 570 q 455 494 502 511 m 158 526 q 196 533 168 531 q 229 536 211 534 q 268 541 247 538 q 543 648 472 568 q 570 711 570 679 q 562 745 570 728 q 483 827 541 794 q 351 876 426 860 q 202 892 276 892 q 156 891 180 892 l 158 526 m 174 444 q 158 450 164 447 l 160 79 q 315 65 239 65 q 578 138 490 65 q 628 231 628 180 q 607 296 628 264 q 548 353 585 328 q 174 444 423 439 z "},"C":{"ha":929,"x_min":68,"x_max":861,"o":"m 552 -13 q 305 35 414 -13 q 132 175 195 83 q 68 401 68 267 q 111 607 68 512 q 220 773 153 701 q 361 890 287 846 q 675 975 506 975 q 817 961 744 975 q 842 945 834 958 q 850 919 850 933 q 840 888 850 902 q 810 874 829 874 q 800 875 805 874 q 677 887 737 887 q 406 814 530 887 q 286 716 343 777 q 193 575 229 654 q 156 404 156 495 q 208 220 156 293 q 350 111 260 147 q 553 75 440 75 q 807 109 666 75 q 818 110 812 110 q 849 95 838 110 q 861 64 861 81 q 852 39 861 50 q 827 23 844 27 q 552 -13 675 -13 z "},"D":{"ha":741,"x_min":68,"x_max":673,"o":"m 72 36 l 68 926 q 78 955 68 943 q 102 970 89 967 q 200 981 153 981 q 437 907 326 981 q 551 802 496 868 q 639 652 605 736 q 673 470 673 567 q 665 381 673 425 q 567 178 643 261 q 375 50 490 96 q 119 -7 260 4 q 116 -7 118 -7 q 86 6 98 -7 q 72 36 73 20 m 156 890 l 160 86 q 352 136 264 99 q 500 237 441 174 q 577 390 560 300 q 585 469 585 429 q 556 622 585 551 q 482 748 528 693 q 385 836 436 802 q 199 892 298 892 q 156 890 178 892 z "},"E":{"ha":880,"x_min":68,"x_max":812,"o":"m 334 884 q 244 883 291 884 q 165 880 197 882 q 170 528 170 684 l 661 525 q 693 511 682 525 q 703 481 703 497 q 693 450 703 464 q 661 437 682 437 l 169 440 q 166 278 168 350 q 161 153 164 206 l 158 87 q 521 91 380 88 q 722 99 662 94 q 753 86 743 101 q 764 54 764 71 q 755 25 764 39 q 726 11 745 12 q 506 2 659 5 q 112 -1 352 -1 q 81 13 95 -1 q 68 45 68 26 q 69 92 68 53 q 73 189 71 131 q 77 313 75 248 q 80 440 79 378 q 81 547 81 501 q 79 725 81 631 q 77 922 77 819 q 89 951 77 939 q 118 965 102 964 l 167 968 q 288 972 225 972 q 416 971 350 973 q 787 914 677 963 q 812 871 812 903 q 801 842 812 854 q 770 829 789 829 q 751 834 761 829 q 334 884 638 884 z "},"F":{"ha":871,"x_min":65,"x_max":804,"o":"m 170 884 q 188 722 181 805 q 197 551 195 639 l 197 551 l 690 547 q 722 533 711 547 q 732 503 732 519 q 722 473 732 486 q 690 459 711 459 q 690 459 690 459 l 197 463 q 194 357 197 416 q 187 236 191 298 q 176 121 182 174 q 164 32 170 67 l 155 -16 q 139 -41 152 -32 q 111 -51 126 -51 q 79 -36 93 -51 q 68 0 65 -21 l 77 47 q 101 244 94 138 q 109 461 109 351 q 100 707 109 585 q 75 930 91 829 q 74 937 74 934 q 87 969 74 956 q 118 982 100 982 q 125 981 122 982 l 176 972 q 349 950 257 958 q 533 941 440 941 q 738 973 682 941 q 760 979 748 979 q 790 967 777 979 q 804 935 804 954 q 802 924 804 930 q 623 856 789 873 q 538 852 587 852 q 457 855 505 852 q 356 862 409 858 q 255 872 304 867 q 170 884 205 878 z "},"G":{"ha":1255,"x_min":68,"x_max":1187,"o":"m 1101 851 q 1114 820 1114 838 q 1089 780 1114 793 q 1041 786 1063 766 q 876 868 983 839 q 648 897 768 897 q 527 889 587 897 q 214 709 307 844 q 170 619 183 665 q 156 526 156 572 q 193 363 156 442 q 286 224 231 284 q 450 109 351 155 q 675 62 549 62 q 814 77 743 62 q 922 119 868 91 q 1019 186 976 148 q 1082 266 1062 224 q 1099 343 1099 303 q 1084 404 1099 383 q 1041 435 1069 425 q 972 454 1013 445 q 847 466 924 466 q 764 464 809 466 q 680 457 720 461 q 619 450 641 454 l 591 446 q 583 446 587 446 q 552 460 564 446 q 541 492 541 475 q 550 518 541 506 q 577 534 558 531 l 606 538 q 669 545 629 541 q 755 552 709 549 q 842 555 801 555 q 1004 538 930 555 q 1125 487 1078 522 q 1187 340 1187 440 q 1038 88 1187 200 q 834 -8 947 20 q 675 -25 752 -25 q 534 -10 603 -25 q 222 164 345 31 q 111 331 155 236 q 68 526 68 425 q 85 644 68 585 q 142 760 103 703 q 511 976 256 924 q 512 976 511 976 q 513 977 513 977 q 647 985 579 985 q 909 950 786 985 q 1101 851 1031 914 z "},"H":{"ha":753,"x_min":68,"x_max":686,"o":"m 633 984 q 663 971 650 984 q 677 941 677 958 l 686 22 q 672 -9 686 1 q 642 -20 658 -20 q 611 -10 625 -20 q 597 22 597 1 l 593 429 l 161 434 l 165 14 q 151 -18 165 -7 q 120 -29 137 -29 q 90 -19 104 -29 q 77 13 77 -8 l 68 931 q 82 963 68 952 q 112 974 96 974 q 142 963 128 974 q 156 932 156 953 l 160 522 l 593 517 q 591 728 592 623 q 589 940 590 834 q 602 971 589 958 q 633 984 616 984 z "},"I":{"ha":232,"x_min":68,"x_max":165,"o":"m 113 987 q 143 974 130 987 q 156 943 156 960 l 165 26 q 151 -7 165 4 q 120 -18 137 -18 q 90 -7 104 -18 q 77 24 77 3 l 68 943 q 82 974 68 960 q 113 987 96 987 z "},"J":{"ha":673,"x_min":69,"x_max":606,"o":"m 606 370 q 579 164 606 251 q 489 31 553 78 q 316 -16 426 -16 q 99 22 222 -16 q 76 38 83 26 q 69 61 69 49 q 81 93 69 79 q 111 108 92 108 q 125 106 118 108 q 315 72 236 72 q 465 132 418 72 q 517 370 517 199 q 514 456 517 400 q 504 581 510 512 q 492 718 498 649 q 482 844 486 787 q 478 931 478 901 q 492 963 478 952 q 523 974 506 974 q 553 963 539 974 q 566 932 566 953 q 571 845 567 901 q 581 719 575 788 q 592 581 587 650 q 602 456 598 512 q 606 370 606 400 z "},"K":{"ha":821,"x_min":68,"x_max":753,"o":"m 753 34 q 740 3 753 14 q 709 -8 726 -8 q 685 -1 696 -8 q 669 22 673 7 q 559 157 656 63 q 384 312 481 231 q 167 480 286 393 q 159 172 162 286 q 156 22 157 58 q 142 -9 156 1 q 112 -20 128 -20 q 81 -9 95 -20 q 68 22 68 1 q 74 303 68 76 q 90 935 80 531 q 104 965 90 953 q 135 978 118 978 q 165 965 152 978 q 178 933 178 951 q 173 742 175 833 q 169 573 171 652 l 194 593 q 358 723 286 663 q 484 832 431 783 q 604 952 591 931 q 623 972 612 964 q 647 981 633 981 q 677 967 665 981 q 690 936 690 953 q 683 912 690 923 q 352 606 632 833 q 252 526 293 558 q 456 367 362 444 q 625 215 549 289 q 753 34 753 91 z "},"L":{"ha":859,"x_min":68,"x_max":790,"o":"m 113 983 q 143 970 130 983 q 156 941 156 958 q 173 435 163 651 q 193 79 182 219 q 200 79 196 79 q 312 87 252 79 q 428 100 371 95 q 551 107 493 107 q 760 80 669 107 q 782 63 774 76 q 790 36 790 50 q 774 3 790 18 q 735 -5 758 -12 q 549 19 654 19 q 419 12 486 19 q 296 -3 353 4 q 247 -8 269 -6 q 208 -11 226 -11 q 138 2 172 -11 q 106 50 110 12 q 81 413 95 190 q 68 939 68 636 q 82 970 68 956 q 113 983 96 983 z "},"M":{"ha":1015,"x_min":68,"x_max":948,"o":"m 899 983 q 930 968 919 983 q 942 939 942 954 l 948 8 q 935 -24 948 -13 q 904 -35 921 -35 q 874 -24 888 -35 q 860 8 860 -13 l 855 774 q 669 490 729 564 q 574 396 608 414 q 543 388 559 388 q 467 425 509 388 q 370 529 418 471 q 276 648 321 587 q 191 760 231 708 l 158 805 l 168 18 q 154 -14 168 -3 q 123 -25 140 -25 q 93 -15 106 -25 q 79 17 79 -4 l 68 941 q 81 973 68 961 q 113 985 95 985 q 146 969 133 985 l 262 812 q 543 481 473 534 q 658 624 592 522 q 759 785 715 713 q 833 912 802 857 l 859 960 q 875 976 864 969 q 899 983 886 983 z "},"N":{"ha":857,"x_min":67,"x_max":790,"o":"m 136 -22 q 107 -9 120 -22 q 94 20 94 3 l 68 928 q 81 961 67 949 q 113 973 96 973 q 148 955 135 973 l 696 165 l 672 947 q 685 980 671 968 q 716 991 699 991 q 746 981 732 991 q 760 949 760 970 l 789 19 q 776 -14 790 -2 q 745 -26 762 -26 q 709 -7 722 -26 l 160 783 l 182 23 q 168 -9 182 5 q 136 -22 154 -22 z "},"O":{"ha":1154,"x_min":68,"x_max":1086,"o":"m 1086 460 q 1046 273 1086 357 q 936 128 1006 189 q 774 34 866 67 q 576 1 682 1 q 479 9 528 1 q 382 35 431 17 q 193 158 276 73 q 81 366 111 243 q 68 476 68 422 q 94 622 68 553 q 161 748 119 692 q 250 844 202 805 q 562 962 385 955 q 575 961 569 962 q 585 958 581 959 q 818 891 714 951 q 984 751 922 831 q 1086 460 1086 618 m 566 873 q 301 772 418 867 q 161 528 184 676 q 157 473 157 501 q 176 355 157 410 q 222 262 195 300 q 366 138 276 188 q 574 88 456 88 q 660 96 616 88 q 828 158 751 111 q 951 282 905 206 q 998 456 998 357 q 966 611 998 541 q 881 734 934 681 q 767 819 829 787 q 581 870 677 865 q 566 873 574 870 z "},"P":{"ha":667,"x_min":68,"x_max":600,"o":"m 157 425 l 158 12 q 144 -20 158 -9 q 114 -31 130 -31 q 83 -20 97 -31 q 70 12 70 -9 l 68 930 q 81 961 68 947 q 112 974 95 974 q 113 974 113 974 q 495 865 361 966 q 600 680 600 786 q 509 513 600 583 q 196 425 396 425 q 157 425 177 425 m 157 513 q 195 513 176 513 q 455 582 366 513 q 511 680 511 625 q 442 794 511 742 q 156 883 342 869 l 157 513 z "},"Q":{"ha":1218,"x_min":68,"x_max":1149,"o":"m 344 963 q 526 1005 433 1005 q 700 971 617 1005 q 848 883 782 937 q 958 771 915 829 q 1043 517 1043 657 q 1018 358 1043 441 q 865 111 975 214 q 1056 77 958 77 q 1082 78 1069 77 q 1107 79 1095 79 q 1138 65 1127 79 q 1149 35 1149 52 q 1139 7 1149 20 q 1110 -8 1130 -6 q 1053 -11 1081 -11 q 912 5 979 -11 q 785 50 844 22 q 551 -12 683 -12 q 195 178 343 -12 q 79 431 113 284 q 68 532 68 482 q 109 718 68 626 q 344 963 182 886 m 809 802 q 728 857 775 831 q 629 900 682 884 q 525 917 576 917 q 382 884 451 917 q 189 682 250 821 q 157 534 157 611 q 205 332 157 438 q 282 212 233 271 q 399 114 331 153 q 551 76 467 76 q 694 102 629 76 q 593 194 636 143 q 509 425 509 292 q 511 460 509 443 q 526 489 512 478 q 556 500 539 500 q 587 487 574 500 q 598 453 600 473 q 597 428 597 440 q 648 270 597 341 q 779 151 698 198 q 878 262 833 194 q 935 387 915 319 q 955 532 955 454 q 809 802 955 677 z "},"R":{"ha":930,"x_min":67,"x_max":861,"o":"m 119 -26 q 88 -12 102 -26 q 76 20 75 2 q 79 223 79 88 q 78 440 79 315 q 73 721 76 564 l 68 930 q 79 960 67 947 q 106 975 91 972 q 352 993 244 993 q 592 958 501 993 q 772 675 772 888 q 441 357 772 412 q 400 352 422 355 q 352 348 378 349 l 841 58 q 861 20 861 45 q 841 -17 861 0 q 796 -18 821 -33 l 172 352 q 170 354 171 353 q 167 355 168 355 q 168 217 168 278 q 164 16 168 80 q 149 -14 163 -2 q 119 -26 136 -26 m 166 425 q 195 434 178 434 q 245 433 220 433 q 591 498 491 433 q 684 675 684 558 q 652 804 684 757 q 351 906 585 906 q 157 892 265 906 l 161 722 q 164 564 163 638 q 166 425 165 490 z "},"S":{"ha":930,"x_min":68,"x_max":864,"o":"m 537 431 q 476 429 507 431 q 418 427 445 427 q 267 447 329 427 q 155 513 205 467 q 94 592 121 544 q 68 700 68 640 q 81 777 68 738 q 191 910 109 862 q 383 959 272 959 q 642 910 528 959 q 833 787 755 861 q 846 756 846 774 q 834 726 846 740 q 804 711 823 712 q 772 724 785 711 q 608 829 707 787 q 388 871 510 871 q 245 841 305 871 q 164 749 184 810 q 156 700 156 724 q 174 629 156 661 q 215 576 192 597 q 299 530 251 545 q 418 515 347 515 q 475 517 444 515 q 535 519 506 519 q 727 484 659 519 q 821 404 778 458 q 864 279 864 349 q 859 234 864 256 q 692 39 828 101 q 511 -1 607 -1 q 465 1 488 -1 q 97 151 243 22 q 82 182 82 165 q 96 214 82 200 q 127 229 109 229 q 155 218 142 229 q 474 89 281 107 q 509 87 492 87 q 661 121 587 87 q 772 250 751 163 q 775 278 775 264 q 747 356 775 323 q 684 406 718 389 q 537 431 637 431 z "},"T":{"ha":942,"x_min":69,"x_max":873,"o":"m 481 -18 q 451 -4 464 -18 q 437 26 437 9 l 437 892 l 112 893 q 80 907 91 893 q 69 937 69 921 q 80 968 69 954 q 112 981 91 981 l 831 979 q 862 965 852 979 q 873 935 873 951 q 862 904 873 918 q 830 890 852 890 q 678 891 754 891 q 526 891 602 890 l 526 26 q 512 -4 526 9 q 481 -18 499 -18 z "},"U":{"ha":929,"x_min":68,"x_max":861,"o":"m 450 75 q 606 114 544 75 q 706 220 669 152 q 758 378 743 288 q 774 570 774 467 q 736 938 774 726 q 736 946 736 942 q 750 978 736 966 q 782 989 765 989 q 808 980 796 989 q 823 954 820 972 q 861 564 861 734 q 690 64 861 205 q 583 6 646 26 q 451 -14 521 -14 q 262 31 332 -14 q 155 157 192 77 q 98 340 118 237 q 68 777 68 495 q 70 936 68 852 q 84 966 71 954 q 115 979 98 979 q 145 965 132 979 q 158 933 158 951 q 156 768 156 845 q 184 358 156 499 q 287 123 220 174 q 450 75 349 75 z "},"V":{"ha":845,"x_min":68,"x_max":782,"o":"m 68 916 q 68 923 68 920 q 82 954 68 943 q 114 965 97 965 q 140 956 128 965 q 155 928 153 947 q 207 613 180 755 q 262 357 233 470 q 374 102 320 132 q 394 105 385 96 q 691 922 518 225 q 708 945 695 937 q 734 954 720 954 q 767 938 753 954 q 777 900 782 922 q 484 73 610 231 q 378 15 437 15 q 263 94 313 15 q 174 329 214 174 q 68 916 121 538 z "},"W":{"ha":1248,"x_min":68,"x_max":1181,"o":"m 68 922 q 81 954 68 941 q 113 967 95 967 q 142 954 130 967 q 156 924 155 941 q 168 673 160 789 q 189 463 176 557 q 314 79 233 136 q 333 73 326 71 q 351 83 340 75 q 390 126 371 99 q 430 191 410 153 q 468 277 450 229 q 503 381 486 325 q 585 930 577 632 q 599 962 586 951 q 629 972 612 972 q 659 962 645 972 q 673 931 673 951 q 796 216 693 462 q 856 108 826 146 q 905 62 887 68 q 938 57 926 56 q 995 103 965 59 q 1053 234 1031 156 q 1084 405 1075 312 q 1093 597 1093 498 q 1088 755 1093 676 q 1076 907 1084 834 q 1076 913 1076 910 q 1089 944 1076 933 q 1120 955 1103 955 q 1148 946 1135 955 q 1163 917 1161 937 q 1176 761 1171 841 q 1181 601 1181 680 q 1170 389 1181 492 q 1134 200 1159 286 q 1067 53 1109 113 q 1012 -5 1046 22 q 932 -32 978 -32 q 883 -23 907 -32 q 791 47 830 -4 q 749 113 771 73 q 705 207 728 153 q 626 508 659 317 q 507 148 578 284 q 331 -16 421 -16 q 264 7 298 -16 q 169 148 209 45 q 98 450 128 253 q 68 922 68 647 z "},"X":{"ha":964,"x_min":67,"x_max":897,"o":"m 887 60 q 897 34 897 48 q 882 3 897 16 q 850 -11 867 -11 q 817 6 830 -11 q 653 220 735 113 q 488 434 570 328 l 146 -7 q 114 -24 134 -24 q 82 -11 96 -24 q 67 21 67 3 q 77 47 67 35 l 431 506 q 272 714 351 610 q 111 922 192 818 q 102 948 102 934 q 116 979 102 966 q 149 992 131 992 q 181 975 168 992 q 334 777 258 876 q 488 578 411 677 l 783 962 q 816 979 796 979 q 848 965 833 979 q 863 934 863 952 q 853 908 863 920 l 543 506 l 887 60 z "},"Y":{"ha":863,"x_min":68,"x_max":795,"o":"m 302 -54 q 271 -41 283 -54 q 258 -9 258 -28 q 262 9 258 0 q 361 225 311 117 q 460 441 410 333 l 78 905 q 68 932 68 918 q 82 963 68 949 q 114 977 96 977 q 146 960 133 977 l 500 530 q 606 760 553 646 q 711 989 659 875 q 726 1007 715 1000 q 751 1015 737 1015 q 782 1002 769 1015 q 795 971 795 989 q 791 953 795 962 l 342 -28 q 326 -46 337 -38 q 302 -54 315 -54 z "},"Z":{"ha":999,"x_min":68,"x_max":931,"o":"m 501 987 q 724 948 643 987 q 804 819 804 909 q 605 492 804 687 q 499 392 559 446 q 366 273 439 337 q 178 100 220 148 q 739 90 567 90 q 854 92 820 90 q 881 102 867 102 q 914 86 897 102 q 931 56 931 71 q 925 35 931 45 q 903 12 912 15 q 873 5 893 9 q 758 1 856 1 q 146 13 582 1 q 75 51 97 14 q 68 77 68 63 q 95 138 68 104 q 294 328 136 191 q 434 452 374 396 q 537 549 495 507 q 613 630 579 591 q 671 708 647 670 q 714 819 714 777 q 704 853 714 840 q 620 890 683 881 q 483 900 556 900 q 322 894 403 900 q 170 888 241 888 q 133 889 150 888 q 102 903 112 890 q 92 933 92 917 q 102 963 92 949 q 134 977 113 977 q 145 977 139 977 q 157 977 151 977 q 264 980 203 977 q 388 985 326 982 q 501 987 450 987 z "},"[":{"ha":589,"x_min":68,"x_max":522,"o":"m 477 10 q 509 -3 496 10 q 522 -34 522 -16 q 508 -65 522 -52 q 477 -78 495 -78 l 120 -85 l 119 -85 q 88 -72 101 -85 q 75 -41 75 -58 l 68 921 l 68 922 q 80 953 68 941 q 111 966 93 965 l 470 972 l 471 972 q 503 960 490 972 q 515 928 515 947 q 503 898 515 911 q 472 884 490 884 l 156 878 l 163 5 l 476 10 l 477 10 z "},"\\":{"ha":650,"x_min":68,"x_max":583,"o":"m 72 965 q 68 985 68 975 q 82 1015 68 1004 q 114 1026 97 1026 q 152 1001 141 1026 l 579 -8 q 583 -26 583 -17 q 570 -57 583 -43 q 540 -70 558 -70 q 498 -43 509 -70 l 72 965 z "},"]":{"ha":589,"x_min":68,"x_max":522,"o":"m 112 10 l 113 10 l 427 5 l 433 878 l 117 884 q 86 898 100 884 q 73 928 73 911 q 86 960 73 947 q 117 972 99 972 l 119 972 l 478 966 q 509 953 496 965 q 522 922 522 941 l 521 921 l 514 -41 q 501 -72 514 -58 q 470 -85 488 -85 l 469 -85 l 112 -78 q 81 -65 94 -78 q 68 -34 68 -52 q 81 -3 68 -16 q 112 10 94 10 z "},"^":{"ha":774,"x_min":67,"x_max":713,"o":"m 71 199 q 111 304 88 244 q 163 441 134 365 q 287 749 255 686 q 318 805 302 779 q 365 844 335 831 q 397 850 381 850 q 454 823 431 850 q 490 770 477 795 q 531 682 511 729 q 574 566 550 635 q 636 391 599 497 q 675 280 658 330 q 704 196 692 231 q 697 155 713 172 q 664 138 682 138 q 638 145 650 138 q 621 166 626 153 q 592 250 609 201 q 553 359 575 298 q 474 580 507 493 q 427 701 442 667 q 394 756 409 739 q 366 709 381 741 q 320 604 351 679 q 245 410 290 529 q 153 168 188 258 q 136 146 148 153 q 113 140 125 140 q 81 151 96 140 q 67 181 67 162 q 71 199 67 189 z "},"_":{"ha":531,"x_min":56,"x_max":470,"o":"m 100 -153 q 68 -140 81 -153 q 56 -109 56 -127 q 68 -77 56 -90 q 100 -64 81 -64 l 426 -64 q 457 -77 444 -64 q 470 -109 470 -90 q 457 -140 470 -127 q 426 -153 444 -153 l 100 -153 z "},"`":{"ha":146,"x_min":-1,"x_max":146,"o":"m -1 928 q 14 960 -1 947 q 44 972 28 972 q 83 950 71 972 l 132 838 q 146 800 146 814 q 136 779 146 787 q 114 771 126 771 q 85 793 98 771 l 6 905 q -1 928 -1 916 z "},"a":{"ha":743,"x_min":68,"x_max":675,"o":"m 668 471 q 670 456 670 464 q 664 420 670 440 q 654 229 654 313 q 673 38 654 111 q 675 25 675 31 q 661 -5 675 6 q 629 -16 646 -16 q 605 -9 616 -16 q 589 16 593 -1 q 566 214 568 94 q 428 50 502 110 q 336 9 383 14 q 280 1 307 1 q 210 16 241 1 q 155 52 178 30 q 91 152 113 90 q 68 294 68 213 q 116 492 68 397 q 330 676 186 630 q 436 694 385 694 q 556 665 500 694 q 668 471 654 612 m 580 465 q 537 568 574 530 q 439 606 501 606 q 357 592 401 606 q 198 458 248 557 q 156 292 156 375 q 172 188 156 234 q 212 119 187 142 q 281 90 242 90 q 306 93 294 90 q 332 98 317 96 q 378 125 344 99 q 450 202 412 153 q 522 313 488 252 q 577 437 556 375 q 578 451 578 444 q 580 465 579 458 z "},"b":{"ha":813,"x_min":67,"x_max":745,"o":"m 67 63 q 74 174 67 111 q 81 288 81 236 q 81 293 81 290 q 86 350 81 336 q 90 515 88 410 q 94 768 92 619 l 96 934 q 109 965 96 952 q 140 977 122 977 q 171 964 158 977 q 184 932 184 950 l 182 767 q 180 640 181 696 q 178 541 180 583 q 446 688 315 680 q 466 688 456 688 q 655 597 582 688 q 721 474 697 544 q 745 331 745 404 q 731 224 745 277 q 685 125 716 171 q 571 23 640 59 q 409 -12 502 -12 q 165 141 258 -12 q 162 88 164 112 q 159 47 161 64 q 145 15 157 28 q 115 1 133 1 q 78 19 90 1 q 67 63 67 38 m 408 76 q 590 148 523 76 q 656 335 656 220 q 633 461 656 401 q 566 561 610 522 q 464 600 523 600 q 454 600 459 600 q 176 405 326 591 q 175 374 175 389 q 174 343 175 358 q 189 302 180 328 q 408 76 265 76 z "},"c":{"ha":654,"x_min":68,"x_max":587,"o":"m 156 263 q 204 130 156 180 q 343 79 253 79 q 527 117 421 79 q 543 120 534 120 q 573 107 560 120 q 587 77 587 95 q 578 50 587 62 q 557 35 569 39 q 342 -9 436 -9 q 172 40 239 -9 q 83 165 106 89 q 68 265 68 215 q 95 405 68 334 q 167 530 120 471 q 282 626 214 589 q 434 663 349 663 q 549 645 490 663 q 572 629 565 640 q 579 605 579 618 q 568 573 579 588 q 538 559 557 559 q 524 561 531 559 q 439 574 481 574 q 322 546 374 574 q 234 472 271 517 q 178 375 197 427 q 156 263 156 317 z "},"d":{"ha":808,"x_min":68,"x_max":741,"o":"m 732 289 q 736 180 732 239 q 741 77 741 121 q 731 31 741 50 q 693 12 720 12 q 663 26 675 12 q 650 58 652 40 q 648 100 649 76 q 645 153 646 123 q 404 3 551 3 q 230 47 306 3 q 112 167 155 90 q 68 345 68 244 q 94 493 68 420 q 164 618 120 565 q 349 705 236 705 q 374 704 361 705 q 640 553 505 694 q 640 651 640 595 q 640 779 640 708 l 642 944 q 655 976 642 965 q 686 987 669 987 q 716 976 703 987 q 730 943 730 965 l 728 777 q 727 611 728 686 q 727 477 727 536 q 728 359 727 404 q 732 317 732 347 q 732 303 732 310 q 732 289 732 296 m 405 92 q 625 313 544 92 q 633 338 630 328 q 640 355 637 348 l 640 416 q 365 616 492 606 q 353 617 359 617 q 249 577 293 617 q 181 476 205 538 q 157 349 157 415 q 224 163 157 235 q 405 92 290 92 z "},"e":{"ha":784,"x_min":68,"x_max":716,"o":"m 164 230 q 240 119 184 159 q 383 79 297 79 q 651 155 498 79 q 671 159 661 159 q 702 147 688 159 q 715 117 715 135 q 690 75 715 87 q 533 14 613 37 q 378 -9 453 -9 q 236 20 302 -9 q 123 115 170 48 q 82 194 96 152 q 68 288 68 236 q 71 336 68 311 q 178 558 86 466 q 492 677 298 677 q 623 649 567 677 q 703 567 680 620 q 716 505 716 538 q 687 407 716 450 q 606 329 659 365 q 175 229 457 229 q 164 230 171 229 m 157 313 q 175 317 166 317 q 557 402 431 317 q 610 451 592 426 q 629 508 629 475 q 620 538 629 527 q 598 560 612 550 q 493 589 560 589 q 329 556 403 589 q 209 460 255 522 q 157 313 163 398 z "},"f":{"ha":750,"x_min":68,"x_max":684,"o":"m 112 578 q 81 591 94 578 q 68 622 68 604 q 81 653 68 640 q 112 666 94 666 l 232 666 q 234 802 233 755 q 264 900 235 858 q 341 965 294 942 q 446 988 389 988 q 506 981 476 988 q 676 854 608 959 q 684 831 684 843 q 669 800 684 812 q 636 787 654 787 q 602 806 614 787 q 487 895 553 880 q 448 899 467 899 q 361 873 398 899 q 322 802 323 846 q 320 666 321 755 l 435 666 q 466 653 452 666 q 479 622 479 640 q 466 591 479 604 q 435 578 452 578 l 319 578 q 319 440 319 541 q 317 178 319 340 l 317 43 q 303 12 317 22 q 273 1 290 1 q 242 12 256 1 q 229 44 229 22 l 229 178 q 231 439 231 340 q 231 578 231 539 l 112 578 z "},"g":{"ha":759,"x_min":68,"x_max":692,"o":"m 320 -8 q 214 36 256 -8 q 152 148 172 80 q 132 287 132 216 q 174 484 132 389 q 366 671 235 625 q 462 689 414 689 q 613 625 559 689 q 673 465 667 560 q 680 416 676 451 q 686 339 683 381 q 690 257 688 296 q 692 195 692 218 q 622 -186 692 -41 q 514 -325 583 -267 q 340 -382 446 -382 q 300 -380 321 -382 q 89 -303 194 -368 q 68 -266 68 -291 q 89 -228 68 -243 q 135 -228 110 -213 q 306 -292 224 -282 q 341 -294 324 -294 q 466 -252 420 -294 q 543 -147 512 -211 q 604 195 604 -20 q 603 248 604 221 q 376 1 486 14 q 320 -8 347 -8 m 326 81 q 347 85 338 81 q 369 89 357 89 q 405 111 378 89 q 458 174 431 134 q 511 259 486 214 q 551 344 535 304 q 587 446 583 425 q 586 454 586 451 q 585 459 585 458 q 551 566 579 531 q 465 601 522 601 q 396 589 429 601 q 256 452 302 555 q 220 287 220 370 q 234 177 220 229 q 270 106 249 126 q 326 81 296 81 z "},"h":{"ha":760,"x_min":68,"x_max":692,"o":"m 70 172 l 68 947 q 82 979 68 968 q 112 989 96 989 q 142 979 129 989 q 156 947 156 968 l 157 543 q 352 691 234 677 q 382 693 368 693 q 559 622 477 693 q 655 488 619 570 q 692 296 692 406 q 621 16 692 161 q 581 -7 609 -7 q 546 12 562 -7 q 542 56 529 31 q 604 296 604 180 q 575 449 604 383 q 501 555 547 515 q 382 605 445 605 q 285 567 325 605 q 219 472 245 528 q 181 359 194 415 q 158 170 162 279 l 158 37 q 144 5 158 16 q 113 -5 130 -5 q 84 5 97 -5 q 70 35 71 15 q 68 99 68 66 q 69 136 68 118 q 70 172 69 155 z "},"i":{"ha":309,"x_min":68,"x_max":241,"o":"m 68 824 q 83 872 68 849 q 121 910 98 896 q 165 925 143 925 q 219 898 197 925 q 241 845 241 871 q 225 799 241 820 q 183 768 210 778 q 130 753 153 753 q 86 774 105 753 q 68 824 68 795 m 178 111 q 163 24 176 56 q 118 -8 150 -8 q 87 5 100 -8 q 73 37 73 18 q 77 54 73 45 q 86 111 83 68 q 92 211 90 153 q 95 330 94 269 q 96 444 96 391 q 96 528 96 497 q 96 639 96 586 q 110 671 96 661 q 140 682 123 682 q 170 672 157 682 q 183 640 183 661 q 184 570 184 604 q 184 502 184 535 q 183 302 184 391 q 178 111 182 212 z "},"j":{"ha":587,"x_min":68,"x_max":519,"o":"m 392 760 q 344 781 361 760 q 326 827 326 802 q 341 877 326 853 q 378 915 355 900 q 422 930 400 930 q 476 903 454 930 q 498 850 498 876 q 483 804 498 825 q 441 773 467 783 q 392 760 414 760 m 68 -305 q 81 -274 68 -287 q 112 -261 94 -261 q 130 -265 121 -261 q 266 -301 210 -301 q 359 -265 325 -301 q 409 -167 393 -229 q 431 -26 425 -105 q 433 47 433 7 q 391 477 433 205 q 376 579 381 543 q 370 627 370 616 q 384 659 370 648 q 414 669 397 669 q 445 659 431 669 q 459 628 458 648 q 465 585 460 620 q 478 490 469 551 q 519 47 519 228 q 490 -197 519 -104 q 268 -389 431 -389 q 181 -378 221 -389 q 94 -345 142 -367 q 76 -330 83 -340 q 68 -305 68 -319 z "},"k":{"ha":726,"x_min":68,"x_max":659,"o":"m 615 -5 q 586 7 600 -5 q 571 33 571 19 q 511 114 571 66 q 172 307 381 216 q 157 317 165 310 q 155 168 155 231 q 160 36 155 68 q 161 28 161 32 q 146 -3 161 8 q 115 -14 132 -14 q 89 -5 101 -14 q 73 23 76 4 q 68 165 68 58 q 92 948 68 393 q 106 979 92 968 q 136 989 119 989 q 165 978 152 989 q 179 947 179 968 q 179 944 179 946 q 167 629 172 770 q 159 379 162 488 q 166 384 161 380 q 180 393 172 388 q 372 530 302 463 q 442 631 442 599 q 455 662 442 649 q 486 675 469 675 q 519 661 508 675 q 530 621 530 646 q 440 474 530 562 q 360 405 395 431 q 283 353 324 380 q 555 191 448 275 q 659 39 659 109 q 646 8 659 21 q 615 -5 633 -5 z "},"l":{"ha":246,"x_min":68,"x_max":180,"o":"m 137 996 q 167 982 154 996 q 179 950 180 968 q 161 473 168 669 q 155 168 155 278 q 160 42 155 73 q 161 35 161 38 q 146 3 161 14 q 115 -7 132 -7 q 89 1 101 -7 q 73 29 76 10 q 68 171 68 64 q 92 954 68 399 q 106 984 92 972 q 137 996 120 996 z "},"m":{"ha":1098,"x_min":67,"x_max":1030,"o":"m 361 665 q 452 638 410 665 q 525 568 493 611 q 577 479 556 526 q 686 646 616 595 q 781 678 732 678 q 868 653 826 678 q 943 587 909 628 q 1007 466 984 538 q 1030 303 1030 394 q 956 12 1030 163 q 916 -12 943 -12 q 880 7 896 -12 q 876 51 863 25 q 942 302 942 184 q 923 437 942 378 q 872 536 905 496 q 783 588 829 588 q 694 524 730 588 q 650 413 665 473 q 630 288 635 353 q 636 225 634 256 q 639 161 639 194 q 637 101 639 132 q 631 34 635 70 q 616 6 629 15 q 587 -3 603 -3 q 558 6 572 -3 q 543 36 545 16 q 538 179 538 113 q 541 286 538 236 q 470 494 522 416 q 364 578 414 578 q 286 515 322 578 q 227 313 245 444 q 228 236 228 273 q 222 81 228 146 l 218 34 q 204 5 217 14 q 175 -5 191 -5 q 145 5 159 -5 q 130 36 132 16 q 128 127 128 83 q 139 318 128 234 q 77 598 133 528 q 67 625 67 610 q 82 656 67 643 q 114 669 96 669 q 146 653 134 669 q 199 540 180 610 q 361 665 261 665 z "},"n":{"ha":878,"x_min":68,"x_max":810,"o":"m 113 699 q 146 683 133 699 q 217 501 195 624 q 455 689 309 668 q 500 692 478 692 q 644 655 582 692 q 747 557 707 618 q 801 425 787 496 q 810 332 810 380 q 715 16 810 182 q 677 -5 703 -5 q 640 15 656 -5 q 638 60 623 35 q 722 333 722 206 q 715 407 722 371 q 675 504 704 459 q 602 576 646 549 q 500 604 557 604 q 468 602 484 604 q 353 543 401 592 q 277 423 306 493 q 235 280 248 353 q 235 262 235 271 q 225 66 235 165 l 222 39 q 208 11 220 20 q 180 2 195 2 q 150 12 163 2 q 135 43 136 22 q 134 102 134 73 q 147 286 134 202 q 123 520 144 442 q 84 619 102 597 q 68 655 68 640 q 82 687 68 675 q 113 699 96 699 z "},"o":{"ha":820,"x_min":68,"x_max":753,"o":"m 416 703 q 692 536 585 693 q 737 443 722 494 q 753 330 753 392 q 709 163 753 237 q 602 50 665 90 q 512 8 562 24 q 408 -7 462 -7 q 238 37 309 -7 q 125 146 168 81 q 68 338 68 235 q 72 393 68 365 q 185 614 91 528 q 399 705 280 701 q 416 703 408 707 m 664 334 q 627 475 664 413 q 533 574 591 537 q 411 615 475 611 q 400 617 406 615 q 275 575 331 613 q 188 474 220 536 q 155 336 155 412 q 178 231 155 278 q 237 150 201 183 q 313 100 273 116 q 410 81 360 81 q 537 114 480 81 q 625 193 595 146 q 654 261 644 224 q 664 334 664 297 z "},"p":{"ha":813,"x_min":67,"x_max":745,"o":"m 67 614 q 78 657 67 639 q 115 676 90 676 q 145 662 133 676 q 159 629 157 648 q 162 589 161 612 q 165 536 164 566 q 409 689 258 689 q 571 653 502 689 q 685 552 640 618 q 731 453 716 506 q 745 346 745 400 q 721 203 745 273 q 655 80 697 133 q 466 -12 582 -12 q 446 -11 456 -12 q 178 136 315 -3 q 180 37 180 94 q 182 -90 181 -20 l 184 -256 q 171 -287 184 -273 q 140 -300 158 -300 q 109 -288 122 -300 q 96 -257 96 -275 l 94 -91 q 90 162 92 58 q 86 327 88 267 q 81 384 81 340 q 81 389 81 387 q 74 503 81 441 q 67 614 67 566 m 408 601 q 189 375 265 601 q 174 334 180 349 q 175 303 175 319 q 176 272 175 288 q 454 77 326 86 q 464 77 459 77 q 566 116 523 77 q 633 215 610 155 q 656 342 656 276 q 590 529 656 457 q 408 601 523 601 z "},"q":{"ha":810,"x_min":69,"x_max":743,"o":"m 732 406 q 732 394 732 399 q 732 382 732 388 q 728 336 732 349 q 727 171 727 275 q 726 -82 726 66 l 726 -248 q 712 -280 726 -269 q 682 -291 699 -291 q 652 -280 666 -291 q 638 -248 638 -269 l 638 143 q 373 -7 504 3 q 349 -7 361 -7 q 163 81 235 -7 q 94 205 119 134 q 69 351 69 277 q 112 529 69 452 q 230 650 154 606 q 404 694 305 694 q 646 544 552 694 q 652 637 649 603 q 665 670 653 656 q 694 684 676 684 q 732 665 721 684 q 743 621 743 646 q 738 516 743 575 q 732 406 732 456 m 405 606 q 223 534 290 606 q 157 347 157 463 q 180 220 157 281 q 248 119 204 159 q 351 80 292 80 q 363 81 357 80 q 639 279 491 91 q 639 311 639 295 q 640 341 640 326 q 633 358 637 348 q 625 382 630 368 q 405 606 545 606 z "},"r":{"ha":561,"x_min":68,"x_max":492,"o":"m 114 -5 q 81 13 95 -5 q 68 47 68 32 q 72 73 68 60 q 77 99 77 87 q 85 200 79 136 q 90 323 90 263 q 89 417 90 366 q 77 600 85 567 q 73 625 73 614 q 84 657 73 645 q 116 670 96 670 q 143 660 132 670 q 158 637 155 650 q 176 464 173 581 q 444 680 275 659 q 449 680 446 680 q 480 665 469 680 q 492 633 492 650 q 483 606 492 618 q 454 592 474 594 q 201 283 282 570 q 171 140 181 214 q 167 92 169 109 q 165 58 165 74 q 167 44 165 50 q 168 35 168 39 q 148 7 168 20 q 114 -5 128 -5 z "},"s":{"ha":716,"x_min":68,"x_max":648,"o":"m 68 496 q 101 603 68 559 q 187 667 134 646 q 300 689 240 689 q 623 566 494 689 q 637 535 637 553 q 625 505 637 518 q 594 490 613 491 q 563 502 575 490 q 459 570 524 539 q 326 601 393 601 q 161 525 186 601 q 155 494 155 509 q 193 418 155 453 q 334 380 235 380 q 369 381 351 380 q 406 382 387 382 q 547 356 493 382 q 630 273 602 330 q 648 199 648 235 q 645 167 648 183 q 522 22 623 68 q 389 -7 459 -7 q 359 -5 374 -7 q 92 103 199 9 q 77 136 77 116 q 91 167 77 155 q 121 180 104 180 q 151 170 138 180 q 256 105 198 128 q 390 82 315 82 q 534 136 484 82 q 561 197 561 166 q 551 235 561 216 q 428 294 522 294 q 386 293 408 294 q 347 292 364 292 q 227 302 266 292 q 132 355 174 317 q 75 446 91 393 q 68 496 68 471 z "},"t":{"ha":551,"x_min":68,"x_max":481,"o":"m 422 22 q 409 -9 422 3 q 378 -22 395 -22 q 357 -17 367 -22 q 252 239 270 30 q 245 337 248 284 q 243 450 243 389 q 245 577 243 508 q 179 577 212 577 q 112 578 146 578 q 81 592 94 578 q 68 623 68 606 q 81 653 68 640 q 112 666 94 666 l 248 665 q 250 728 249 686 q 253 817 252 770 q 254 901 254 865 q 254 920 254 911 q 254 937 254 929 q 268 968 254 957 q 298 979 281 979 q 328 968 314 979 q 342 937 341 958 q 342 903 342 924 q 341 818 342 865 q 338 728 340 770 q 336 665 337 686 l 439 664 q 471 650 460 664 q 481 619 481 635 q 471 589 481 603 q 439 576 460 576 q 439 576 439 576 q 386 576 412 576 q 334 576 360 576 q 332 461 332 515 q 366 116 332 216 q 398 62 381 71 q 415 45 408 56 q 422 22 422 35 z "},"u":{"ha":755,"x_min":68,"x_max":704,"o":"m 553 633 q 597 671 562 671 q 626 659 613 671 q 640 631 638 647 q 646 513 646 570 q 634 365 646 434 q 676 60 638 131 q 682 52 681 52 q 704 12 704 39 q 682 -25 704 -14 q 633 -22 661 -37 q 560 155 583 4 q 500 77 538 117 q 415 12 463 38 q 312 -14 368 -14 q 241 -1 276 -14 q 112 126 156 30 q 68 348 68 223 q 114 653 68 481 q 131 676 118 668 q 158 685 144 685 q 191 669 176 685 q 199 630 206 652 q 155 351 155 471 q 180 189 155 259 q 231 107 198 140 q 311 73 264 73 q 392 100 350 73 q 546 372 509 175 q 546 400 546 386 q 545 430 545 415 q 546 491 545 459 q 548 555 547 522 l 553 633 z "},"v":{"ha":661,"x_min":68,"x_max":594,"o":"m 68 647 q 68 654 68 651 q 82 685 68 674 q 113 696 96 696 q 141 687 128 696 q 155 659 153 678 q 300 89 227 149 q 507 656 380 145 q 523 680 511 672 q 548 688 534 688 q 579 677 565 688 q 594 646 594 666 q 593 635 594 640 q 418 100 494 237 q 301 -2 362 -2 q 261 9 281 -2 q 153 202 196 43 q 68 647 109 360 z "},"w":{"ha":1047,"x_min":68,"x_max":979,"o":"m 491 677 q 524 663 513 677 q 535 625 535 649 q 532 560 535 604 q 529 483 529 515 q 547 312 529 394 q 594 179 564 231 q 654 108 620 135 q 728 81 688 81 q 821 122 774 81 q 891 322 891 184 q 812 602 891 451 q 806 623 806 612 q 821 653 806 641 q 853 666 836 666 q 889 643 878 666 q 979 322 979 474 q 952 164 979 231 q 876 53 926 97 q 729 -7 809 -7 q 608 30 660 -7 q 523 125 557 66 q 471 249 489 184 q 332 9 414 69 q 271 -12 302 -12 q 216 5 244 -12 q 112 203 156 43 q 68 630 68 363 q 82 662 68 651 q 112 672 96 672 q 142 662 128 672 q 156 631 155 652 q 222 142 167 275 q 264 79 244 92 q 271 75 269 75 q 279 81 272 75 q 341 161 314 106 q 389 284 369 216 q 423 425 410 353 q 442 557 436 497 q 445 612 444 584 q 455 659 446 640 q 491 677 465 677 z "},"x":{"ha":772,"x_min":68,"x_max":705,"o":"m 71 639 q 86 676 71 664 q 120 688 102 688 q 163 679 141 688 q 201 656 185 669 q 372 435 256 609 q 381 422 376 429 q 389 410 385 416 l 625 670 q 655 684 637 684 q 687 670 673 684 q 701 638 701 656 q 690 610 701 623 l 439 334 q 551 176 510 230 q 642 87 612 98 q 661 91 651 91 q 691 79 678 91 q 705 48 705 66 q 688 12 705 24 q 647 -1 672 -1 q 484 119 575 -1 q 435 185 461 148 q 378 267 409 222 l 144 9 q 114 -6 131 -6 q 82 8 96 -6 q 68 40 68 22 q 79 68 68 56 l 328 342 l 283 410 q 129 599 172 576 q 115 597 122 597 q 84 608 98 597 q 71 639 71 620 z "},"y":{"ha":652,"x_min":34,"x_max":585,"o":"m 569 629 l 577 527 q 585 296 585 404 q 453 -337 585 -157 q 374 -407 418 -385 q 279 -429 330 -429 q 142 -394 214 -429 q 119 -354 119 -382 q 137 -319 119 -334 q 181 -315 155 -303 q 277 -342 235 -342 q 332 -329 307 -342 q 409 -241 378 -304 q 459 -92 440 -178 q 486 88 477 -6 q 496 268 494 182 q 456 177 480 224 q 398 87 431 129 q 326 18 366 45 q 239 -8 286 -8 q 145 27 184 -8 q 81 126 107 62 q 34 423 34 239 q 47 643 34 523 q 62 671 50 662 q 91 680 75 680 q 121 670 107 680 q 135 638 135 659 q 135 633 135 635 q 122 422 122 516 q 162 159 122 256 q 240 79 195 79 q 333 146 281 79 q 481 627 452 300 q 495 656 482 646 q 524 666 509 666 q 553 656 540 666 q 569 629 566 647 z "},"z":{"ha":795,"x_min":68,"x_max":728,"o":"m 634 562 q 600 470 634 520 q 512 367 566 420 q 398 264 458 315 q 282 169 337 213 q 192 93 227 125 q 559 87 439 87 q 656 89 627 87 q 677 95 667 95 q 710 78 693 95 q 728 45 728 62 q 713 18 728 30 q 608 -7 682 -7 q 466 -5 542 -7 q 315 0 391 -3 q 174 5 240 3 q 118 9 130 6 q 79 29 91 15 q 68 61 68 43 q 79 100 68 80 q 108 137 90 121 q 169 190 128 155 q 258 263 210 224 q 347 336 305 302 q 410 390 388 371 q 514 506 469 442 q 545 572 545 551 q 540 587 545 581 q 378 612 513 612 q 322 611 356 612 q 251 609 288 610 q 186 607 214 608 q 146 606 157 606 q 101 615 119 606 q 83 650 83 625 q 98 683 83 671 q 136 694 113 694 q 141 694 138 694 q 146 694 143 694 q 192 695 159 694 q 265 698 224 696 q 342 701 306 700 q 397 702 378 702 q 467 698 436 702 q 537 684 498 694 q 608 642 583 673 q 634 562 634 612 z "},"{":{"ha":743,"x_min":68,"x_max":675,"o":"m 379 880 q 318 860 346 880 q 274 811 291 841 q 257 752 257 782 q 267 694 257 724 q 292 632 277 665 q 320 554 309 593 q 331 479 331 516 q 318 408 331 443 q 277 340 306 374 q 380 117 380 275 q 373 15 380 68 q 366 -83 366 -38 q 394 -214 366 -159 q 465 -293 422 -270 q 536 -310 496 -310 q 600 -294 574 -310 q 634 -282 618 -282 q 663 -294 650 -282 q 675 -325 675 -307 q 655 -363 675 -349 q 530 -399 600 -399 q 427 -373 473 -399 q 279 -72 279 -292 q 286 23 279 -31 q 292 125 292 76 q 277 205 292 167 q 190 281 252 271 q 157 272 174 275 q 124 268 140 268 q 84 278 100 268 q 68 315 68 289 q 86 349 68 337 q 130 366 105 361 q 175 370 155 370 q 224 414 204 385 q 243 484 243 443 q 240 515 243 499 q 206 606 235 542 q 179 675 190 643 q 168 743 168 707 q 214 882 168 825 q 325 959 260 940 q 384 968 354 968 q 465 950 428 968 q 526 907 501 932 q 538 877 538 895 q 525 846 538 859 q 496 832 513 832 q 458 850 476 832 q 425 871 446 863 q 379 880 404 880 z "},"|":{"ha":199,"x_min":68,"x_max":132,"o":"m 68 895 q 71 943 68 913 q 81 997 74 973 q 100 1021 87 1021 q 119 997 113 1021 q 129 943 126 972 q 132 895 132 913 l 131 42 q 128 -7 131 23 q 119 -60 125 -37 q 99 -83 112 -83 q 79 -60 86 -83 q 70 -6 73 -36 q 68 43 68 24 l 68 895 z "},"}":{"ha":743,"x_min":68,"x_max":675,"o":"m 364 -304 q 425 -284 397 -304 q 470 -235 453 -264 q 487 -176 487 -205 q 477 -118 487 -148 q 452 -56 467 -89 q 424 22 435 -17 q 413 97 413 60 q 425 168 413 134 q 466 235 437 203 q 363 459 363 301 q 370 561 363 508 q 377 659 377 614 q 349 790 377 734 q 279 869 321 846 q 208 886 248 886 q 144 870 170 886 q 109 858 125 858 q 80 870 93 858 q 68 901 68 882 q 88 939 68 925 q 213 975 144 975 q 317 949 270 975 q 465 648 465 867 q 458 553 465 606 q 451 451 451 500 q 466 370 451 409 q 553 295 492 305 q 586 304 569 300 q 619 308 604 308 q 659 297 643 308 q 675 260 675 287 q 657 227 675 239 q 613 210 638 215 q 568 205 588 205 q 520 162 540 191 q 500 93 500 134 q 504 61 500 77 q 537 -31 509 31 q 564 -99 553 -67 q 575 -167 575 -132 q 529 -307 575 -249 q 418 -383 484 -364 q 359 -392 389 -392 q 279 -374 315 -392 q 218 -332 242 -357 q 205 -301 205 -319 q 218 -270 205 -283 q 248 -256 231 -256 q 286 -275 267 -256 q 319 -295 298 -287 q 364 -304 340 -304 z "},"~":{"ha":1038,"x_min":68,"x_max":979,"o":"m 71 446 q 121 525 87 488 q 201 583 155 561 q 302 606 247 606 q 402 586 350 606 q 510 534 446 570 q 602 487 554 509 q 701 465 650 465 q 772 479 738 465 q 890 574 850 511 q 926 593 902 593 q 964 572 949 593 q 964 526 979 551 q 857 422 926 465 q 697 379 787 379 q 631 386 665 379 q 561 408 597 393 q 523 427 548 413 q 468 456 497 440 q 412 485 438 471 q 372 503 386 498 q 305 515 338 515 q 211 486 252 515 q 153 414 170 456 q 137 393 148 399 q 113 387 125 387 q 82 398 96 387 q 68 428 68 409 q 71 446 68 437 z "},"":{"ha":380,"x_min":0,"x_max":0,"o":""},"":{"ha":281,"x_min":68,"x_max":213,"o":"m 213 885 q 205 833 213 864 q 182 779 197 802 q 145 755 167 755 q 103 778 117 755 q 68 888 68 840 q 85 948 68 922 q 138 974 103 974 q 194 946 175 974 q 213 885 213 918 m 136 645 q 191 613 180 645 q 203 533 203 581 q 203 515 203 525 q 207 416 207 471 q 178 26 207 263 q 162 -4 176 8 q 132 -17 149 -17 q 103 -5 115 -17 q 89 23 91 7 q 69 332 69 172 q 76 523 69 426 q 77 551 78 536 q 79 579 77 566 q 96 626 85 607 q 136 645 106 645 z "},"":{"ha":654,"x_min":68,"x_max":587,"o":"m 421 -3 q 424 -41 422 -27 q 426 -69 426 -56 q 412 -100 426 -90 q 380 -111 397 -111 q 341 -81 347 -111 q 334 -9 335 -51 q 170 42 234 -7 q 83 165 105 91 q 68 265 68 215 q 95 405 68 334 q 192 559 127 492 q 349 652 256 626 q 353 748 351 699 q 357 850 355 798 q 371 880 357 868 q 402 892 385 892 q 433 879 420 892 q 444 846 446 865 q 440 752 442 798 q 437 663 438 707 q 492 659 465 663 q 549 645 520 654 q 572 628 564 641 q 580 602 580 616 q 564 569 580 583 q 524 561 547 554 q 433 574 479 574 q 424 291 427 412 q 420 87 421 169 q 527 117 469 96 q 543 120 534 120 q 573 107 560 120 q 587 77 587 95 q 578 50 587 62 q 557 35 569 39 q 487 12 520 22 q 421 -3 453 3 m 333 79 q 336 280 333 160 q 345 557 340 399 q 243 485 286 532 q 178 375 201 437 q 155 261 155 315 q 201 133 155 184 q 333 79 247 82 z "},"":{"ha":863,"x_min":68,"x_max":795,"o":"m 500 410 q 489 381 500 397 q 465 366 477 366 l 456 366 l 313 367 q 322 275 322 320 q 280 90 322 178 l 751 87 q 781 75 768 87 q 795 47 795 63 q 782 12 795 24 q 751 -1 770 0 l 750 -1 l 202 3 q 171 16 184 3 q 159 47 159 29 q 168 73 159 60 q 234 275 234 162 q 223 368 234 319 l 112 369 q 81 382 94 369 q 68 413 68 395 q 79 442 68 427 q 103 457 90 457 l 113 457 l 203 456 q 197 526 197 492 q 273 718 197 640 q 376 788 317 763 q 513 812 435 812 q 695 759 610 812 q 716 728 716 746 q 707 693 716 709 q 678 677 697 677 q 648 685 659 677 q 583 714 619 703 q 508 725 547 725 q 430 713 468 725 q 329 649 373 695 q 286 530 286 602 q 294 456 286 497 l 456 454 q 487 441 474 454 q 500 410 500 428 z "},"":{"ha":950,"x_min":68,"x_max":882,"o":"m 472 3 q 347 28 404 3 q 249 87 289 53 l 161 9 q 134 -1 151 -1 q 105 11 117 -1 q 94 40 94 23 q 107 71 94 58 l 195 149 q 150 244 165 193 q 136 348 136 296 q 184 533 136 448 l 83 618 q 68 648 68 631 q 78 676 68 662 q 100 690 88 690 l 116 690 q 135 681 123 690 l 233 599 q 463 708 327 701 l 465 708 q 480 707 477 708 q 500 704 483 705 q 564 689 519 703 q 709 595 646 662 q 737 619 715 600 q 782 656 760 637 q 810 680 804 675 q 834 694 826 694 q 855 693 849 694 q 871 682 861 692 q 882 653 882 669 q 864 620 882 636 q 834 594 857 614 q 788 556 811 575 q 758 531 765 537 q 798 438 784 488 q 812 329 812 388 q 755 149 812 233 l 846 71 q 861 42 861 60 q 849 13 861 26 q 821 -1 837 -1 q 793 9 805 -1 l 701 88 q 599 27 659 51 q 472 3 539 3 m 731 336 q 694 481 731 418 q 598 583 656 545 q 474 625 539 621 q 463 627 469 625 q 304 557 376 623 q 239 466 264 521 q 214 340 214 412 q 231 247 214 292 q 283 167 248 202 q 361 109 312 135 q 469 82 410 82 q 510 86 490 82 q 667 167 603 104 q 731 336 731 230 z "},"":{"ha":790,"x_min":68,"x_max":723,"o":"m 640 237 q 628 208 640 223 q 604 193 616 193 l 595 193 l 469 194 l 470 45 l 470 35 q 455 11 470 22 q 426 0 440 0 q 395 13 408 0 q 382 44 382 26 l 380 195 l 251 196 q 220 209 233 196 q 207 240 207 222 q 218 269 207 254 q 241 284 229 284 l 252 284 l 379 283 l 378 355 l 378 356 l 251 357 q 220 370 233 357 q 207 401 207 383 q 218 431 207 416 q 241 446 229 446 l 252 446 l 319 445 l 77 772 q 68 800 68 783 q 81 831 68 818 q 114 844 95 844 q 148 825 135 844 l 419 458 l 640 827 q 675 849 654 849 q 709 838 694 849 q 723 808 723 826 q 716 782 723 793 l 513 444 l 595 442 q 626 429 613 442 q 640 399 640 416 q 628 369 640 385 q 604 354 617 354 l 595 354 l 467 355 l 467 282 l 595 281 q 627 268 614 281 q 640 237 640 254 z "},"":{"ha":232,"x_min":68,"x_max":156,"o":"m 112 481 q 81 494 95 481 q 68 525 68 508 l 68 943 q 82 975 68 964 q 113 986 96 986 q 142 975 129 986 q 156 943 156 964 l 156 526 q 143 494 156 508 q 112 481 130 481 m 112 -73 q 81 -59 95 -73 q 68 -28 68 -45 l 68 389 q 82 422 68 411 q 113 433 96 433 q 142 422 129 433 q 156 390 156 411 l 156 -28 q 143 -59 156 -45 q 112 -73 130 -73 z "},"":{"ha":566,"x_min":66,"x_max":498,"o":"m 66 493 q 93 592 66 551 q 158 655 119 633 q 102 787 102 709 q 102 791 102 789 q 130 886 102 845 q 194 948 157 926 q 282 972 236 972 q 286 972 283 972 l 302 972 q 341 960 323 972 q 359 927 359 947 q 346 895 359 909 q 317 881 332 881 q 301 883 309 881 q 286 885 293 885 q 218 856 246 885 q 190 790 190 827 q 288 677 190 717 q 350 650 326 661 q 384 633 374 640 q 465 557 432 602 q 498 448 498 513 q 478 349 498 391 q 422 279 457 307 q 463 155 463 222 q 435 51 463 100 q 366 -22 411 10 q 261 -55 321 -54 q 250 -56 256 -56 q 216 -43 231 -56 q 201 -12 201 -30 q 267 35 201 35 q 271 35 269 35 q 344 74 314 39 q 374 157 374 109 q 370 189 374 174 q 273 282 354 248 q 264 286 271 283 q 248 293 258 289 q 111 379 149 334 q 66 493 66 431 m 237 591 q 179 562 203 591 q 155 495 155 534 q 177 437 155 460 q 232 398 199 414 q 298 368 264 382 q 355 339 332 355 q 396 386 378 355 q 414 454 414 416 q 362 541 414 507 q 237 591 284 591 z "},"":{"ha":361,"x_min":1,"x_max":361,"o":"m 150 850 q 129 799 150 821 q 76 777 108 777 q 20 801 39 777 q 1 860 1 825 q 5 894 1 877 q 18 925 8 906 q 40 958 27 943 q 69 972 54 972 q 108 952 90 972 q 138 903 127 931 q 150 850 150 874 m 361 845 q 340 794 361 816 q 287 772 319 772 q 231 796 250 772 q 212 854 212 820 q 216 888 212 871 q 229 919 219 901 q 251 952 238 938 q 280 967 264 967 q 319 946 300 967 q 349 897 338 926 q 361 845 361 869 z "},"":{"ha":1154,"x_min":68,"x_max":1086,"o":"m 1086 460 q 1046 273 1086 357 q 936 128 1006 189 q 774 34 866 67 q 576 1 682 1 q 479 9 528 1 q 382 35 431 17 q 193 158 276 73 q 81 366 111 243 q 68 476 68 422 q 94 622 68 553 q 161 748 119 692 q 250 844 202 805 q 562 962 385 955 q 575 961 569 962 q 585 958 581 959 q 818 891 714 951 q 984 751 922 831 q 1086 460 1086 618 m 566 873 q 301 772 418 867 q 161 528 184 676 q 157 473 157 501 q 176 355 157 410 q 222 262 195 300 q 366 138 276 188 q 574 88 456 88 q 660 96 616 88 q 828 158 751 111 q 951 282 905 206 q 998 456 998 357 q 966 611 998 541 q 881 734 934 682 q 767 819 829 787 q 581 870 677 865 q 566 873 574 870 m 351 422 q 400 288 351 338 q 538 238 448 238 q 722 276 616 238 q 738 279 730 279 q 769 266 755 279 q 782 236 782 254 q 773 209 782 220 q 752 193 764 197 q 538 149 631 149 q 368 198 434 149 q 278 324 301 248 q 263 424 263 374 q 290 564 263 492 q 362 689 315 630 q 477 785 410 748 q 629 822 545 822 q 745 804 685 822 q 767 788 760 799 q 774 764 774 777 q 763 732 774 747 q 733 718 752 718 q 720 720 726 718 q 635 732 676 732 q 518 704 570 732 q 429 631 466 676 q 373 534 393 586 q 351 422 351 476 z "},"":{"ha":606,"x_min":68,"x_max":538,"o":"m 241 453 q 145 484 184 453 q 87 562 106 514 q 68 665 68 610 q 115 840 68 759 q 267 960 165 927 q 351 974 312 974 q 478 926 431 974 q 532 806 525 879 q 531 768 538 791 q 524 625 524 687 q 537 489 524 541 q 538 476 538 482 q 526 450 538 463 q 496 437 513 437 q 462 447 475 437 q 430 571 436 465 q 280 458 354 465 q 241 453 261 453 m 161 671 q 225 535 161 535 q 438 786 402 535 q 439 793 439 790 q 439 798 439 796 q 351 890 431 890 q 349 890 350 890 q 298 882 325 890 q 195 798 230 860 q 161 671 161 738 z "},"":{"ha":970,"x_min":68,"x_max":903,"o":"m 494 310 q 482 277 494 291 q 452 262 470 262 q 427 269 437 262 q 322 330 373 302 q 222 381 271 358 q 147 419 175 405 q 111 437 119 433 q 68 492 68 464 q 81 534 68 519 q 109 559 93 548 q 145 579 117 564 q 220 619 172 594 q 317 674 267 644 q 421 739 368 704 q 448 746 433 746 q 478 732 466 746 q 490 699 490 718 q 469 664 490 677 q 319 574 395 616 q 182 499 243 532 q 213 484 189 496 q 278 452 237 473 q 472 345 359 412 q 494 310 494 332 m 903 306 q 891 273 903 287 q 861 258 879 258 q 835 264 844 258 q 631 376 727 330 q 556 414 584 400 q 519 433 528 428 q 477 488 477 460 q 489 530 477 515 q 517 555 501 544 q 553 575 526 560 q 628 615 581 590 q 726 670 675 640 q 830 734 777 699 q 857 741 842 741 q 886 727 874 741 q 899 694 899 713 q 878 660 899 673 q 686 545 769 589 q 621 511 644 524 q 590 495 597 498 q 621 480 597 492 q 686 448 645 468 q 777 401 728 427 q 880 340 825 374 q 903 306 903 328 z "},"":{"ha":798,"x_min":68,"x_max":730,"o":"m 112 449 q 111 449 111 449 q 81 462 93 449 q 68 493 68 475 q 81 524 68 510 q 112 537 103 546 l 684 537 q 715 524 703 536 q 728 494 728 512 l 730 230 l 730 229 q 717 198 730 211 q 686 185 705 185 q 655 198 668 185 q 642 229 642 211 l 640 449 l 112 449 z "},"":{"ha":0,"x_min":0,"x_max":0,"o":""},"":{"ha":1153,"x_min":67,"x_max":1085,"o":"m 567 957 l 583 954 l 585 954 q 818 887 715 946 q 983 746 920 827 q 1059 606 1032 682 q 1085 452 1085 530 q 1066 321 1085 386 q 1005 199 1046 257 q 897 95 963 141 q 749 22 831 49 q 576 -5 667 -5 q 480 4 529 -5 q 382 30 431 12 q 192 155 273 70 q 81 361 110 240 q 67 471 67 416 q 92 620 67 551 q 158 743 117 688 q 246 837 199 798 q 387 920 303 884 q 567 957 471 957 m 580 865 q 565 869 571 866 q 354 805 449 864 q 210 659 260 745 q 171 571 186 618 q 156 469 156 524 q 167 381 156 426 q 259 212 191 280 q 414 112 326 144 q 494 91 454 98 q 574 84 534 84 q 718 105 649 84 q 841 162 786 126 q 928 243 895 198 q 980 347 963 293 q 997 456 997 401 q 913 692 997 584 q 774 809 862 760 q 580 865 687 859 m 463 280 q 463 221 463 248 q 452 178 462 194 q 416 161 442 161 q 387 173 401 161 q 372 197 372 184 q 374 229 372 215 q 375 270 375 243 q 372 500 375 335 l 368 740 l 368 749 q 381 772 368 760 q 406 785 394 783 q 557 797 491 797 q 707 771 653 797 q 817 592 817 719 q 785 483 817 530 q 709 417 753 437 q 609 387 663 395 l 848 245 q 871 210 871 232 q 859 177 871 191 q 830 163 848 163 q 804 169 815 163 l 463 372 q 463 321 463 345 q 463 280 463 298 m 456 703 q 460 572 458 622 q 461 468 461 522 q 498 467 480 467 q 715 532 673 467 q 725 558 722 542 q 728 592 728 574 q 717 654 728 632 q 554 708 688 708 q 456 703 511 708 z "},"":{"ha":531,"x_min":73,"x_max":460,"o":"m 117 692 q 85 705 98 692 q 73 736 73 718 q 85 768 73 755 q 117 781 98 781 l 416 781 q 447 768 434 781 q 460 736 460 755 q 447 705 460 718 q 416 692 434 692 l 117 692 z "},"":{"ha":578,"x_min":68,"x_max":510,"o":"m 283 964 q 396 940 345 964 q 479 870 448 916 q 510 757 510 823 q 465 637 510 692 q 311 564 415 578 q 281 562 296 562 q 175 591 223 562 q 97 670 126 621 q 68 781 68 720 q 97 876 68 835 q 176 941 127 918 q 283 964 224 964 m 290 878 q 195 852 235 878 q 155 774 155 826 q 167 724 155 748 q 198 682 180 700 q 284 650 231 650 q 417 727 387 650 q 423 759 423 743 q 419 785 423 772 q 290 878 391 878 z "},"":{"ha":881,"x_min":68,"x_max":813,"o":"m 762 511 q 793 498 780 511 q 806 467 806 485 q 793 436 806 450 q 762 423 781 423 l 503 423 l 503 156 q 489 125 503 138 q 458 112 476 112 q 428 125 441 112 q 414 156 414 138 l 414 423 l 112 423 q 111 423 111 423 q 81 436 94 423 q 68 467 68 450 q 81 498 68 485 q 112 511 94 511 l 414 511 l 414 801 q 428 832 414 819 q 458 845 441 845 q 489 832 476 845 q 503 801 503 819 l 503 511 l 762 511 m 113 -4 q 82 9 95 -4 q 69 40 69 22 q 82 71 69 58 q 113 84 95 84 l 769 84 q 800 71 787 84 q 813 40 813 58 q 800 9 813 22 q 769 -4 787 -4 l 113 -4 z "},"":{"ha":405,"x_min":68,"x_max":337,"o":"m 231 880 q 217 913 231 899 q 181 926 203 926 q 110 883 146 926 q 92 874 102 874 q 68 897 68 874 q 74 913 68 907 q 124 957 97 941 q 180 973 151 973 q 239 956 210 973 q 277 882 277 932 q 258 817 277 848 q 176 712 229 772 q 189 713 182 713 q 234 709 206 713 q 279 705 261 705 q 299 708 290 705 q 316 711 309 711 q 331 703 326 711 q 337 684 337 694 q 315 662 337 667 q 276 656 294 656 q 202 667 252 656 q 188 668 195 668 q 111 646 157 668 q 99 644 106 644 q 84 652 90 644 q 77 668 77 659 q 85 686 77 678 q 131 734 104 705 q 182 795 157 763 q 224 852 208 827 q 231 880 231 866 z "},"":{"ha":371,"x_min":68,"x_max":303,"o":"m 217 767 q 199 763 208 767 q 180 759 191 759 q 165 767 172 759 q 159 784 159 774 q 169 802 159 795 q 226 863 213 831 q 233 895 233 882 q 200 924 233 924 q 158 913 177 924 q 115 878 140 901 q 98 871 108 871 q 81 878 87 871 q 75 895 75 886 q 82 911 75 905 q 201 974 147 974 q 255 952 229 974 q 282 895 282 930 q 271 847 282 871 q 247 808 260 824 q 288 778 273 798 q 303 725 303 758 q 278 667 303 688 q 218 646 254 646 q 80 694 162 646 q 68 712 68 701 q 74 730 68 722 q 90 738 81 738 q 104 734 98 738 q 217 694 175 694 q 256 725 256 694 q 245 753 256 740 q 217 767 234 767 z "},"":{"ha":146,"x_min":0,"x_max":146,"o":"m 32 771 q 10 779 20 771 q 0 800 0 787 q 14 838 0 814 l 63 950 q 101 972 75 972 q 132 960 117 972 q 146 928 146 947 q 139 905 146 916 l 61 793 q 32 771 48 771 z "},"":{"ha":833,"x_min":68,"x_max":765,"o":"m 619 180 q 554 96 593 137 q 466 29 515 55 q 356 3 416 3 q 244 33 296 3 q 159 114 193 63 q 185 -54 163 2 q 189 -76 189 -63 q 175 -103 189 -90 q 148 -115 162 -115 q 115 -103 125 -115 q 97 -70 105 -91 q 68 134 68 5 q 103 483 68 275 q 138 657 113 564 q 154 680 142 670 q 182 689 166 689 q 211 677 197 689 q 224 652 224 665 q 216 604 224 643 q 191 475 208 568 q 184 370 184 420 q 202 237 184 301 q 256 132 219 173 q 351 91 293 91 q 406 100 380 91 q 458 128 431 109 q 552 241 514 168 q 606 401 590 313 q 605 465 605 435 q 609 605 605 556 q 620 669 613 653 q 651 686 629 686 q 685 676 671 686 q 700 647 699 665 q 705 536 705 589 q 694 394 705 461 q 741 69 699 123 l 741 68 q 765 33 765 56 q 753 -1 765 14 q 724 -16 742 -16 q 619 180 644 -16 z "},"":{"ha":714,"x_min":68,"x_max":649,"o":"m 392 39 q 377 10 391 20 q 348 1 363 1 q 318 11 332 1 q 304 42 304 22 q 304 44 304 43 q 304 47 304 45 l 315 516 q 181 531 237 504 q 97 607 126 559 q 68 708 68 656 q 89 789 68 749 q 144 864 111 829 q 217 919 178 898 q 293 941 256 939 l 525 947 q 575 937 553 948 q 614 913 597 925 q 644 858 638 890 q 647 785 649 825 q 646 701 645 745 q 640 475 649 588 q 621 259 631 363 l 605 37 q 588 8 604 18 q 556 -1 572 -1 q 525 9 539 -1 q 511 40 511 20 q 522 154 517 97 q 533 268 528 211 q 535 453 532 356 q 536 645 538 549 q 519 826 534 741 l 417 827 q 416 638 414 739 q 420 439 419 538 q 414 260 422 341 l 392 39 z "},"":{"ha":286,"x_min":68,"x_max":218,"o":"m 218 481 q 197 431 218 452 q 144 409 176 409 q 87 433 106 409 q 68 492 68 458 q 73 526 68 509 q 85 556 75 538 q 108 589 94 575 q 136 604 121 604 q 176 583 157 604 q 206 534 195 562 q 218 481 218 505 z "},"":{"ha":457,"x_min":67,"x_max":389,"o":"m 261 -249 q 237 -251 249 -249 q 212 -253 226 -253 q 188 -240 201 -253 q 175 -216 175 -227 q 175 -208 175 -211 q 176 -203 176 -204 l 193 -83 q 241 -45 198 -45 q 267 -57 254 -45 q 281 -82 281 -70 q 280 -96 281 -94 l 271 -162 q 357 -195 324 -165 q 389 -275 389 -224 q 376 -333 389 -307 q 316 -395 357 -369 q 219 -420 275 -420 q 89 -378 157 -420 q 67 -343 67 -364 q 79 -310 67 -324 q 109 -296 92 -296 q 144 -308 125 -296 q 180 -325 157 -316 q 227 -334 203 -334 q 270 -321 252 -334 q 296 -294 288 -309 q 302 -273 302 -281 q 290 -254 302 -260 q 261 -249 279 -249 z "},"":{"ha":210,"x_min":68,"x_max":143,"o":"m 109 694 q 93 701 101 694 q 85 713 85 707 q 90 750 85 720 q 93 791 91 763 q 94 849 94 820 q 93 895 94 873 q 88 925 92 916 q 74 933 81 926 q 68 948 68 940 q 75 966 68 957 q 93 975 82 975 q 113 967 104 975 q 126 954 123 960 q 143 857 143 930 q 135 732 143 806 l 133 715 q 125 701 132 707 q 109 694 118 694 z "},"":{"ha":446,"x_min":68,"x_max":378,"o":"m 219 1016 q 332 974 286 1016 q 378 857 378 931 q 338 758 378 795 q 239 711 298 720 q 218 709 229 709 q 142 732 176 709 q 88 792 109 755 q 68 875 68 830 q 111 975 68 935 q 219 1016 154 1016 m 130 871 q 155 806 130 835 q 220 777 180 777 q 313 835 291 777 q 317 859 317 846 q 315 880 317 869 q 224 949 295 949 q 157 930 183 949 q 130 871 130 911 z "},"":{"ha":1036,"x_min":68,"x_max":902,"o":"m 476 310 q 498 345 476 332 q 692 452 611 412 q 758 484 734 473 q 789 499 782 496 q 651 574 728 532 q 501 664 575 616 q 480 699 480 677 q 492 732 480 718 q 522 746 505 746 q 549 739 537 746 q 652 674 602 704 q 750 619 703 644 q 861 559 844 570 q 890 534 878 548 q 902 492 902 519 q 859 437 902 465 q 823 419 851 433 q 747 381 795 405 q 544 269 652 334 q 517 262 533 262 q 488 277 500 262 q 476 310 476 291 m 68 306 q 90 340 68 328 q 194 401 145 374 q 284 448 243 427 q 350 480 326 468 q 380 495 374 492 q 350 511 374 498 q 285 545 326 524 q 195 596 243 567 q 92 660 147 625 q 72 694 72 673 q 84 727 72 713 q 113 741 96 741 q 140 734 129 741 q 244 670 194 699 q 342 615 294 640 q 417 575 389 590 q 452 555 444 560 q 481 530 469 544 q 494 488 494 515 q 451 433 494 460 q 415 414 443 428 q 339 376 387 400 q 240 325 292 353 q 135 264 189 297 q 109 258 125 258 q 80 273 92 258 q 68 306 68 287 z "},"":{"ha":870,"x_min":67,"x_max":802,"o":"m 439 900 q 464 919 447 919 q 487 909 477 919 q 497 885 497 899 q 494 871 497 878 l 161 105 q 133 87 153 87 q 108 101 118 87 q 106 134 98 115 l 439 900 m 67 838 q 82 856 67 850 q 109 861 96 861 q 183 829 164 861 q 209 747 203 797 q 214 654 214 701 q 205 531 214 594 l 188 422 q 176 408 186 413 q 153 404 165 404 q 128 409 140 404 q 119 427 117 415 l 136 535 q 146 655 146 596 q 141 735 146 690 q 125 800 137 780 q 112 817 114 817 q 104 817 109 817 q 79 822 92 817 q 67 838 67 828 m 374 291 q 407 294 384 291 q 455 299 429 296 q 500 305 481 302 q 520 307 519 307 l 520 453 q 528 473 520 465 q 547 481 536 481 q 565 473 558 481 q 572 453 572 465 l 572 315 q 721 328 674 328 q 780 312 758 328 q 802 271 802 296 q 794 250 802 257 q 775 243 785 243 q 751 264 755 243 q 709 270 740 270 q 572 258 663 270 l 572 39 q 565 19 572 28 q 547 10 558 10 q 528 19 536 10 q 520 39 520 28 l 520 250 q 498 248 518 250 q 451 242 477 245 q 401 236 424 239 q 372 233 378 233 q 310 244 338 233 q 282 280 282 255 q 288 311 282 296 q 304 337 294 325 q 354 401 335 377 q 385 440 373 425 q 408 472 397 456 q 434 512 419 488 q 472 574 448 535 q 502 587 487 597 q 520 558 520 574 q 515 543 520 551 q 477 480 492 504 q 449 439 462 456 q 421 401 437 421 q 381 349 406 381 q 351 310 361 323 q 339 294 340 296 q 374 291 353 291 z "},"":{"ha":821,"x_min":67,"x_max":758,"o":"m 439 900 q 464 919 447 919 q 487 909 477 919 q 497 885 497 899 q 494 871 497 878 l 161 105 q 133 87 153 87 q 108 101 118 87 q 106 134 98 115 l 439 900 m 67 838 q 82 856 67 850 q 109 861 96 861 q 183 829 164 861 q 209 747 203 797 q 214 654 214 701 q 205 531 214 594 l 188 422 q 176 408 186 413 q 153 404 165 404 q 128 409 140 404 q 119 427 117 415 l 136 535 q 146 655 146 596 q 141 735 146 690 q 125 800 137 780 q 112 817 114 817 q 104 817 109 817 q 79 822 92 817 q 67 838 67 828 m 604 333 q 574 394 604 371 q 501 417 543 417 q 433 401 463 417 q 369 349 404 385 q 351 342 362 342 q 333 349 341 342 q 325 363 325 355 q 332 377 325 370 q 411 439 372 419 q 498 460 450 460 q 607 427 561 460 q 653 336 653 394 q 630 264 653 296 q 555 172 600 220 q 454 69 511 123 q 513 74 481 74 q 590 68 546 74 q 665 62 634 62 q 710 67 693 62 q 729 71 721 71 q 751 56 747 71 q 734 29 758 36 q 664 18 696 18 q 594 26 634 18 q 511 34 554 34 q 390 7 454 34 q 351 3 361 -5 q 349 36 332 21 l 365 50 q 589 287 498 162 q 604 333 604 309 z "},"":{"ha":1170,"x_min":68,"x_max":1102,"o":"m 443 470 q 414 545 443 514 q 345 575 386 575 q 289 562 318 575 q 276 559 283 559 q 256 568 264 559 q 248 587 248 576 q 261 610 248 602 q 317 652 294 631 q 395 779 384 713 q 397 800 397 789 q 375 859 397 837 q 315 882 353 882 q 224 856 269 882 q 129 784 179 831 q 109 776 121 776 q 89 785 96 776 q 81 804 81 793 q 90 824 81 816 q 300 937 202 928 q 315 937 308 937 q 415 899 376 937 q 454 800 454 860 q 451 769 454 785 q 374 628 439 695 q 448 590 418 620 q 491 521 477 561 q 500 472 500 496 q 456 374 500 407 q 347 341 412 341 q 82 431 241 341 q 68 452 68 438 q 77 473 68 463 q 97 482 85 482 q 111 478 104 482 q 348 396 256 396 q 416 415 389 396 q 443 470 443 434 m 739 900 q 764 919 747 919 q 787 909 777 919 q 797 885 797 899 q 794 871 797 878 l 460 105 q 433 87 452 87 q 408 101 418 87 q 406 134 398 115 l 739 900 m 674 291 q 706 294 684 291 q 755 299 729 296 q 800 305 781 302 q 820 307 819 307 l 820 453 q 828 473 820 465 q 846 481 836 481 q 865 473 858 481 q 872 453 872 465 l 872 315 q 1021 328 974 328 q 1080 312 1057 328 q 1102 271 1102 296 q 1094 250 1102 257 q 1075 243 1085 243 q 1050 264 1055 243 q 1008 270 1040 270 q 872 258 962 270 l 872 39 q 865 19 872 28 q 846 10 858 10 q 828 19 836 10 q 820 39 820 28 l 820 250 q 798 248 818 250 q 750 242 777 245 q 701 236 724 239 q 671 233 678 233 q 610 244 638 233 q 582 280 582 255 q 588 311 582 296 q 604 337 594 325 q 654 401 635 377 q 685 440 673 425 q 708 472 697 456 q 733 512 719 488 q 772 574 748 535 q 802 587 787 597 q 820 558 820 574 q 815 543 820 551 q 777 480 791 504 q 749 439 762 456 q 721 401 736 421 q 681 349 706 381 q 650 310 661 323 q 639 294 640 296 q 674 291 653 291 z "},"":{"ha":667,"x_min":68,"x_max":600,"o":"m 184 788 q 201 847 184 820 q 252 874 218 874 q 306 845 286 874 q 326 780 326 815 q 306 721 326 747 q 257 694 287 694 q 204 724 224 694 q 184 788 184 754 m 392 -72 q 477 -49 441 -72 q 512 26 512 -26 q 500 92 512 54 q 498 106 498 100 q 513 137 498 125 q 544 148 527 148 q 568 140 557 148 q 585 117 580 133 q 600 24 600 66 q 571 -76 600 -35 q 495 -138 543 -117 q 393 -159 448 -159 q 292 -146 347 -159 q 73 -7 105 -102 q 68 24 68 8 q 185 217 68 103 q 273 321 249 278 q 294 401 294 359 q 277 478 294 441 q 234 544 260 515 q 222 572 222 557 q 237 604 222 590 q 269 617 251 617 q 299 603 286 617 q 358 510 336 561 q 380 404 380 459 q 344 268 380 322 q 255 162 308 214 q 163 52 193 102 q 153 20 149 33 q 190 -16 160 1 q 256 -44 220 -33 q 316 -62 292 -56 q 392 -72 358 -72 z "},"":{"ha":929,"x_min":66,"x_max":862,"o":"m 463 1123 q 477 1155 463 1143 q 508 1168 492 1168 q 547 1145 534 1168 l 596 1033 q 610 995 610 1010 q 600 975 610 983 q 578 966 590 966 q 549 989 562 966 l 470 1101 q 463 1123 463 1112 m 111 -26 q 81 -13 95 -26 q 68 16 66 0 q 173 606 92 344 q 366 951 254 866 q 455 985 412 985 q 686 713 578 985 q 850 85 781 473 l 861 25 q 862 18 862 21 q 847 -14 862 -3 q 816 -25 833 -25 q 789 -17 802 -25 q 774 10 777 -8 l 764 69 q 731 236 748 157 q 696 388 714 316 l 210 388 q 156 14 170 190 q 141 -15 155 -4 q 111 -26 127 -26 m 229 476 l 673 476 q 515 849 597 747 q 477 884 496 873 q 452 893 460 894 q 366 825 408 888 q 229 476 285 703 z "},"":{"ha":929,"x_min":66,"x_max":862,"o":"m 347 975 q 325 983 335 975 q 315 1003 315 991 q 329 1041 315 1018 l 378 1154 q 416 1176 391 1176 q 447 1163 433 1176 q 461 1131 461 1151 q 454 1109 461 1120 l 376 997 q 347 975 363 975 m 111 -26 q 81 -13 95 -26 q 68 16 66 0 q 173 606 92 344 q 366 951 254 866 q 455 985 412 985 q 686 713 578 985 q 850 85 781 473 l 861 25 q 862 18 862 21 q 847 -14 862 -3 q 816 -25 833 -25 q 789 -17 802 -25 q 774 10 777 -8 l 764 69 q 731 236 748 157 q 696 388 714 316 l 210 388 q 156 14 170 190 q 141 -15 155 -4 q 111 -26 127 -26 m 229 476 l 673 476 q 515 849 597 747 q 477 884 496 873 q 452 893 460 894 q 366 825 408 888 q 229 476 285 703 z "},"":{"ha":929,"x_min":66,"x_max":862,"o":"m 225 1002 l 422 1187 q 453 1199 435 1199 q 485 1186 472 1199 l 669 998 q 682 968 682 984 q 668 936 682 950 q 635 922 653 922 q 606 936 618 922 l 452 1093 l 286 938 q 256 925 273 925 q 225 939 239 925 q 212 971 212 954 q 225 1002 212 989 m 111 -26 q 81 -13 95 -26 q 68 16 66 0 q 173 606 92 344 q 366 951 254 866 q 455 985 412 985 q 686 713 578 985 q 850 85 781 473 l 861 25 q 862 18 862 21 q 847 -14 862 -3 q 816 -25 833 -25 q 789 -17 802 -25 q 774 10 777 -8 l 764 69 q 731 236 748 157 q 696 388 714 316 l 210 388 q 156 14 170 190 q 141 -15 155 -4 q 111 -26 127 -26 m 229 476 l 673 476 q 515 849 597 747 q 477 884 496 873 q 452 893 460 894 q 366 825 408 888 q 229 476 285 703 z "},"":{"ha":929,"x_min":66,"x_max":862,"o":"m 233 964 q 205 977 218 964 q 191 1004 191 990 q 194 1024 191 1018 q 258 1111 212 1073 q 369 1148 304 1148 q 501 1105 432 1148 q 551 1074 531 1086 q 583 1057 572 1062 q 624 1048 604 1048 q 672 1066 650 1048 q 697 1106 694 1084 q 712 1137 701 1124 q 743 1149 724 1149 q 772 1138 758 1149 q 786 1113 786 1126 q 736 1004 786 1048 q 625 961 686 961 q 491 1006 564 961 q 435 1041 465 1023 q 371 1060 405 1060 q 312 1040 338 1060 q 277 994 286 1020 q 260 974 273 983 q 233 964 248 964 m 111 -26 q 81 -13 95 -26 q 68 16 66 0 q 173 606 92 344 q 366 951 254 866 q 455 985 412 985 q 686 713 578 985 q 850 85 781 473 l 861 25 q 862 18 862 21 q 847 -14 862 -3 q 816 -25 833 -25 q 789 -17 802 -25 q 774 10 777 -8 l 764 69 q 731 236 748 157 q 696 388 714 316 l 210 388 q 156 14 170 190 q 141 -15 155 -4 q 111 -26 127 -26 m 229 476 l 673 476 q 515 849 597 747 q 477 884 496 873 q 452 893 460 894 q 366 825 408 888 q 229 476 285 703 z "},"":{"ha":929,"x_min":66,"x_max":862,"o":"m 414 1068 q 394 1017 414 1038 q 340 996 373 996 q 284 1020 303 996 q 266 1078 266 1044 q 270 1112 266 1095 q 282 1143 273 1124 q 305 1176 292 1162 q 333 1190 318 1190 q 373 1170 354 1190 q 403 1120 391 1149 q 414 1068 414 1092 m 625 1063 q 605 1011 625 1032 q 551 990 584 990 q 495 1014 514 990 q 477 1073 477 1038 q 481 1107 477 1090 q 493 1138 484 1119 q 516 1171 503 1156 q 544 1185 529 1185 q 584 1164 565 1185 q 614 1115 602 1143 q 625 1063 625 1086 m 111 -26 q 81 -13 95 -26 q 68 16 66 0 q 173 606 92 344 q 366 951 254 866 q 455 985 412 985 q 686 713 578 985 q 850 85 781 473 l 861 25 q 862 18 862 21 q 847 -14 862 -3 q 816 -25 833 -25 q 789 -17 802 -25 q 774 10 777 -8 l 764 69 q 731 236 748 157 q 696 388 714 316 l 210 388 q 156 14 170 190 q 141 -15 155 -4 q 111 -26 127 -26 m 229 476 l 673 476 q 515 849 597 747 q 477 884 496 873 q 452 893 460 894 q 366 825 408 888 q 229 476 285 703 z "},"":{"ha":929,"x_min":66,"x_max":862,"o":"m 458 1298 q 572 1256 526 1298 q 618 1139 618 1213 q 578 1040 618 1078 q 479 993 538 1002 q 458 991 468 991 q 382 1014 416 991 q 328 1075 348 1037 q 307 1157 307 1112 q 350 1257 307 1217 q 458 1298 393 1298 m 369 1154 q 394 1088 369 1118 q 459 1059 419 1059 q 553 1117 530 1059 q 557 1141 557 1128 q 554 1162 557 1151 q 464 1232 534 1232 q 396 1212 422 1232 q 369 1154 369 1193 m 111 -26 q 81 -13 95 -26 q 68 16 66 0 q 173 606 92 344 q 366 951 254 866 q 455 985 412 985 q 686 713 578 985 q 850 85 781 473 l 861 25 q 862 18 862 21 q 847 -14 862 -3 q 816 -25 833 -25 q 789 -17 802 -25 q 774 10 777 -8 l 764 69 q 731 236 748 157 q 696 388 714 316 l 210 388 q 156 14 170 190 q 141 -15 155 -4 q 111 -26 127 -26 m 229 476 l 673 476 q 515 849 597 747 q 477 884 496 873 q 452 893 460 894 q 366 825 408 888 q 229 476 285 703 z "},"":{"ha":1493,"x_min":68,"x_max":1426,"o":"m 1243 525 q 1295 518 1273 525 q 1316 485 1316 511 q 1305 456 1316 469 q 1278 443 1293 444 l 780 446 q 770 87 778 248 q 1105 90 986 88 q 1246 94 1224 92 q 1283 98 1270 96 q 1310 100 1297 100 q 1356 93 1329 100 q 1377 59 1377 83 q 1368 32 1377 45 q 1344 18 1360 20 q 985 5 1198 6 q 856 5 902 5 q 785 4 810 4 q 739 3 760 3 q 736 3 737 3 q 674 40 681 3 q 682 256 680 163 q 686 409 685 348 l 305 413 q 248 293 271 347 q 208 189 225 239 q 171 78 190 138 q 159 38 164 56 q 149 8 153 21 q 115 -11 137 -11 q 83 1 98 -11 q 68 32 68 14 q 68 36 68 34 q 237 473 122 249 q 715 963 437 855 q 932 974 814 974 q 1166 964 1041 974 q 1377 922 1279 956 q 1409 907 1392 920 q 1426 876 1426 895 q 1411 847 1426 859 q 1381 836 1396 836 q 1352 841 1367 836 q 1324 852 1337 846 q 1151 882 1238 873 q 970 890 1065 890 q 877 888 925 890 q 777 885 829 887 q 780 746 779 815 q 781 608 781 677 q 781 528 781 570 q 838 528 796 528 q 932 526 879 527 q 1039 525 986 526 q 1133 525 1093 525 q 1187 524 1174 524 q 1216 525 1202 524 q 1243 525 1230 525 m 684 852 q 353 500 503 751 q 520 499 437 500 q 686 497 604 498 q 686 581 686 539 q 686 716 686 648 q 684 852 685 784 z "},"":{"ha":929,"x_min":68,"x_max":861,"o":"m 604 -179 q 580 -181 591 -179 q 555 -183 569 -183 q 531 -170 544 -183 q 517 -146 517 -157 q 518 -138 517 -141 q 518 -133 518 -134 l 536 -14 l 536 -13 q 297 38 403 -10 q 130 178 191 86 q 68 401 68 269 q 111 607 68 512 q 220 773 153 701 q 361 890 287 846 q 675 975 506 975 q 817 961 744 975 q 842 945 833 958 q 852 916 852 932 q 837 885 852 899 q 800 875 821 871 q 677 887 737 887 q 406 814 530 887 q 286 716 343 777 q 193 575 229 654 q 156 404 156 495 q 208 220 156 293 q 350 111 260 147 q 553 75 440 75 q 807 109 666 75 q 818 110 812 110 q 849 95 838 110 q 861 64 861 81 q 852 39 861 50 q 827 23 844 27 q 722 2 773 10 q 623 -10 671 -7 l 623 -17 q 623 -26 623 -24 l 613 -92 q 699 -125 667 -96 q 732 -205 732 -155 q 718 -263 732 -237 q 659 -325 699 -299 q 562 -351 618 -351 q 431 -308 499 -351 q 410 -273 410 -295 q 422 -240 410 -254 q 452 -226 434 -226 q 486 -238 467 -226 q 522 -255 499 -246 q 569 -264 545 -264 q 612 -252 594 -264 q 638 -224 630 -239 q 644 -203 644 -212 q 633 -184 644 -190 q 604 -179 621 -179 z "},"":{"ha":880,"x_min":68,"x_max":812,"o":"m 451 1127 q 465 1159 451 1147 q 496 1172 479 1172 q 534 1149 522 1172 l 584 1037 q 597 999 597 1014 q 588 979 597 987 q 566 970 578 970 q 536 993 549 970 l 458 1105 q 451 1127 451 1116 m 334 884 q 244 883 291 884 q 165 880 197 882 q 170 528 170 684 l 661 525 q 693 511 682 525 q 703 481 703 497 q 693 450 703 464 q 661 437 682 437 l 169 440 q 166 278 168 350 q 161 153 164 206 l 158 87 q 521 91 380 88 q 722 99 662 94 q 753 86 743 101 q 764 54 764 71 q 755 25 764 39 q 726 11 745 12 q 506 2 659 5 q 112 -1 352 -1 q 81 13 95 -1 q 68 45 68 26 q 69 92 68 53 q 73 189 71 131 q 77 313 75 248 q 80 440 79 378 q 81 547 81 501 q 79 725 81 631 q 77 922 77 819 q 89 951 77 939 q 118 965 102 964 l 167 968 q 288 972 225 972 q 416 971 350 973 q 787 914 677 963 q 812 871 812 903 q 801 842 812 854 q 770 829 789 829 q 751 834 761 829 q 334 884 638 884 z "},"":{"ha":880,"x_min":68,"x_max":812,"o":"m 274 993 q 252 1001 262 993 q 242 1021 242 1009 q 256 1059 242 1036 l 305 1172 q 343 1194 317 1194 q 374 1182 359 1194 q 388 1149 388 1169 q 381 1127 388 1138 l 303 1015 q 274 993 290 993 m 334 884 q 244 883 291 884 q 165 880 197 882 q 170 528 170 684 l 661 525 q 693 511 682 525 q 703 481 703 497 q 693 450 703 464 q 661 437 682 437 l 169 440 q 166 278 168 350 q 161 153 164 206 l 158 87 q 521 91 380 88 q 722 99 662 94 q 753 86 743 101 q 764 54 764 71 q 755 25 764 39 q 726 11 745 12 q 506 2 659 5 q 112 -1 352 -1 q 81 13 95 -1 q 68 45 68 26 q 69 92 68 53 q 73 189 71 131 q 77 313 75 248 q 80 440 79 378 q 81 547 81 501 q 79 725 81 631 q 77 922 77 819 q 89 951 77 939 q 118 965 102 964 l 167 968 q 288 972 225 972 q 416 971 350 973 q 787 914 677 963 q 812 871 812 903 q 801 842 812 854 q 770 829 789 829 q 751 834 761 829 q 334 884 638 884 z "},"":{"ha":880,"x_min":68,"x_max":812,"o":"m 191 1063 l 388 1248 q 418 1260 401 1260 q 450 1247 437 1260 l 634 1059 q 648 1029 648 1045 q 633 997 648 1011 q 601 983 618 983 q 571 997 584 983 l 418 1154 l 252 999 q 222 986 238 986 q 191 1000 204 986 q 177 1032 177 1015 q 191 1063 177 1050 m 334 884 q 244 883 291 884 q 165 880 197 882 q 170 528 170 684 l 661 525 q 693 511 682 525 q 703 481 703 497 q 693 450 703 464 q 661 437 682 437 l 169 440 q 166 278 168 350 q 161 153 164 206 l 158 87 q 521 91 380 88 q 722 99 662 94 q 753 86 743 101 q 764 54 764 71 q 755 25 764 39 q 726 11 745 12 q 506 2 659 5 q 112 -1 352 -1 q 81 13 95 -1 q 68 45 68 26 q 69 92 68 53 q 73 189 71 131 q 77 313 75 248 q 80 440 79 378 q 81 547 81 501 q 79 725 81 631 q 77 922 77 819 q 89 951 77 939 q 118 965 102 964 l 167 968 q 288 972 225 972 q 416 971 350 973 q 787 914 677 963 q 812 871 812 903 q 801 842 812 854 q 770 829 789 829 q 751 834 761 829 q 334 884 638 884 z "},"":{"ha":880,"x_min":68,"x_max":812,"o":"m 394 1072 q 373 1021 394 1042 q 320 1000 353 1000 q 264 1024 283 1000 q 245 1082 245 1048 q 250 1116 245 1099 q 262 1147 252 1128 q 284 1180 271 1166 q 313 1194 298 1194 q 352 1174 334 1194 q 382 1124 371 1153 q 394 1072 394 1096 m 605 1067 q 584 1015 605 1036 q 531 994 564 994 q 475 1018 494 994 q 456 1077 456 1042 q 460 1111 456 1094 q 473 1142 463 1123 q 495 1175 482 1160 q 524 1189 509 1189 q 563 1168 545 1189 q 593 1119 582 1147 q 605 1067 605 1090 m 334 884 q 244 883 291 884 q 165 880 197 882 q 170 528 170 684 l 661 525 q 693 511 682 525 q 703 481 703 497 q 693 450 703 464 q 661 437 682 437 l 169 440 q 166 278 168 350 q 161 153 164 206 l 158 87 q 521 91 380 88 q 722 99 662 94 q 753 86 743 101 q 764 54 764 71 q 755 25 764 39 q 726 11 745 12 q 506 2 659 5 q 112 -1 352 -1 q 81 13 95 -1 q 68 45 68 26 q 69 92 68 53 q 73 189 71 131 q 77 313 75 248 q 80 440 79 378 q 81 547 81 501 q 79 725 81 631 q 77 922 77 819 q 89 951 77 939 q 118 965 102 964 l 167 968 q 288 972 225 972 q 416 971 350 973 q 787 914 677 963 q 812 871 812 903 q 801 842 812 854 q 770 829 789 829 q 751 834 761 829 q 334 884 638 884 z "},"":{"ha":232,"x_min":64,"x_max":211,"o":"m 64 1135 q 79 1167 64 1155 q 109 1180 93 1180 q 148 1158 136 1180 l 197 1045 q 211 1007 211 1022 q 201 987 211 995 q 179 979 191 979 q 150 1001 163 979 l 71 1113 q 64 1135 64 1124 m 113 987 q 143 974 130 987 q 156 943 156 960 l 165 26 q 151 -7 165 4 q 120 -18 137 -18 q 90 -7 104 -18 q 77 24 77 3 l 68 943 q 82 974 68 960 q 113 987 96 987 z "},"":{"ha":232,"x_min":6,"x_max":165,"o":"m 38 999 q 16 1007 26 999 q 6 1027 6 1015 q 20 1065 6 1042 l 69 1178 q 107 1200 81 1200 q 138 1188 123 1200 q 152 1156 152 1175 q 145 1133 152 1144 l 67 1021 q 38 999 54 999 m 113 987 q 143 974 130 987 q 156 943 156 960 l 165 26 q 151 -7 165 4 q 120 -18 137 -18 q 90 -7 104 -18 q 77 24 77 3 l 68 943 q 82 974 68 960 q 113 987 96 987 z "},"":{"ha":232,"x_min":-124,"x_max":347,"o":"m -111 951 l 87 1136 q 117 1148 100 1148 q 149 1135 136 1148 l 333 947 q 347 917 347 933 q 332 885 347 899 q 300 871 317 871 q 270 885 283 871 l 117 1042 l -50 887 q -79 874 -63 874 q -111 888 -97 874 q -124 920 -124 903 q -111 951 -124 938 m 113 987 q 143 974 130 987 q 156 943 156 960 l 165 26 q 151 -7 165 4 q 120 -18 137 -18 q 90 -7 104 -18 q 77 24 77 3 l 68 943 q 82 974 68 960 q 113 987 96 987 z "},"":{"ha":232,"x_min":-62,"x_max":298,"o":"m 87 1070 q 66 1019 87 1041 q 13 997 45 997 q -43 1021 -24 997 q -62 1080 -62 1045 q -58 1114 -62 1097 q -45 1144 -55 1126 q -23 1178 -36 1163 q 6 1192 -9 1192 q 45 1172 26 1192 q 75 1122 64 1151 q 87 1070 87 1094 m 298 1065 q 277 1014 298 1036 q 224 991 256 991 q 168 1016 186 991 q 149 1074 149 1040 q 153 1108 149 1091 q 165 1139 156 1120 q 188 1172 175 1158 q 217 1187 201 1187 q 256 1166 237 1187 q 286 1117 275 1145 q 298 1065 298 1088 m 113 987 q 143 974 130 987 q 156 943 156 960 l 165 26 q 151 -7 165 4 q 120 -18 137 -18 q 90 -7 104 -18 q 77 24 77 3 l 68 943 q 82 974 68 960 q 113 987 96 987 z "},"":{"ha":741,"x_min":-100,"x_max":673,"o":"m -56 519 q -87 532 -75 519 q -100 563 -100 545 q -87 594 -100 581 q -56 607 -75 607 l 68 607 l 68 926 q 78 955 68 943 q 102 970 89 967 q 201 981 153 981 q 437 907 325 981 q 551 802 496 868 q 639 652 605 736 q 673 470 673 567 q 665 381 673 425 q 567 179 642 260 q 377 51 492 97 q 119 -7 262 5 q 116 -7 118 -7 q 86 6 99 -7 q 72 36 73 20 l 69 519 l -56 519 m 287 563 q 274 532 287 545 q 243 519 261 519 l 157 519 l 160 86 q 352 136 264 99 q 500 237 441 174 q 577 390 560 300 q 585 469 585 429 q 556 622 585 551 q 482 747 528 692 q 385 836 436 802 q 199 892 298 892 q 156 890 178 892 l 157 607 l 243 607 q 274 594 261 607 q 287 563 287 581 z "},"":{"ha":857,"x_min":67,"x_max":790,"o":"m 178 972 q 150 985 163 972 q 136 1012 136 998 q 139 1032 136 1026 q 203 1119 157 1081 q 314 1156 250 1156 q 446 1113 377 1156 q 496 1082 476 1094 q 528 1065 517 1070 q 569 1057 549 1057 q 617 1074 595 1057 q 642 1114 639 1092 q 657 1145 646 1133 q 688 1158 669 1158 q 717 1146 703 1158 q 731 1121 731 1135 q 681 1013 731 1056 q 570 969 631 969 q 436 1015 509 969 q 380 1049 410 1031 q 316 1068 350 1068 q 257 1048 283 1068 q 222 1002 231 1028 q 205 982 218 991 q 178 972 193 972 m 136 -22 q 107 -9 120 -22 q 94 20 94 3 l 68 928 q 81 961 67 949 q 113 973 96 973 q 148 955 135 973 l 696 165 l 672 947 q 685 980 671 968 q 716 991 699 991 q 746 981 732 991 q 760 949 760 970 l 789 19 q 776 -14 790 -2 q 745 -26 762 -26 q 709 -7 722 -26 l 160 783 l 182 23 q 168 -9 182 5 q 136 -22 154 -22 z "},"":{"ha":1154,"x_min":68,"x_max":1086,"o":"m 583 1127 q 597 1159 583 1147 q 628 1172 612 1172 q 667 1149 654 1172 l 716 1037 q 730 999 730 1014 q 720 979 730 987 q 698 970 710 970 q 669 993 682 970 l 590 1105 q 583 1127 583 1116 m 1086 460 q 1046 273 1086 357 q 936 128 1006 189 q 774 34 866 67 q 576 1 682 1 q 479 9 528 1 q 382 35 431 17 q 193 158 276 73 q 81 366 111 243 q 68 476 68 422 q 94 622 68 553 q 161 748 119 692 q 250 844 202 805 q 562 962 385 955 q 575 961 569 962 q 585 958 581 959 q 818 891 714 951 q 984 751 922 831 q 1086 460 1086 618 m 566 873 q 301 772 418 867 q 161 528 184 676 q 157 473 157 501 q 176 355 157 410 q 222 262 195 300 q 366 138 276 188 q 574 88 456 88 q 660 96 616 88 q 828 158 751 111 q 951 282 905 206 q 998 456 998 357 q 966 611 998 541 q 881 734 934 682 q 767 819 829 787 q 581 870 677 865 q 566 873 574 870 z "},"":{"ha":1154,"x_min":68,"x_max":1086,"o":"m 502 972 q 480 981 490 972 q 470 1001 470 989 q 484 1039 470 1016 l 533 1152 q 571 1174 545 1174 q 602 1161 587 1174 q 616 1129 616 1149 q 609 1107 616 1118 l 531 995 q 502 972 518 972 m 1086 460 q 1046 273 1086 357 q 936 128 1006 189 q 774 34 866 67 q 576 1 682 1 q 479 9 528 1 q 382 35 431 17 q 193 158 276 73 q 81 366 111 243 q 68 476 68 422 q 94 622 68 553 q 161 748 119 692 q 250 844 202 805 q 562 962 385 955 q 575 961 569 962 q 585 958 581 959 q 818 891 714 951 q 984 751 922 831 q 1086 460 1086 618 m 566 873 q 301 772 418 867 q 161 528 184 676 q 157 473 157 501 q 176 355 157 410 q 222 262 195 300 q 366 138 276 188 q 574 88 456 88 q 660 96 616 88 q 828 158 751 111 q 951 282 905 206 q 998 456 998 357 q 966 611 998 541 q 881 734 934 682 q 767 819 829 787 q 581 870 677 865 q 566 873 574 870 z "},"":{"ha":1154,"x_min":68,"x_max":1086,"o":"m 351 1012 l 549 1197 q 579 1209 562 1209 q 611 1196 598 1209 l 795 1008 q 808 978 808 994 q 794 946 808 960 q 762 932 779 932 q 732 946 745 932 l 578 1103 l 412 948 q 382 935 399 935 q 351 949 365 935 q 338 981 338 964 q 351 1012 338 999 m 1086 460 q 1046 273 1086 357 q 936 128 1006 189 q 774 34 866 67 q 576 1 682 1 q 479 9 528 1 q 382 35 431 17 q 193 158 276 73 q 81 366 111 243 q 68 476 68 422 q 94 622 68 553 q 161 748 119 692 q 250 844 202 805 q 562 962 385 955 q 575 961 569 962 q 585 958 581 959 q 818 891 714 951 q 984 751 922 831 q 1086 460 1086 618 m 566 873 q 301 772 418 867 q 161 528 184 676 q 157 473 157 501 q 176 355 157 410 q 222 262 195 300 q 366 138 276 188 q 574 88 456 88 q 660 96 616 88 q 828 158 751 111 q 951 282 905 206 q 998 456 998 357 q 966 611 998 541 q 881 734 934 682 q 767 819 829 787 q 581 870 677 865 q 566 873 574 870 z "},"":{"ha":1154,"x_min":68,"x_max":1086,"o":"m 302 975 q 274 987 288 975 q 260 1014 260 1000 q 263 1034 260 1028 q 327 1121 281 1083 q 438 1158 374 1158 q 570 1115 501 1158 q 621 1084 600 1096 q 652 1067 641 1072 q 693 1059 673 1059 q 741 1076 719 1059 q 766 1116 763 1094 q 781 1147 770 1135 q 812 1160 793 1160 q 841 1148 827 1160 q 855 1123 855 1137 q 805 1015 855 1058 q 694 971 755 971 q 560 1017 633 971 q 504 1052 534 1033 q 440 1070 474 1070 q 381 1050 407 1070 q 346 1004 355 1030 q 330 984 342 993 q 302 975 317 975 m 1086 460 q 1046 273 1086 357 q 936 128 1006 189 q 774 34 866 67 q 576 1 682 1 q 479 9 528 1 q 382 35 431 17 q 193 158 276 73 q 81 366 111 243 q 68 476 68 422 q 94 622 68 553 q 161 748 119 692 q 250 844 202 805 q 562 962 385 955 q 575 961 569 962 q 585 958 581 959 q 818 891 714 951 q 984 751 922 831 q 1086 460 1086 618 m 566 873 q 301 772 418 867 q 161 528 184 676 q 157 473 157 501 q 176 355 157 410 q 222 262 195 300 q 366 138 276 188 q 574 88 456 88 q 660 96 616 88 q 828 158 751 111 q 951 282 905 206 q 998 456 998 357 q 966 611 998 541 q 881 734 934 682 q 767 819 829 787 q 581 870 677 865 q 566 873 574 870 z "},"":{"ha":1154,"x_min":68,"x_max":1086,"o":"m 536 1054 q 515 1003 536 1025 q 463 981 494 981 q 407 1005 425 981 q 388 1063 388 1029 q 392 1097 388 1080 q 404 1128 395 1109 q 427 1161 414 1147 q 456 1176 440 1176 q 495 1155 476 1176 q 525 1106 513 1135 q 536 1054 536 1078 m 747 1048 q 726 997 747 1019 q 673 975 705 975 q 617 999 636 975 q 599 1058 599 1023 q 603 1092 599 1075 q 615 1123 606 1104 q 638 1156 625 1141 q 667 1171 651 1171 q 706 1150 687 1171 q 736 1101 724 1129 q 747 1048 747 1072 m 1086 460 q 1046 273 1086 357 q 936 128 1006 189 q 774 34 866 67 q 576 1 682 1 q 479 9 528 1 q 382 35 431 17 q 193 158 276 73 q 81 366 111 243 q 68 476 68 422 q 94 622 68 553 q 161 748 119 692 q 250 844 202 805 q 562 962 385 955 q 575 961 569 962 q 585 958 581 959 q 818 891 714 951 q 984 751 922 831 q 1086 460 1086 618 m 566 873 q 301 772 418 867 q 161 528 184 676 q 157 473 157 501 q 176 355 157 410 q 222 262 195 300 q 366 138 276 188 q 574 88 456 88 q 660 96 616 88 q 828 158 751 111 q 951 282 905 206 q 998 456 998 357 q 966 611 998 541 q 881 734 934 682 q 767 819 829 787 q 581 870 677 865 q 566 873 574 870 z "},"":{"ha":730,"x_min":69,"x_max":661,"o":"m 136 184 q 105 197 118 184 q 92 227 92 210 q 106 260 92 246 l 287 434 l 87 588 q 69 625 69 602 q 80 655 69 642 q 111 669 92 669 q 115 669 113 669 q 136 661 127 669 l 351 496 l 535 671 q 563 684 547 684 q 594 669 581 684 q 608 637 608 655 q 593 606 608 620 l 421 441 l 643 271 q 661 233 661 256 q 653 207 661 219 q 627 191 644 195 q 594 197 607 187 l 357 380 l 164 195 q 136 184 153 184 z "},"":{"ha":1154,"x_min":68,"x_max":1086,"o":"m 165 -5 q 133 9 148 -5 q 118 43 118 23 q 124 59 118 52 l 203 149 q 81 366 111 241 q 68 476 68 422 q 94 622 68 553 q 161 748 119 692 q 250 844 202 805 q 562 962 385 955 q 575 961 569 962 q 585 958 581 959 q 838 880 719 951 l 892 942 q 910 960 901 953 q 930 967 918 967 q 963 954 947 967 q 978 920 978 940 q 972 905 978 911 l 908 830 q 984 751 950 795 q 1086 460 1086 618 q 1046 273 1086 357 q 936 128 1006 189 q 774 34 866 67 q 576 1 682 1 q 406 28 488 1 q 267 94 324 55 l 203 21 q 185 3 194 10 q 165 -5 177 -5 m 566 873 q 412 840 486 870 q 281 756 339 809 q 190 632 224 703 q 157 477 157 562 q 173 363 157 418 q 212 276 189 307 q 260 216 241 236 l 779 812 q 581 870 686 864 q 566 873 574 870 m 326 161 q 440 109 374 129 q 581 89 507 89 q 660 96 621 89 q 828 158 751 111 q 951 282 905 206 q 998 456 998 357 q 977 585 998 526 q 914 697 956 644 q 850 764 886 734 l 326 161 z "},"":{"ha":929,"x_min":68,"x_max":861,"o":"m 396 1129 q 410 1161 396 1149 q 441 1174 425 1174 q 479 1152 467 1174 l 529 1039 q 543 1001 543 1016 q 533 981 543 989 q 511 972 523 972 q 481 995 494 972 l 403 1107 q 396 1129 396 1118 m 450 75 q 606 114 544 75 q 706 220 669 152 q 758 378 743 288 q 774 570 774 467 q 736 938 774 726 q 736 946 736 942 q 750 978 736 966 q 782 989 765 989 q 808 980 796 989 q 823 954 820 972 q 861 564 861 734 q 690 64 861 205 q 583 6 646 26 q 451 -14 521 -14 q 262 31 332 -14 q 155 157 192 77 q 98 340 118 237 q 68 777 68 495 q 70 936 68 852 q 84 966 71 954 q 115 979 98 979 q 145 965 132 979 q 158 933 158 951 q 156 768 156 845 q 184 358 156 499 q 287 123 220 174 q 450 75 349 75 z "},"":{"ha":929,"x_min":68,"x_max":861,"o":"m 274 972 q 252 981 262 972 q 242 1001 242 989 q 256 1039 242 1016 l 305 1152 q 343 1174 317 1174 q 374 1161 359 1174 q 388 1129 388 1149 q 381 1107 388 1118 l 303 995 q 274 972 290 972 m 450 75 q 606 114 544 75 q 706 220 669 152 q 758 378 743 288 q 774 570 774 467 q 736 938 774 726 q 736 946 736 942 q 750 978 736 966 q 782 989 765 989 q 808 980 796 989 q 823 954 820 972 q 861 564 861 734 q 690 64 861 205 q 583 6 646 26 q 451 -14 521 -14 q 262 31 332 -14 q 155 157 192 77 q 98 340 118 237 q 68 777 68 495 q 70 936 68 852 q 84 966 71 954 q 115 979 98 979 q 145 965 132 979 q 158 933 158 951 q 156 768 156 845 q 184 358 156 499 q 287 123 220 174 q 450 75 349 75 z "},"":{"ha":929,"x_min":68,"x_max":861,"o":"m 215 1048 l 412 1234 q 443 1246 425 1246 q 475 1233 462 1246 l 659 1044 q 672 1015 672 1031 q 657 983 672 997 q 625 969 643 969 q 595 983 608 969 l 442 1140 l 276 985 q 246 972 262 972 q 215 986 229 972 q 201 1018 201 1000 q 215 1048 201 1036 m 450 75 q 606 114 544 75 q 706 220 669 152 q 758 378 743 288 q 774 570 774 467 q 736 938 774 726 q 736 946 736 942 q 750 978 736 966 q 782 989 765 989 q 808 980 796 989 q 823 954 820 972 q 861 564 861 734 q 690 64 861 205 q 583 6 646 26 q 451 -14 521 -14 q 262 31 332 -14 q 155 157 192 77 q 98 340 118 237 q 68 777 68 495 q 70 936 68 852 q 84 966 71 954 q 115 979 98 979 q 145 965 132 979 q 158 933 158 951 q 156 768 156 845 q 184 358 156 499 q 287 123 220 174 q 450 75 349 75 z "},"":{"ha":929,"x_min":68,"x_max":861,"o":"m 425 1052 q 404 1000 425 1021 q 351 979 383 979 q 295 1003 313 979 q 276 1062 276 1027 q 280 1096 276 1079 q 292 1127 283 1108 q 315 1160 302 1145 q 343 1174 328 1174 q 383 1153 364 1174 q 413 1104 401 1133 q 425 1052 425 1076 m 635 1046 q 615 995 635 1016 q 562 974 594 974 q 506 998 524 974 q 487 1057 487 1022 q 491 1090 487 1074 q 503 1121 494 1103 q 526 1154 513 1140 q 554 1168 539 1168 q 594 1148 575 1168 q 624 1099 612 1127 q 635 1046 635 1070 m 450 75 q 606 114 544 75 q 706 220 669 152 q 758 378 743 288 q 774 570 774 467 q 736 938 774 726 q 736 946 736 942 q 750 978 736 966 q 782 989 765 989 q 808 980 796 989 q 823 954 820 972 q 861 564 861 734 q 690 64 861 205 q 583 6 646 26 q 451 -14 521 -14 q 262 31 332 -14 q 155 157 192 77 q 98 340 118 237 q 68 777 68 495 q 70 936 68 852 q 84 966 71 954 q 115 979 98 979 q 145 965 132 979 q 158 933 158 951 q 156 768 156 845 q 184 358 156 499 q 287 123 220 174 q 450 75 349 75 z "},"":{"ha":863,"x_min":68,"x_max":795,"o":"m 457 865 q 435 873 445 865 q 425 893 425 881 q 439 931 425 908 l 488 1044 q 526 1066 500 1066 q 557 1054 543 1066 q 571 1021 571 1041 q 564 999 571 1010 l 486 887 q 457 865 473 865 m 302 -54 q 271 -41 283 -54 q 258 -9 258 -28 q 262 9 258 0 q 361 225 311 117 q 460 441 410 333 l 78 905 q 68 932 68 918 q 82 963 68 949 q 114 977 96 977 q 146 960 133 977 l 500 530 q 606 760 553 646 q 711 989 659 875 q 726 1007 715 1000 q 751 1015 737 1015 q 782 1002 769 1015 q 795 971 795 989 q 791 953 795 962 l 342 -28 q 326 -46 337 -38 q 302 -54 315 -54 z "},"":{"ha":673,"x_min":68,"x_max":606,"o":"m 114 -18 q 85 -7 100 -18 q 70 18 70 5 l 70 26 l 68 944 l 68 954 q 83 977 68 966 q 112 989 98 989 q 141 977 126 989 q 156 954 156 966 l 156 857 q 488 770 366 847 q 569 695 532 742 q 606 585 606 649 q 563 465 606 513 q 469 388 521 416 q 183 325 354 325 q 157 326 170 325 l 158 27 l 158 18 q 143 -7 158 5 q 114 -18 128 -18 m 157 769 l 157 414 q 186 413 172 413 q 419 461 332 413 q 518 586 518 516 q 499 642 518 614 q 440 696 480 670 q 157 769 340 760 z "},"":{"ha":735,"x_min":68,"x_max":668,"o":"m 341 89 q 448 102 393 89 q 541 142 503 115 q 578 212 578 169 q 522 321 578 262 q 317 430 453 391 q 286 477 287 438 q 304 508 286 494 q 462 664 414 584 q 484 734 484 701 q 464 792 484 765 q 418 839 445 820 q 367 862 391 857 q 329 866 348 866 q 220 824 271 866 q 171 762 184 793 q 159 720 159 736 l 156 43 q 143 12 155 24 q 112 -1 130 -1 q 81 12 95 -1 q 68 33 78 20 l 68 43 l 71 720 q 163 891 73 814 q 326 957 241 957 q 454 920 388 957 q 564 783 545 870 q 570 732 570 757 q 540 623 570 674 q 421 486 497 550 q 654 282 604 409 q 668 212 668 245 q 619 96 668 149 q 353 -1 531 -1 q 255 6 307 -1 q 228 21 239 8 q 216 51 216 33 q 227 80 216 65 q 251 94 238 94 q 252 94 251 94 q 297 92 275 94 q 341 89 319 89 z "},"":{"ha":743,"x_min":68,"x_max":675,"o":"m 376 877 q 390 909 376 897 q 420 922 404 922 q 459 899 447 922 l 509 787 q 522 749 522 764 q 512 728 522 736 q 490 720 503 720 q 461 743 474 720 l 382 854 q 376 877 376 865 m 668 471 q 670 456 670 464 q 664 420 670 440 q 654 229 654 313 q 673 38 654 111 q 675 25 675 31 q 661 -5 675 6 q 629 -16 646 -16 q 605 -9 616 -16 q 589 16 593 -1 q 566 214 568 94 q 428 50 502 110 q 336 9 383 14 q 280 1 307 1 q 210 16 241 1 q 155 52 178 30 q 91 152 113 90 q 68 294 68 213 q 116 492 68 397 q 330 676 186 630 q 436 694 385 694 q 556 665 500 694 q 668 471 654 612 m 580 465 q 537 568 574 530 q 439 606 501 606 q 357 592 401 606 q 198 458 248 557 q 156 292 156 375 q 172 188 156 234 q 212 119 187 142 q 281 91 243 91 q 306 94 294 91 q 332 98 317 96 q 378 125 344 99 q 450 202 412 153 q 522 313 488 252 q 577 437 556 375 q 578 451 578 444 q 580 465 579 458 z "},"":{"ha":743,"x_min":68,"x_max":675,"o":"m 313 741 q 291 749 300 741 q 281 769 281 757 q 294 807 281 784 l 344 920 q 382 942 356 942 q 412 929 398 942 q 427 897 427 917 q 420 875 427 886 l 342 763 q 313 741 329 741 m 668 471 q 670 456 670 464 q 664 420 670 440 q 654 229 654 313 q 673 38 654 111 q 675 25 675 31 q 661 -5 675 6 q 629 -16 646 -16 q 605 -9 616 -16 q 589 16 593 -1 q 566 214 568 94 q 428 50 502 110 q 336 9 383 14 q 280 1 307 1 q 210 16 241 1 q 155 52 178 30 q 91 152 113 90 q 68 294 68 213 q 116 492 68 397 q 330 676 186 630 q 436 694 385 694 q 556 665 500 694 q 668 471 654 612 m 580 465 q 537 568 574 530 q 439 606 501 606 q 357 592 401 606 q 198 458 248 557 q 156 292 156 375 q 172 188 156 234 q 212 119 187 142 q 281 91 243 91 q 306 94 294 91 q 332 98 317 96 q 378 125 344 99 q 450 202 412 153 q 522 313 488 252 q 577 437 556 375 q 578 451 578 444 q 580 465 579 458 z "},"":{"ha":743,"x_min":68,"x_max":675,"o":"m 189 762 l 386 947 q 416 959 399 959 q 448 946 435 959 l 632 758 q 646 728 646 744 q 631 696 646 710 q 599 682 616 682 q 569 696 582 682 l 416 853 l 250 698 q 220 685 236 685 q 189 699 202 685 q 175 731 175 713 q 189 762 175 749 m 668 471 q 670 456 670 464 q 664 420 670 440 q 654 229 654 313 q 673 38 654 111 q 675 25 675 31 q 661 -5 675 6 q 629 -16 646 -16 q 605 -9 616 -16 q 589 16 593 -1 q 566 214 568 94 q 428 50 502 110 q 336 9 383 14 q 280 1 307 1 q 210 16 241 1 q 155 52 178 30 q 91 152 113 90 q 68 294 68 213 q 116 492 68 397 q 330 676 186 630 q 436 694 385 694 q 556 665 500 694 q 668 471 654 612 m 580 465 q 537 568 574 530 q 439 606 501 606 q 357 592 401 606 q 198 458 248 557 q 156 292 156 375 q 172 188 156 234 q 212 119 187 142 q 281 91 243 91 q 306 94 294 91 q 332 98 317 96 q 378 125 344 99 q 450 202 412 153 q 522 313 488 252 q 577 437 556 375 q 578 451 578 444 q 580 465 579 458 z "},"":{"ha":743,"x_min":68,"x_max":694,"o":"m 140 714 q 113 727 126 714 q 99 753 99 740 q 102 774 99 768 q 166 860 119 823 q 277 898 212 898 q 409 854 340 898 q 459 824 439 836 q 490 807 479 812 q 532 798 512 798 q 579 816 557 798 q 605 856 602 833 q 620 887 608 874 q 651 899 631 899 q 680 888 665 899 q 694 863 694 876 q 644 754 694 798 q 533 711 593 711 q 399 756 471 711 q 343 791 373 772 q 279 810 313 810 q 220 790 245 810 q 184 744 194 770 q 168 723 180 732 q 140 714 156 714 m 668 471 q 670 456 670 464 q 664 420 670 440 q 654 229 654 313 q 673 38 654 111 q 675 25 675 31 q 661 -5 675 6 q 629 -16 646 -16 q 605 -9 616 -16 q 589 16 593 -1 q 566 214 568 94 q 428 50 502 110 q 336 9 383 14 q 280 1 307 1 q 210 16 241 1 q 155 52 178 30 q 91 152 113 90 q 68 294 68 213 q 116 492 68 397 q 330 676 186 630 q 436 694 385 694 q 556 665 500 694 q 668 471 654 612 m 580 465 q 537 568 574 530 q 439 606 501 606 q 357 592 401 606 q 198 458 248 557 q 156 292 156 375 q 172 188 156 234 q 212 119 187 142 q 281 91 243 91 q 306 94 294 91 q 332 98 317 96 q 378 125 344 99 q 450 202 412 153 q 522 313 488 252 q 577 437 556 375 q 578 451 578 444 q 580 465 579 458 z "},"":{"ha":743,"x_min":68,"x_max":675,"o":"m 408 789 q 387 738 408 760 q 334 716 366 716 q 278 740 297 716 q 260 799 260 764 q 264 833 260 816 q 276 864 267 845 q 299 897 286 882 q 328 911 312 911 q 367 891 348 911 q 397 842 385 870 q 408 789 408 813 m 619 784 q 598 733 619 755 q 545 711 577 711 q 489 735 508 711 q 471 793 471 759 q 475 827 471 810 q 487 858 477 840 q 510 891 496 877 q 538 906 523 906 q 577 885 559 906 q 608 836 596 865 q 619 784 619 808 m 668 471 q 670 456 670 464 q 664 420 670 440 q 654 229 654 313 q 673 38 654 111 q 675 25 675 31 q 661 -5 675 6 q 629 -16 646 -16 q 605 -9 616 -16 q 589 16 593 -1 q 566 214 568 94 q 428 50 502 110 q 336 9 383 14 q 280 1 307 1 q 210 16 241 1 q 155 52 178 30 q 91 152 113 90 q 68 294 68 213 q 116 492 68 397 q 330 676 186 630 q 436 694 385 694 q 556 665 500 694 q 668 471 654 612 m 580 465 q 537 568 574 530 q 439 606 501 606 q 357 592 401 606 q 198 458 248 557 q 156 292 156 375 q 172 188 156 234 q 212 119 187 142 q 281 91 243 91 q 306 94 294 91 q 332 98 317 96 q 378 125 344 99 q 450 202 412 153 q 522 313 488 252 q 577 437 556 375 q 578 451 578 444 q 580 465 579 458 z "},"":{"ha":743,"x_min":68,"x_max":675,"o":"m 396 1016 q 509 974 463 1016 q 555 857 555 931 q 515 758 555 795 q 416 711 475 720 q 395 709 406 709 q 319 732 353 709 q 265 792 286 755 q 245 875 245 830 q 288 975 245 935 q 396 1016 331 1016 m 307 871 q 332 806 307 836 q 397 777 357 777 q 490 835 468 777 q 494 859 494 846 q 492 880 494 869 q 401 949 472 949 q 333 930 360 949 q 307 871 307 911 m 668 471 q 670 456 670 464 q 664 420 670 440 q 654 229 654 313 q 673 38 654 111 q 675 25 675 31 q 661 -5 675 6 q 629 -16 646 -16 q 605 -9 616 -16 q 589 16 593 -1 q 566 214 568 94 q 428 50 502 110 q 336 9 383 14 q 280 1 307 1 q 210 16 241 1 q 155 52 178 30 q 91 152 113 90 q 68 294 68 213 q 116 492 68 397 q 330 676 186 630 q 436 694 385 694 q 556 665 500 694 q 668 471 654 612 m 580 465 q 537 568 574 530 q 439 606 501 606 q 357 592 401 606 q 198 458 248 557 q 156 292 156 375 q 172 188 156 234 q 212 119 187 142 q 281 91 243 91 q 306 94 294 91 q 332 98 317 96 q 378 125 344 99 q 450 202 412 153 q 522 313 488 252 q 577 437 556 375 q 578 451 578 444 q 580 465 579 458 z "},"":{"ha":1339,"x_min":68,"x_max":1272,"o":"m 345 688 q 553 636 467 688 q 681 500 640 585 q 825 635 732 581 q 1047 690 918 690 q 1234 618 1172 690 q 1272 515 1272 575 q 1257 448 1272 481 q 1082 298 1216 355 q 731 241 949 241 q 721 241 724 241 q 796 131 740 172 q 941 91 852 91 q 1207 166 1055 91 q 1231 171 1216 171 q 1260 156 1249 171 q 1272 122 1272 142 q 1246 87 1272 98 q 941 3 1076 3 q 769 44 838 3 q 662 156 699 86 q 537 38 616 84 q 346 -8 458 -8 q 114 81 186 -8 q 87 129 97 102 q 77 185 77 155 q 90 250 77 218 q 260 392 130 340 q 608 445 393 445 l 609 445 q 509 561 578 522 q 345 599 439 599 q 127 558 245 599 q 106 555 121 555 q 80 569 93 555 q 68 597 68 583 q 77 625 68 612 q 98 642 86 637 q 345 688 233 688 m 1033 602 q 881 568 948 602 q 770 479 813 535 q 716 353 728 422 q 716 340 716 347 q 715 326 716 333 q 731 329 722 329 q 1090 401 960 329 q 1153 449 1122 420 q 1185 515 1185 477 q 1164 564 1185 541 q 1033 602 1131 602 m 350 80 q 533 142 458 80 q 625 303 608 204 q 626 335 625 321 q 627 361 627 349 q 614 357 618 357 l 608 357 q 230 277 349 357 q 184 238 205 261 q 164 186 164 214 q 186 133 164 159 q 252 93 208 106 q 350 80 296 80 z "},"":{"ha":654,"x_min":67,"x_max":587,"o":"m 380 -87 q 467 -120 434 -91 q 499 -201 499 -150 q 486 -258 499 -232 q 426 -320 466 -294 q 329 -346 385 -346 q 199 -303 267 -346 q 178 -269 178 -290 q 190 -236 178 -250 q 219 -222 201 -222 q 254 -234 235 -222 q 289 -251 266 -241 q 336 -260 313 -260 q 368 -254 354 -260 q 395 -234 378 -248 q 412 -202 412 -219 q 372 -174 412 -174 q 349 -176 361 -174 q 321 -178 336 -178 q 296 -164 308 -178 q 285 -134 285 -151 q 286 -128 285 -131 l 303 -9 q 286 -6 303 -8 q 239 7 268 -4 q 112 99 157 35 q 67 266 67 163 q 93 404 67 339 q 159 519 119 469 q 242 600 199 570 q 435 663 332 663 q 549 645 490 663 q 572 628 564 640 q 580 601 580 615 q 564 569 580 583 q 524 561 547 554 q 439 574 481 574 q 323 546 375 574 q 234 472 271 517 q 178 375 197 427 q 156 263 156 317 q 204 130 156 180 q 343 79 253 79 q 527 117 421 79 q 543 120 534 120 q 573 108 560 120 q 587 78 587 96 q 578 50 587 62 q 557 35 569 39 q 391 -7 468 1 q 390 -21 391 -18 l 380 -87 z "},"":{"ha":784,"x_min":68,"x_max":716,"o":"m 429 885 q 443 917 429 905 q 473 930 457 930 q 512 907 500 930 l 562 795 q 575 757 575 772 q 565 736 575 745 q 543 728 555 728 q 514 751 527 728 l 435 863 q 429 885 429 873 m 164 230 q 240 119 184 159 q 383 79 297 79 q 651 155 498 79 q 671 159 661 159 q 702 147 688 159 q 715 117 715 135 q 690 75 715 87 q 533 14 613 37 q 378 -9 453 -9 q 236 20 302 -9 q 123 115 170 48 q 82 194 96 152 q 68 288 68 236 q 71 336 68 311 q 178 558 86 466 q 492 677 298 677 q 623 649 567 677 q 703 567 680 620 q 716 505 716 538 q 687 407 716 450 q 606 329 659 365 q 175 229 457 229 q 164 230 171 229 m 157 313 q 175 317 166 317 q 557 402 431 317 q 610 451 592 426 q 629 508 629 475 q 620 538 629 527 q 598 560 612 550 q 493 589 560 589 q 329 556 403 589 q 209 460 255 522 q 157 313 163 398 z "},"":{"ha":784,"x_min":68,"x_max":716,"o":"m 270 700 q 248 708 258 700 q 238 728 238 716 q 252 766 238 743 l 301 879 q 339 901 313 901 q 370 889 355 901 q 384 857 384 876 q 377 834 384 845 l 299 722 q 270 700 286 700 m 164 230 q 240 119 184 159 q 383 79 297 79 q 651 155 498 79 q 671 159 661 159 q 702 147 688 159 q 715 117 715 135 q 690 75 715 87 q 533 14 613 37 q 378 -9 453 -9 q 236 20 302 -9 q 123 115 170 48 q 82 194 96 152 q 68 288 68 236 q 71 336 68 311 q 178 558 86 466 q 492 677 298 677 q 623 649 567 677 q 703 567 680 620 q 716 505 716 538 q 687 407 716 450 q 606 329 659 365 q 175 229 457 229 q 164 230 171 229 m 157 313 q 175 317 166 317 q 557 402 431 317 q 610 451 592 426 q 629 508 629 475 q 620 538 629 527 q 598 560 612 550 q 493 589 560 589 q 329 556 403 589 q 209 460 255 522 q 157 313 163 398 z "},"":{"ha":784,"x_min":68,"x_max":716,"o":"m 239 758 l 437 943 q 467 955 450 955 q 499 942 486 955 l 683 753 q 696 724 696 740 q 682 692 696 706 q 650 678 667 678 q 620 692 633 678 l 467 849 l 300 694 q 271 681 287 681 q 239 695 253 681 q 226 727 226 709 q 239 758 226 745 m 164 230 q 240 119 184 159 q 383 79 297 79 q 651 155 498 79 q 671 159 661 159 q 702 147 688 159 q 715 117 715 135 q 690 75 715 87 q 533 14 613 37 q 378 -9 453 -9 q 236 20 302 -9 q 123 115 170 48 q 82 194 96 152 q 68 288 68 236 q 71 336 68 311 q 178 558 86 466 q 492 677 298 677 q 623 649 567 677 q 703 567 680 620 q 716 505 716 538 q 687 407 716 450 q 606 329 659 365 q 175 229 457 229 q 164 230 171 229 m 157 313 q 175 317 166 317 q 557 402 431 317 q 610 451 592 426 q 629 508 629 475 q 620 538 629 527 q 598 560 612 550 q 493 589 560 589 q 329 556 403 589 q 209 460 255 522 q 157 313 163 398 z "},"":{"ha":784,"x_min":68,"x_max":716,"o":"m 451 775 q 430 724 451 745 q 377 703 410 703 q 321 727 340 703 q 302 785 302 751 q 307 819 302 802 q 319 850 309 831 q 341 883 328 869 q 370 897 355 897 q 409 877 391 897 q 439 827 428 856 q 451 775 451 799 m 662 770 q 641 718 662 739 q 588 697 621 697 q 532 721 551 697 q 513 780 513 745 q 517 814 513 797 q 530 845 520 826 q 552 878 539 863 q 581 892 566 892 q 620 871 602 892 q 650 822 639 850 q 662 770 662 793 m 164 230 q 240 119 184 159 q 383 79 297 79 q 651 155 498 79 q 671 159 661 159 q 702 147 688 159 q 715 117 715 135 q 690 75 715 87 q 533 14 613 37 q 378 -9 453 -9 q 236 20 302 -9 q 123 115 170 48 q 82 194 96 152 q 68 288 68 236 q 71 336 68 311 q 178 558 86 466 q 492 677 298 677 q 623 649 567 677 q 703 567 680 620 q 716 505 716 538 q 687 407 716 450 q 606 329 659 365 q 175 229 457 229 q 164 230 171 229 m 157 313 q 175 317 166 317 q 557 402 431 317 q 610 451 592 426 q 629 508 629 475 q 620 538 629 527 q 598 560 612 550 q 493 589 560 589 q 329 556 403 589 q 209 460 255 522 q 157 313 163 398 z "},"":{"ha":277,"x_min":62,"x_max":209,"o":"m 62 913 q 77 946 62 933 q 107 958 91 958 q 146 936 134 958 l 195 823 q 209 785 209 800 q 199 765 209 773 q 177 757 189 757 q 148 779 161 757 l 69 891 q 62 913 62 902 m 178 111 q 163 24 176 56 q 118 -8 150 -8 q 87 5 100 -8 q 73 37 73 18 q 77 54 73 45 q 86 111 83 68 q 92 211 90 153 q 95 330 94 269 q 96 444 96 391 q 96 528 96 497 q 96 639 96 586 q 110 671 96 661 q 140 682 123 682 q 170 672 157 682 q 183 640 183 661 q 184 570 184 604 q 184 502 184 535 q 183 302 184 391 q 178 111 182 212 z "},"":{"ha":309,"x_min":28,"x_max":184,"o":"m 60 710 q 38 718 48 710 q 28 739 28 726 q 42 777 28 753 l 92 889 q 130 911 104 911 q 160 899 146 911 q 174 867 174 886 q 168 844 174 855 l 90 732 q 60 710 77 710 m 178 111 q 163 24 176 56 q 118 -8 150 -8 q 87 5 100 -8 q 73 37 73 18 q 77 54 73 45 q 86 111 83 68 q 92 211 90 153 q 95 330 94 269 q 96 444 96 391 q 96 528 96 497 q 96 639 96 586 q 110 671 96 661 q 140 682 123 682 q 170 672 157 682 q 183 640 183 661 q 184 570 184 604 q 184 502 184 535 q 183 302 184 391 q 178 111 182 212 z "},"":{"ha":309,"x_min":-87,"x_max":383,"o":"m -74 745 l 123 930 q 154 943 136 943 q 186 930 173 943 l 370 741 q 383 711 383 728 q 369 680 383 694 q 336 666 354 666 q 307 680 319 666 l 153 837 l -13 682 q -43 669 -26 669 q -74 683 -60 669 q -87 715 -87 697 q -74 745 -87 732 m 178 111 q 163 24 176 56 q 118 -8 150 -8 q 87 5 100 -8 q 73 37 73 18 q 77 54 73 45 q 86 111 83 68 q 92 211 90 153 q 95 330 94 269 q 96 444 96 391 q 96 528 96 497 q 96 639 96 586 q 110 671 96 661 q 140 682 123 682 q 170 672 157 682 q 183 640 183 661 q 184 570 184 604 q 184 502 184 535 q 183 302 184 391 q 178 111 182 212 z "},"":{"ha":309,"x_min":-41,"x_max":318,"o":"m 107 802 q 86 750 107 772 q 33 728 66 728 q -23 752 -4 728 q -41 811 -41 777 q -37 845 -41 828 q -25 876 -35 857 q -2 909 -16 895 q 26 924 11 924 q 65 903 47 924 q 96 854 84 882 q 107 802 107 825 m 318 796 q 297 745 318 766 q 244 723 277 723 q 188 747 207 723 q 170 806 170 771 q 174 840 170 823 q 186 870 176 852 q 209 904 195 889 q 237 918 222 918 q 276 898 258 918 q 307 848 295 877 q 318 796 318 820 m 178 111 q 163 24 176 56 q 118 -8 150 -8 q 87 5 100 -8 q 73 37 73 18 q 77 54 73 45 q 86 111 83 68 q 92 211 90 153 q 95 330 94 269 q 96 444 96 391 q 96 528 96 497 q 96 639 96 586 q 110 671 96 661 q 140 682 123 682 q 170 672 157 682 q 183 640 183 661 q 184 570 184 604 q 184 502 184 535 q 183 302 184 391 q 178 111 182 212 z "},"":{"ha":779,"x_min":68,"x_max":746,"o":"m 343 545 q 483 505 422 545 q 576 412 545 464 q 511 627 571 527 l 366 627 q 342 642 353 627 q 331 671 331 657 q 342 701 331 686 q 366 715 353 715 l 444 715 q 289 819 376 784 q 261 854 261 831 q 272 889 261 873 q 303 905 283 905 q 323 901 313 905 q 559 715 469 840 l 711 715 q 735 701 724 715 q 746 671 746 686 q 735 642 746 657 q 711 627 724 627 l 611 627 q 651 517 639 570 q 664 399 664 465 q 607 170 664 267 q 451 29 550 73 q 338 5 395 5 q 204 40 265 5 q 105 137 142 76 q 68 273 68 197 q 105 412 68 350 q 204 509 142 473 q 343 545 267 545 m 332 458 q 245 432 285 458 q 181 362 205 405 q 157 273 157 319 q 177 192 157 229 q 230 130 197 155 q 298 98 262 104 q 340 94 320 94 q 496 167 429 94 q 519 218 511 191 q 527 273 527 245 q 509 352 527 315 q 443 428 487 397 q 332 458 398 458 z "},"":{"ha":878,"x_min":68,"x_max":811,"o":"m 188 730 q 160 743 174 730 q 146 770 146 756 q 149 790 146 784 q 213 877 167 839 q 324 914 260 914 q 456 871 387 914 q 507 840 486 852 q 538 823 527 828 q 579 814 559 814 q 627 832 605 814 q 652 872 649 850 q 667 903 656 890 q 699 916 679 916 q 727 904 713 916 q 741 879 741 892 q 691 770 741 814 q 581 727 641 727 q 446 772 519 727 q 390 807 420 789 q 326 826 360 826 q 267 806 293 826 q 232 760 241 786 q 216 740 228 749 q 188 730 203 730 m 113 699 q 146 683 133 699 q 217 501 195 624 q 455 689 309 668 q 500 692 478 692 q 644 655 582 692 q 747 556 707 617 q 802 425 787 496 q 811 333 811 380 q 715 16 811 183 q 677 -5 703 -5 q 640 15 656 -5 q 638 60 623 35 q 722 333 722 206 q 715 407 722 371 q 675 504 704 459 q 602 576 646 549 q 500 604 557 604 q 468 602 484 604 q 353 543 401 592 q 277 423 306 493 q 235 280 248 353 q 235 262 235 271 q 225 66 235 165 l 222 39 q 208 11 220 20 q 180 2 195 2 q 150 12 163 2 q 135 43 136 22 q 134 102 134 73 q 147 286 134 202 q 123 520 144 442 q 84 619 102 597 q 68 655 68 640 q 82 687 68 675 q 113 699 96 699 z "},"":{"ha":820,"x_min":68,"x_max":753,"o":"m 378 897 q 392 929 378 917 q 422 942 406 942 q 461 920 449 942 l 511 807 q 524 769 524 784 q 514 749 524 757 q 492 741 505 741 q 463 763 476 741 l 385 875 q 378 897 378 886 m 416 703 q 692 536 585 693 q 737 443 722 494 q 753 330 753 392 q 709 163 753 237 q 602 50 665 90 q 513 9 562 24 q 409 -6 463 -6 q 239 37 309 -6 q 125 146 168 81 q 68 338 68 235 q 72 393 68 365 q 185 614 91 528 q 399 705 280 701 q 416 703 408 707 m 664 334 q 627 475 664 413 q 533 574 591 537 q 411 615 475 611 q 400 617 406 615 q 275 575 331 613 q 188 475 220 537 q 155 336 155 412 q 178 231 155 279 q 237 150 201 183 q 313 100 273 116 q 410 81 360 81 q 537 114 480 81 q 625 193 595 146 q 654 261 644 224 q 664 334 664 297 z "},"":{"ha":820,"x_min":68,"x_max":753,"o":"m 284 732 q 262 741 272 732 q 252 761 252 749 q 266 799 252 776 l 315 911 q 353 934 328 934 q 384 921 370 934 q 398 889 398 909 q 391 867 398 878 l 313 755 q 284 732 300 732 m 416 703 q 692 536 585 693 q 737 443 722 494 q 753 330 753 392 q 709 163 753 237 q 602 50 665 90 q 513 9 562 24 q 409 -6 463 -6 q 239 37 309 -6 q 125 146 168 81 q 68 338 68 235 q 72 393 68 365 q 185 614 91 528 q 399 705 280 701 q 416 703 408 707 m 664 334 q 627 475 664 413 q 533 574 591 537 q 411 615 475 611 q 400 617 406 615 q 275 575 331 613 q 188 475 220 537 q 155 336 155 412 q 178 231 155 279 q 237 150 201 183 q 313 100 273 116 q 410 81 360 81 q 537 114 480 81 q 625 193 595 146 q 654 261 644 224 q 664 334 664 297 z "},"":{"ha":820,"x_min":68,"x_max":753,"o":"m 166 766 l 363 951 q 394 963 376 963 q 426 950 413 963 l 610 762 q 623 732 623 748 q 609 700 623 714 q 576 686 594 686 q 547 700 559 686 l 393 857 l 227 702 q 197 689 214 689 q 166 703 180 689 q 153 735 153 718 q 166 766 153 753 m 416 703 q 692 536 585 693 q 737 443 722 494 q 753 330 753 392 q 709 163 753 237 q 602 50 665 90 q 513 9 562 24 q 409 -6 463 -6 q 239 37 309 -6 q 125 146 168 81 q 68 338 68 235 q 72 393 68 365 q 185 614 91 528 q 399 705 280 701 q 416 703 408 707 m 664 334 q 627 475 664 413 q 533 574 591 537 q 411 615 475 611 q 400 617 406 615 q 275 575 331 613 q 188 475 220 537 q 155 336 155 412 q 178 231 155 279 q 237 150 201 183 q 313 100 273 116 q 410 81 360 81 q 537 114 480 81 q 625 193 595 146 q 654 261 644 224 q 664 334 664 297 z "},"":{"ha":820,"x_min":68,"x_max":753,"o":"m 161 728 q 134 741 147 728 q 120 768 120 754 q 123 788 120 782 q 187 874 140 837 q 298 912 233 912 q 430 869 361 912 q 480 838 460 850 q 511 821 500 826 q 553 812 533 812 q 601 830 578 812 q 626 870 623 848 q 641 901 629 888 q 672 913 652 913 q 701 902 686 913 q 715 877 715 890 q 665 768 715 812 q 554 725 614 725 q 420 770 492 725 q 364 805 394 787 q 300 824 334 824 q 241 804 267 824 q 205 758 215 784 q 189 738 201 747 q 161 728 177 728 m 416 703 q 692 536 585 693 q 737 443 722 494 q 753 330 753 392 q 709 163 753 237 q 602 50 665 90 q 513 9 562 24 q 409 -6 463 -6 q 239 37 309 -6 q 125 146 168 81 q 68 338 68 235 q 72 393 68 365 q 185 614 91 528 q 399 705 280 701 q 416 703 408 707 m 664 334 q 627 475 664 413 q 533 574 591 537 q 411 615 475 611 q 400 617 406 615 q 275 575 331 613 q 188 475 220 537 q 155 336 155 412 q 178 231 155 279 q 237 150 201 183 q 313 100 273 116 q 410 81 360 81 q 537 114 480 81 q 625 193 595 146 q 654 261 644 224 q 664 334 664 297 z "},"":{"ha":820,"x_min":68,"x_max":753,"o":"m 366 802 q 345 750 366 772 q 292 728 323 728 q 236 752 254 728 q 217 811 217 777 q 221 845 217 828 q 233 876 224 857 q 256 909 243 895 q 285 924 269 924 q 324 903 305 924 q 354 854 342 882 q 366 802 366 825 m 576 796 q 555 745 576 767 q 503 723 534 723 q 447 747 465 723 q 428 806 428 771 q 432 840 428 823 q 444 870 435 852 q 467 904 454 889 q 496 918 480 918 q 535 898 516 918 q 565 848 553 877 q 576 796 576 820 m 416 703 q 692 536 585 693 q 737 443 722 494 q 753 330 753 392 q 709 163 753 237 q 602 50 665 90 q 513 9 562 24 q 409 -6 463 -6 q 239 37 309 -6 q 125 146 168 81 q 68 338 68 235 q 72 393 68 365 q 185 614 91 528 q 399 705 280 701 q 416 703 408 707 m 664 334 q 627 475 664 413 q 533 574 591 537 q 411 615 475 611 q 400 617 406 615 q 275 575 331 613 q 188 475 220 537 q 155 336 155 412 q 178 231 155 279 q 237 150 201 183 q 313 100 273 116 q 410 81 360 81 q 537 114 480 81 q 625 193 595 146 q 654 261 644 224 q 664 334 664 297 z "},"":{"ha":789,"x_min":68,"x_max":721,"o":"m 508 579 q 481 532 508 550 q 421 513 455 513 q 357 533 382 513 q 332 587 332 553 q 342 630 332 613 q 368 666 352 647 q 414 690 389 690 q 457 672 436 690 q 493 629 479 654 q 508 579 508 603 m 112 332 q 81 345 94 332 q 68 376 68 357 q 81 407 68 394 q 112 420 94 420 l 677 420 q 708 407 695 420 q 721 376 721 394 q 708 345 721 357 q 677 332 695 332 l 112 332 m 503 117 q 476 69 503 87 q 416 50 450 50 q 352 70 377 50 q 327 124 327 90 q 337 168 327 151 q 363 203 347 184 q 409 227 384 227 q 452 210 431 227 q 488 166 473 192 q 503 117 503 140 z "},"":{"ha":820,"x_min":68,"x_max":753,"o":"m 191 71 q 104 185 141 113 q 68 338 68 257 q 72 393 68 365 q 185 614 91 528 q 399 705 280 701 q 416 703 408 707 q 542 671 483 699 l 594 761 q 610 779 600 771 q 634 786 621 786 q 666 773 652 786 q 679 741 679 760 q 674 724 679 732 l 616 623 q 718 494 682 566 q 753 330 753 422 q 709 163 753 237 q 602 50 665 90 q 512 9 562 24 q 408 -6 462 -6 q 337 1 373 -6 q 265 24 300 9 l 212 -67 q 196 -84 206 -77 q 172 -92 185 -92 q 141 -79 154 -92 q 127 -47 127 -65 q 132 -29 127 -37 l 191 71 m 400 617 q 276 575 331 613 q 188 475 220 537 q 155 336 155 413 q 237 149 155 228 l 497 595 q 431 614 456 613 q 400 617 406 614 m 410 80 q 539 113 481 80 q 631 203 597 146 q 665 331 665 260 q 639 449 665 392 q 570 546 613 506 l 310 100 q 410 80 359 80 z "},"":{"ha":755,"x_min":68,"x_max":704,"o":"m 321 885 q 335 917 321 905 q 366 930 349 930 q 404 907 392 930 l 454 795 q 467 757 467 772 q 457 736 467 745 q 435 728 448 728 q 406 751 419 728 l 328 863 q 321 885 321 873 m 553 633 q 597 671 562 671 q 626 659 613 671 q 640 631 638 647 q 646 513 646 570 q 634 365 646 434 q 676 60 638 131 q 682 52 681 52 q 704 12 704 39 q 682 -25 704 -14 q 633 -22 661 -37 q 560 155 583 4 q 500 77 538 117 q 415 12 463 38 q 312 -14 368 -14 q 241 -1 276 -14 q 112 126 156 30 q 68 348 68 223 q 114 653 68 481 q 131 676 118 668 q 158 685 144 685 q 191 669 176 685 q 199 630 206 652 q 155 351 155 471 q 180 189 155 259 q 231 107 198 140 q 311 73 264 73 q 392 100 350 73 q 546 372 509 175 q 546 400 546 386 q 545 430 545 415 q 546 491 545 459 q 548 555 547 522 l 553 633 z "},"":{"ha":755,"x_min":68,"x_max":704,"o":"m 290 718 q 268 726 278 718 q 258 747 258 734 q 272 785 258 762 l 321 897 q 359 920 334 920 q 390 907 376 920 q 404 875 404 895 q 397 852 404 863 l 319 741 q 290 718 307 718 m 553 633 q 597 671 562 671 q 626 659 613 671 q 640 631 638 647 q 646 513 646 570 q 634 365 646 434 q 676 60 638 131 q 682 52 681 52 q 704 12 704 39 q 682 -25 704 -14 q 633 -22 661 -37 q 560 155 583 4 q 500 77 538 117 q 415 12 463 38 q 312 -14 368 -14 q 241 -1 276 -14 q 112 126 156 30 q 68 348 68 223 q 114 653 68 481 q 131 676 118 668 q 158 685 144 685 q 191 669 176 685 q 199 630 206 652 q 155 351 155 471 q 180 189 155 259 q 231 107 198 140 q 311 73 264 73 q 392 100 350 73 q 546 372 509 175 q 546 400 546 386 q 545 430 545 415 q 546 491 545 459 q 548 555 547 522 l 553 633 z "},"":{"ha":755,"x_min":68,"x_max":704,"o":"m 152 782 l 349 967 q 380 979 362 979 q 412 966 399 979 l 595 778 q 609 748 609 764 q 594 716 609 730 q 562 703 580 703 q 532 716 545 703 l 379 873 l 213 718 q 183 705 199 705 q 152 720 165 705 q 138 751 138 734 q 152 782 138 769 m 553 633 q 597 671 562 671 q 626 659 613 671 q 640 631 638 647 q 646 513 646 570 q 634 365 646 434 q 676 60 638 131 q 682 52 681 52 q 704 12 704 39 q 682 -25 704 -14 q 633 -22 661 -37 q 560 155 583 4 q 500 77 538 117 q 415 12 463 38 q 312 -14 368 -14 q 241 -1 276 -14 q 112 126 156 30 q 68 348 68 223 q 114 653 68 481 q 131 676 118 668 q 158 685 144 685 q 191 669 176 685 q 199 630 206 652 q 155 351 155 471 q 180 189 155 259 q 231 107 198 140 q 311 73 264 73 q 392 100 350 73 q 546 372 509 175 q 546 400 546 386 q 545 430 545 415 q 546 491 545 459 q 548 555 547 522 l 553 633 z "},"":{"ha":755,"x_min":68,"x_max":704,"o":"m 376 789 q 355 738 376 760 q 302 716 334 716 q 246 740 264 716 q 227 799 227 764 q 231 833 227 816 q 243 864 234 845 q 266 897 253 882 q 295 911 279 911 q 334 891 315 911 q 364 842 353 870 q 376 789 376 813 m 587 784 q 566 733 587 755 q 513 711 545 711 q 457 735 475 711 q 438 793 438 759 q 442 827 438 810 q 454 858 445 840 q 477 891 464 877 q 506 906 490 906 q 545 885 526 906 q 575 836 564 865 q 587 784 587 808 m 553 633 q 597 671 562 671 q 626 659 613 671 q 640 631 638 647 q 646 513 646 570 q 634 365 646 434 q 676 60 638 131 q 682 52 681 52 q 704 12 704 39 q 682 -25 704 -14 q 633 -22 661 -37 q 560 155 583 4 q 500 77 538 117 q 415 12 463 38 q 312 -14 368 -14 q 241 -1 276 -14 q 112 126 156 30 q 68 348 68 223 q 114 653 68 481 q 131 676 118 668 q 158 685 144 685 q 191 669 176 685 q 199 630 206 652 q 155 351 155 471 q 180 189 155 259 q 231 107 198 140 q 311 73 264 73 q 392 100 350 73 q 546 372 509 175 q 546 400 546 386 q 545 430 545 415 q 546 491 545 459 q 548 555 547 522 l 553 633 z "},"":{"ha":686,"x_min":68,"x_max":618,"o":"m 354 767 q 332 775 342 767 q 322 795 322 783 q 336 833 322 810 l 385 946 q 423 968 397 968 q 454 956 439 968 q 468 924 468 943 q 461 901 468 912 l 383 789 q 354 767 370 767 m 603 629 l 611 527 q 618 296 618 404 q 487 -337 618 -157 q 408 -407 452 -385 q 313 -429 363 -429 q 176 -394 248 -429 q 153 -354 153 -382 q 171 -319 153 -334 q 215 -315 189 -303 q 311 -342 269 -342 q 366 -329 341 -342 q 443 -241 412 -304 q 493 -92 474 -178 q 520 88 511 -6 q 530 268 528 182 q 490 177 514 224 q 433 87 465 129 q 360 19 400 45 q 273 -7 320 -7 q 179 27 218 -7 q 115 126 141 62 q 68 423 68 239 q 81 643 68 523 q 96 671 83 662 q 125 680 109 680 q 155 670 141 680 q 169 638 169 659 q 169 633 169 635 q 156 422 156 516 q 196 159 156 256 q 274 79 229 79 q 367 146 315 79 q 515 627 486 300 q 529 656 516 646 q 558 666 543 666 q 587 656 574 666 q 603 629 600 647 z "},"":{"ha":738,"x_min":68,"x_max":670,"o":"m 68 542 q 81 575 68 561 q 114 589 95 589 q 145 576 132 589 q 161 546 159 563 q 164 503 163 527 q 168 448 166 478 q 239 450 203 450 q 467 415 366 450 q 625 305 568 379 q 670 182 670 248 q 637 79 670 127 q 505 -22 591 9 q 307 -54 418 -54 q 182 -46 248 -54 l 186 -360 l 186 -361 q 173 -394 186 -380 q 140 -408 159 -408 q 107 -394 121 -408 q 94 -361 94 -380 q 91 -124 93 -252 q 86 130 89 3 q 79 366 83 257 q 73 467 76 425 q 68 536 71 509 l 68 542 m 578 180 q 545 259 578 227 q 473 310 511 291 q 367 346 427 334 q 237 357 306 357 q 172 355 205 357 q 177 216 175 293 q 180 48 178 140 q 300 39 241 39 q 406 48 355 39 q 494 75 456 56 q 578 180 578 117 z "},"":{"ha":686,"x_min":68,"x_max":618,"o":"m 339 812 q 318 760 339 781 q 265 739 298 739 q 209 763 228 739 q 191 822 191 787 q 195 856 191 839 q 207 887 197 868 q 230 920 216 905 q 258 934 243 934 q 297 913 279 934 q 328 864 316 892 q 339 812 339 836 m 550 806 q 529 755 550 776 q 476 734 509 734 q 420 758 439 734 q 401 817 401 782 q 406 850 401 833 q 418 881 408 863 q 440 914 427 900 q 469 928 454 928 q 508 908 490 928 q 538 859 527 887 q 550 806 550 830 m 603 629 l 611 527 q 618 296 618 404 q 487 -337 618 -157 q 408 -407 452 -385 q 313 -429 363 -429 q 176 -394 248 -429 q 153 -354 153 -382 q 171 -319 153 -334 q 215 -315 189 -303 q 311 -342 269 -342 q 366 -329 341 -342 q 443 -241 412 -304 q 493 -92 474 -178 q 520 88 511 -6 q 530 268 528 182 q 490 177 514 224 q 433 87 465 129 q 360 19 400 45 q 273 -7 320 -7 q 179 27 218 -7 q 115 126 141 62 q 68 423 68 239 q 81 643 68 523 q 96 671 83 662 q 125 680 109 680 q 155 670 141 680 q 169 638 169 659 q 169 633 169 635 q 156 422 156 516 q 196 159 156 256 q 274 79 229 79 q 367 146 315 79 q 515 627 486 300 q 529 656 516 646 q 558 666 543 666 q 587 656 574 666 q 603 629 600 647 z "},"":{"ha":252,"x_min":67,"x_max":178,"o":"m 172 111 q 157 24 170 56 q 112 -8 144 -8 q 81 5 94 -8 q 67 37 67 18 q 71 54 67 45 q 79 105 75 66 q 85 198 83 144 q 88 311 87 252 q 90 419 90 369 q 90 500 90 470 q 90 571 90 536 q 90 639 90 606 q 103 671 90 661 q 134 682 117 682 q 164 672 151 682 q 177 640 177 661 q 178 570 178 604 q 178 502 178 535 q 177 302 178 391 q 172 111 176 212 z "},"":{"ha":1428,"x_min":67,"x_max":1360,"o":"m 1277 99 q 1301 85 1289 99 q 1313 58 1313 71 q 1303 26 1313 39 q 1272 11 1293 12 q 1087 3 1210 5 q 781 -1 964 0 l 659 -1 q 642 2 650 -1 q 533 -5 585 -5 q 258 63 372 -5 q 97 259 144 132 q 67 425 67 340 q 99 603 67 512 q 288 859 153 754 q 622 967 428 967 q 659 966 640 967 q 667 965 662 966 q 779 970 722 968 q 895 972 836 972 q 1156 957 1041 972 q 1333 914 1270 942 q 1360 879 1360 903 q 1349 845 1360 860 q 1320 829 1338 829 q 1297 833 1307 829 q 1133 871 1242 858 q 888 884 1024 884 q 801 883 845 884 q 712 880 757 882 q 714 733 713 806 q 715 589 715 661 q 715 528 715 558 l 1207 525 l 1208 525 q 1239 512 1225 525 q 1252 481 1252 498 q 1241 452 1252 467 q 1217 437 1230 437 l 1206 437 l 715 440 q 705 87 713 244 q 1069 92 928 89 q 1265 99 1209 94 l 1277 99 m 157 423 q 204 238 157 314 q 335 122 252 162 q 528 83 418 83 q 616 88 570 83 q 628 567 628 314 q 624 879 628 718 q 328 781 449 879 q 173 544 209 684 q 157 423 157 482 z "},"":{"ha":1389,"x_min":68,"x_max":1308,"o":"m 757 235 q 832 125 776 165 q 978 85 888 85 q 1243 160 1092 85 q 1267 165 1252 165 q 1294 152 1280 165 q 1308 126 1308 140 q 1282 81 1308 94 q 977 -3 1112 -3 q 802 40 872 -3 q 695 154 732 83 q 578 42 655 88 q 407 -3 501 -3 q 342 3 375 -3 q 276 22 309 9 q 171 92 218 45 q 96 203 123 139 q 68 344 68 267 q 71 394 68 369 q 127 542 83 474 q 240 654 171 610 q 395 701 310 697 l 398 701 q 406 700 403 701 q 412 699 410 699 q 598 630 522 692 q 711 485 675 568 q 857 627 762 570 q 1084 684 951 684 q 1194 665 1143 684 q 1276 607 1245 646 q 1308 509 1308 568 q 1293 441 1308 474 q 1118 291 1252 348 q 766 235 987 235 q 757 235 760 235 m 396 621 q 279 583 331 617 q 193 496 227 549 q 151 382 160 444 q 148 334 148 357 q 171 229 148 277 q 231 146 195 180 q 307 96 267 112 q 408 76 357 76 q 521 102 465 76 q 661 290 640 159 q 661 303 661 297 q 663 347 661 326 q 622 483 660 423 q 528 578 585 543 q 407 618 471 614 q 396 621 401 618 m 1116 390 q 1160 418 1135 400 q 1203 459 1185 436 q 1221 509 1221 482 q 1200 558 1221 534 q 1149 586 1183 578 q 1077 594 1116 594 q 966 579 1018 594 q 817 487 878 554 q 749 319 755 419 q 762 323 757 323 q 956 339 861 323 q 1116 390 1052 356 z "},"":{"ha":474,"x_min":2,"x_max":473,"o":"m 16 812 l 213 998 q 243 1010 226 1010 q 275 997 262 1010 l 459 808 q 473 779 473 795 q 458 747 473 761 q 426 733 444 733 q 396 747 409 733 l 243 904 l 77 749 q 47 736 63 736 q 16 750 29 736 q 2 782 2 764 q 16 812 2 800 z "},"":{"ha":474,"x_min":-1,"x_max":471,"o":"m 457 891 l 260 705 q 229 693 247 693 q 197 706 210 693 l 13 895 q -1 924 -1 908 q 14 956 -1 942 q 46 970 28 970 q 76 956 63 970 l 230 799 l 395 954 q 425 967 409 967 q 457 953 444 967 q 471 921 471 939 q 457 891 471 904 z "},"":{"ha":551,"x_min":54,"x_max":365,"o":"m 205 1218 q 319 1176 273 1218 q 365 1059 365 1133 q 322 957 365 998 q 205 911 280 917 q 129 934 163 911 q 75 995 95 957 q 54 1077 54 1032 q 97 1177 54 1137 q 205 1218 140 1218 m 116 1074 q 141 1008 116 1038 q 206 979 166 979 q 273 996 243 979 q 304 1061 304 1013 q 278 1128 304 1098 q 211 1158 252 1158 q 143 1135 170 1158 q 116 1074 116 1113 z "},"":{"ha":595,"x_min":0,"x_max":595,"o":"m 41 787 q 14 800 27 787 q 0 827 0 813 q 3 847 0 841 q 67 933 20 896 q 178 971 113 971 q 310 928 241 971 q 360 897 340 909 q 391 880 380 885 q 433 871 413 871 q 480 889 458 871 q 506 929 503 907 q 521 960 509 947 q 552 972 532 972 q 581 961 566 972 q 595 936 595 949 q 545 827 595 871 q 434 784 494 784 q 300 829 372 784 q 244 864 274 846 q 180 883 214 883 q 121 863 146 883 q 85 817 95 843 q 69 797 81 806 q 41 787 57 787 z "},"":{"ha":0,"x_min":-545,"x_max":-102,"o":"m -335 728 q -440 759 -393 728 q -516 839 -488 789 q -545 947 -545 889 q -515 1044 -545 1002 q -435 1108 -485 1085 q -326 1132 -385 1132 q -214 1106 -264 1132 q -132 1031 -163 1080 q -102 914 -102 983 q -148 796 -102 851 q -220 750 -168 772 q -335 728 -271 728 m -322 1044 q -417 1019 -377 1044 q -458 941 -458 993 q -445 891 -458 915 q -414 849 -433 867 q -328 817 -382 817 q -195 894 -226 817 q -189 926 -189 909 q -193 952 -189 939 q -322 1044 -222 1044 z "},"":{"ha":119,"x_min":-178,"x_max":170,"o":"m -77 1040 q -60 1092 -77 1069 q -11 1114 -42 1114 q 35 1093 16 1114 q 54 1043 54 1071 q 48 998 54 1024 q 26 953 41 972 q -13 933 12 933 q -49 951 -35 933 q -70 994 -63 969 q -77 1040 -77 1019 m 170 922 q 150 813 170 868 q 92 722 130 759 q -3 685 53 685 q -106 743 -61 685 q -178 923 -153 805 q -178 932 -178 928 q -164 964 -178 952 q -132 975 -149 975 q -107 967 -119 975 q -92 941 -95 959 q -14 777 -65 810 q 14 776 -2 768 q 62 832 41 789 q 82 926 82 875 q 94 962 82 948 q 125 976 106 976 q 159 961 147 976 q 170 922 170 946 z "},"":{"ha":578,"x_min":68,"x_max":510,"o":"m 283 390 q 396 366 345 390 q 479 295 448 342 q 510 182 510 249 q 465 63 510 117 q 391 9 438 32 q 282 -13 344 -13 q 175 17 224 -13 q 97 96 126 46 q 68 206 68 145 q 97 302 68 260 q 176 367 127 343 q 283 390 224 390 m 290 303 q 195 277 235 303 q 155 200 155 252 q 167 150 155 174 q 198 108 180 125 q 284 76 231 76 q 417 153 387 76 q 423 184 423 168 q 419 211 423 197 q 290 303 391 303 z "},"":{"ha":468,"x_min":68,"x_max":447,"o":"m 245 673 q 337 655 294 673 q 407 601 380 637 q 433 513 433 565 q 384 412 433 448 q 269 367 334 376 q 245 366 257 366 q 158 387 198 366 q 93 447 118 409 q 68 532 68 484 q 93 606 68 574 q 158 655 118 638 q 245 673 198 673 m 141 528 q 172 461 141 489 q 247 433 202 433 q 356 492 330 433 q 361 515 361 503 q 357 536 361 525 q 251 606 334 606 q 174 588 207 606 q 141 528 141 570 m 253 329 q 348 312 303 329 q 419 261 392 295 q 447 174 447 227 q 408 87 447 127 q 344 47 385 64 q 252 31 303 31 q 164 52 205 31 q 97 108 123 72 q 71 192 71 144 q 97 265 71 234 q 165 312 123 296 q 253 329 207 329 m 146 189 q 178 123 146 150 q 254 96 210 96 q 367 153 340 96 q 372 177 372 165 q 369 196 372 186 q 258 264 345 264 q 180 247 215 264 q 146 189 146 230 z "},"":{"ha":2051,"x_min":68,"x_max":1984,"o":"m 1637 -19 q 1524 0 1576 -19 q 1439 58 1471 20 q 1407 154 1407 97 q 1417 214 1407 182 q 1466 312 1432 266 q 1550 387 1499 358 q 1665 416 1600 416 q 1668 416 1666 416 q 1895 318 1803 416 q 1858 446 1893 381 q 1753 560 1822 513 q 1590 608 1684 608 q 1472 587 1532 608 q 1296 456 1367 551 q 1207 235 1225 361 q 1210 130 1210 183 q 1208 37 1210 83 q 1194 7 1207 20 q 1165 -5 1181 -5 q 1120 28 1132 -5 q 1113 146 1113 90 q 1118 237 1113 194 q 988 571 1100 496 q 941 593 966 586 q 890 600 916 600 q 786 578 838 600 q 690 528 734 557 q 620 475 647 498 q 791 440 727 474 q 912 250 912 378 q 812 39 912 113 q 658 -14 743 -14 q 527 20 584 -14 q 437 113 470 54 q 405 248 405 172 q 412 323 405 283 q 540 521 429 412 q 558 566 558 552 q 557 570 558 568 q 455 613 540 613 q 315 587 384 613 q 201 512 246 562 q 156 392 156 463 q 352 71 156 253 q 366 41 366 58 q 352 9 366 23 q 320 -5 338 -5 q 292 7 304 -5 q 68 393 68 216 q 100 519 68 463 q 187 616 132 576 q 310 679 241 657 q 453 701 379 701 q 573 676 524 701 q 640 600 623 652 q 713 641 671 621 q 802 674 755 661 q 892 688 848 688 q 1024 652 968 688 q 1118 559 1080 617 q 1176 430 1156 500 q 1445 671 1266 609 q 1586 696 1516 696 q 1725 671 1657 696 q 1965 420 1900 609 q 1984 307 1984 361 q 1961 193 1984 248 q 1943 155 1963 169 q 1850 52 1906 92 q 1637 -19 1752 -19 m 655 75 q 777 124 730 75 q 824 252 824 174 q 806 318 824 294 q 758 357 789 342 q 612 387 703 387 q 534 382 576 387 q 503 322 511 349 q 494 251 494 296 q 535 125 494 174 q 655 75 576 75 m 1497 157 q 1535 92 1497 115 q 1640 68 1573 68 q 1776 109 1714 68 q 1868 201 1838 149 q 1793 290 1848 251 q 1669 328 1739 328 q 1668 328 1668 328 q 1546 271 1595 328 q 1497 157 1497 205 z "},"":{"ha":2226,"x_min":68,"x_max":2159,"o":"m 640 600 q 714 641 671 621 q 803 674 756 661 q 892 687 849 687 q 1024 652 968 687 q 1118 557 1080 616 q 1176 428 1156 498 q 1444 670 1267 608 q 1587 695 1516 695 q 1724 671 1655 695 q 1958 436 1889 612 q 2090 319 2036 397 q 2156 144 2144 242 q 2159 106 2159 125 q 2079 -100 2159 -4 q 1519 -292 1919 -292 q 1474 -292 1497 -292 q 1443 -277 1453 -291 q 1433 -247 1433 -263 q 1443 -217 1433 -231 q 1474 -203 1454 -203 q 1497 -204 1486 -203 q 1520 -204 1509 -204 q 2011 -44 1878 -204 q 2055 32 2041 -8 q 2068 113 2068 73 q 2046 219 2068 168 q 1984 310 2024 271 q 1984 305 1984 308 q 1942 149 1984 214 q 1731 -12 1862 25 q 1633 -25 1683 -25 q 1521 -4 1572 -25 q 1439 55 1470 16 q 1408 151 1408 94 q 1417 210 1408 179 q 1476 321 1432 264 q 1480 328 1478 326 q 1799 473 1634 473 q 1842 470 1820 473 q 1740 567 1805 527 q 1589 607 1674 607 q 1471 586 1531 607 q 1296 454 1367 549 q 1207 231 1225 358 q 1210 125 1210 178 q 1208 31 1210 79 q 1194 1 1207 11 q 1164 -9 1180 -9 q 1136 0 1149 -9 q 1120 28 1122 9 q 1113 140 1113 86 q 1118 233 1113 189 q 987 571 1100 496 q 940 592 964 586 q 890 599 916 599 q 785 577 838 599 q 689 526 733 555 q 618 472 645 496 q 791 437 727 471 q 912 245 912 374 q 812 34 912 109 q 656 -18 743 -18 q 525 16 582 -18 q 437 109 469 50 q 405 244 405 168 q 412 319 405 280 q 539 519 429 410 q 558 565 558 551 q 557 570 558 568 q 457 613 540 613 q 350 598 399 613 q 254 555 300 583 q 182 486 208 526 q 156 390 156 447 q 352 66 156 249 q 366 33 366 54 q 353 2 366 15 q 323 -10 340 -10 q 292 1 304 -10 q 68 391 68 211 q 100 517 68 460 q 186 615 132 574 q 310 679 241 656 q 452 701 378 701 q 573 676 522 701 q 640 600 624 652 m 1886 370 q 1798 385 1842 385 q 1544 266 1672 385 q 1497 153 1497 201 q 1534 86 1497 110 q 1639 63 1571 63 q 1802 121 1723 63 q 1870 197 1844 151 q 1895 300 1895 242 q 1886 370 1895 334 m 494 248 q 535 120 494 171 q 656 69 576 69 q 764 107 715 69 q 824 249 824 153 q 806 315 824 292 q 758 355 789 339 q 612 385 703 385 q 534 380 576 385 q 503 320 511 347 q 494 248 494 293 z "},"":{"ha":1282,"x_min":68,"x_max":1215,"o":"m 68 359 q 95 516 68 445 q 178 631 123 588 q 316 673 233 673 q 534 572 433 673 q 637 412 600 507 q 726 552 672 494 q 969 667 833 667 q 1104 630 1046 667 q 1190 538 1162 593 q 1215 426 1215 486 q 1201 332 1215 381 q 1083 121 1168 216 q 751 -90 973 -2 q 666 -124 690 -115 q 625 -142 643 -134 q 490 -218 524 -186 q 680 -241 538 -239 l 1164 -219 l 1175 -219 q 1200 -234 1188 -219 q 1211 -263 1211 -249 q 1199 -294 1211 -281 q 1168 -307 1186 -307 l 682 -330 l 680 -330 q 427 -287 476 -330 q 393 -223 393 -257 q 401 -190 393 -207 q 656 -33 427 -127 q 760 10 719 -7 q 831 43 802 28 q 888 76 861 58 q 952 121 916 94 q 1063 239 1025 176 q 1126 425 1126 346 q 1081 538 1126 496 q 968 580 1036 580 q 902 568 935 580 q 759 457 820 540 q 677 231 698 374 q 680 178 680 204 q 669 50 680 115 q 621 12 663 12 q 594 26 606 12 q 582 54 583 39 q 581 101 581 77 q 589 230 581 168 q 482 498 575 395 q 366 577 429 558 q 310 587 336 587 q 225 556 258 587 q 176 477 193 526 q 157 373 159 428 q 243 382 203 382 q 416 298 366 382 q 442 203 442 253 q 408 83 442 147 q 354 16 389 50 q 268 -18 318 -18 q 231 -12 250 -18 q 75 258 120 22 q 75 259 75 258 q 75 260 75 260 q 68 359 68 313 m 352 203 q 325 270 352 247 q 249 293 297 293 q 209 290 231 293 q 161 283 187 288 q 181 190 167 232 q 208 125 195 149 q 254 73 233 79 q 293 80 273 67 q 333 129 314 93 q 352 203 352 165 z "},"":{"ha":2125,"x_min":68,"x_max":2057,"o":"m 68 358 q 95 515 68 444 q 178 630 123 587 q 316 673 233 673 q 535 572 434 673 q 637 412 600 508 q 726 552 672 494 q 970 667 833 667 q 1105 630 1047 667 q 1190 538 1162 593 q 1215 425 1215 485 q 1202 332 1215 380 q 1083 121 1169 218 q 751 -90 973 -2 q 667 -124 690 -115 q 626 -142 644 -134 q 490 -218 523 -187 q 680 -241 538 -239 l 1164 -219 l 1176 -219 q 1200 -234 1189 -219 q 1211 -263 1211 -249 q 1199 -294 1211 -281 q 1168 -307 1186 -307 l 682 -330 l 681 -330 q 427 -287 476 -330 q 394 -224 394 -258 q 401 -190 394 -208 q 656 -33 428 -127 q 760 10 719 -7 q 831 43 802 28 q 888 76 861 58 q 952 121 916 94 q 1063 239 1025 176 q 1127 426 1127 347 q 1082 538 1127 496 q 968 580 1036 580 q 902 568 935 580 q 760 457 821 540 q 677 231 698 374 q 680 174 680 202 q 670 50 680 112 q 621 12 664 12 q 594 26 606 12 q 582 54 583 39 q 581 101 581 77 q 589 230 581 168 q 482 498 575 395 q 366 577 429 558 q 310 587 336 587 q 225 556 258 587 q 176 477 193 526 q 157 373 159 428 q 243 382 203 382 q 416 298 366 382 q 443 203 443 252 q 408 83 443 146 q 354 16 390 50 q 268 -18 318 -18 q 231 -12 250 -18 q 75 258 120 22 q 75 259 75 258 q 75 260 75 260 q 68 358 68 312 m 1969 517 q 1963 562 1969 535 q 1948 589 1958 589 q 1839 530 1902 588 q 1718 372 1774 471 q 1671 344 1702 344 q 1613 398 1619 344 q 1597 458 1611 420 q 1505 580 1552 580 q 1457 554 1480 580 q 1428 505 1434 528 q 1426 481 1426 493 q 1490 351 1426 419 q 1501 328 1501 339 q 1486 301 1501 312 q 1453 290 1471 290 q 1421 304 1434 290 q 1359 393 1381 347 q 1337 484 1337 439 q 1354 554 1337 520 q 1404 615 1370 588 q 1511 655 1456 655 q 1683 474 1622 655 q 1790 595 1729 539 q 1912 661 1851 651 q 1942 663 1927 663 q 2029 621 2001 663 q 2057 520 2057 579 q 2029 369 2057 457 q 1951 215 2002 283 q 1841 102 1900 148 q 1635 2 1754 34 q 1622 1 1629 1 q 1591 11 1605 1 q 1577 36 1577 20 q 1587 60 1577 50 q 1608 73 1596 70 q 1789 163 1717 103 q 1914 315 1861 222 q 1939 374 1927 336 q 1960 451 1952 412 q 1969 517 1969 490 m 352 204 q 325 270 352 248 q 249 293 298 293 q 209 290 231 293 q 161 283 187 288 q 181 190 167 232 q 208 125 195 149 q 254 73 234 79 q 293 80 273 67 q 333 130 314 94 q 352 204 352 165 z "},"":{"ha":875,"x_min":68,"x_max":871,"o":"m 444 201 q 405 81 444 130 q 291 32 366 32 q 246 38 268 32 q 153 99 193 54 q 91 207 113 143 q 68 345 68 271 q 77 428 68 388 q 103 501 85 469 q 224 618 144 574 q 408 661 304 661 q 594 621 509 661 q 737 508 680 581 q 807 341 793 436 q 811 280 811 310 q 778 132 811 199 q 589 -38 724 24 l 300 -171 q 165 -264 195 -219 q 218 -278 184 -275 q 302 -282 252 -282 q 368 -281 330 -282 l 825 -270 l 835 -270 q 859 -284 846 -270 q 871 -311 871 -298 q 858 -345 871 -332 q 827 -358 845 -358 l 370 -370 q 298 -372 332 -372 q 111 -335 153 -372 q 74 -265 74 -302 q 138 -165 74 -217 q 262 -91 185 -127 l 551 42 q 724 279 724 121 q 694 415 724 358 q 614 509 665 471 q 416 576 521 576 q 252 533 322 576 q 163 418 182 491 q 238 435 200 435 q 331 409 289 435 q 397 351 372 384 q 431 285 419 321 q 444 201 444 248 m 356 195 q 332 290 356 252 q 273 340 309 328 q 237 346 255 346 q 170 314 194 346 q 159 304 166 309 q 201 180 168 226 q 271 123 233 134 q 294 119 282 119 q 339 141 323 119 q 356 195 356 163 z "},"":{"ha":1664,"x_min":68,"x_max":1596,"o":"m 1509 519 q 1504 565 1509 538 q 1489 592 1499 592 q 1381 532 1443 591 q 1261 371 1317 471 q 1215 341 1244 341 q 1157 397 1163 341 q 1152 424 1156 408 q 1141 458 1148 439 q 1050 583 1097 583 q 1002 556 1025 583 q 974 506 979 530 q 971 481 971 494 q 1035 349 971 419 q 1045 325 1045 337 q 1030 298 1045 309 q 998 287 1016 287 q 967 300 979 287 q 905 392 927 345 q 884 484 884 439 q 900 556 884 522 q 950 618 916 591 q 1056 659 1000 659 q 1226 474 1166 659 q 1333 598 1273 541 q 1453 665 1394 656 q 1481 667 1468 667 q 1569 625 1541 667 q 1596 521 1596 582 q 1569 367 1596 457 q 1492 210 1543 279 q 1383 94 1441 140 q 1179 -8 1295 24 q 1166 -9 1173 -9 q 1135 1 1149 -9 q 1121 27 1121 12 q 1131 52 1121 41 q 1152 65 1140 62 q 1332 157 1261 96 q 1455 312 1402 218 q 1480 373 1468 335 q 1501 451 1493 411 q 1509 519 1509 491 m 444 201 q 405 81 444 130 q 291 32 366 32 q 246 38 268 32 q 153 99 193 54 q 91 207 113 143 q 68 345 68 271 q 77 428 68 388 q 103 501 85 469 q 224 618 144 574 q 408 661 304 661 q 594 621 509 661 q 737 508 680 581 q 807 341 793 436 q 811 280 811 310 q 778 132 811 199 q 589 -38 724 24 l 300 -171 q 165 -264 195 -219 q 218 -278 184 -275 q 302 -282 252 -282 q 368 -281 330 -282 l 825 -270 l 835 -270 q 859 -284 846 -270 q 871 -311 871 -298 q 858 -345 871 -332 q 827 -358 845 -358 l 370 -370 q 298 -372 332 -372 q 111 -335 153 -372 q 74 -265 74 -302 q 138 -165 74 -217 q 262 -91 185 -127 l 551 42 q 724 279 724 121 q 694 415 724 358 q 614 509 665 471 q 416 576 521 576 q 252 533 322 576 q 163 418 182 491 q 238 435 200 435 q 331 409 289 435 q 397 351 372 384 q 431 285 419 321 q 444 201 444 248 m 356 195 q 332 290 356 252 q 273 340 309 328 q 237 346 255 346 q 170 314 194 346 q 159 304 166 309 q 201 180 168 226 q 271 123 233 134 q 294 119 282 119 q 339 141 323 119 q 356 195 356 163 z "},"":{"ha":1263,"x_min":68,"x_max":1196,"o":"m 888 673 q 1010 654 949 673 q 1113 599 1072 636 q 1154 505 1154 562 q 1027 345 1154 422 q 814 248 1000 328 q 1121 92 1056 149 q 1177 29 1159 60 q 1196 -45 1196 -2 q 1153 -155 1196 -111 q 1042 -227 1110 -200 q 894 -267 973 -254 q 743 -279 815 -279 q 393 -213 549 -279 q 233 -14 233 -145 q 382 146 233 63 q 470 192 420 168 q 581 243 519 216 q 91 504 157 410 q 68 564 68 536 q 82 602 68 585 q 159 655 115 643 q 224 666 181 661 q 317 670 267 670 q 484 646 408 670 q 649 515 649 592 q 642 481 649 498 q 515 366 614 417 q 593 335 547 353 q 697 294 638 317 q 785 332 743 313 q 867 368 828 350 q 726 559 726 480 q 773 647 726 622 q 888 673 820 673 m 958 409 q 1061 492 1038 447 q 1065 504 1065 499 q 1063 516 1065 509 q 1026 550 1057 534 q 958 576 996 566 q 887 586 920 586 q 840 580 864 586 q 815 569 816 574 q 815 564 815 567 q 958 409 815 515 m 162 560 q 408 412 194 510 q 415 416 410 414 q 430 422 421 418 q 455 434 435 424 q 498 459 475 445 q 538 488 522 473 q 555 511 555 502 q 553 517 555 515 q 303 581 490 581 q 218 576 259 581 q 162 560 177 571 m 699 199 q 321 -14 338 45 q 446 -140 325 -90 q 742 -191 568 -191 q 995 -152 917 -191 q 1113 -43 1113 -95 q 1084 7 1113 -17 q 699 199 998 82 z "},"":{"ha":1295,"x_min":67,"x_max":1227,"o":"m 705 32 q 683 5 705 15 q 642 -5 661 -5 q 608 28 612 -5 l 609 48 q 602 171 602 94 q 608 338 602 241 q 595 391 607 351 q 457 589 552 549 q 406 600 432 600 q 333 581 371 600 q 174 379 230 530 q 279 412 227 412 q 384 367 341 412 q 426 243 426 321 q 422 200 426 222 q 311 19 397 55 q 262 10 286 10 q 174 41 213 10 q 111 117 136 73 q 77 204 85 162 q 67 289 67 250 q 79 370 67 333 q 206 596 123 513 q 301 664 250 640 q 406 688 353 688 q 495 669 451 688 q 579 608 540 650 q 655 488 623 564 q 721 584 680 538 q 817 660 762 630 q 937 689 871 689 q 992 683 964 689 q 1169 564 1104 659 q 1227 372 1227 479 q 1227 346 1227 359 q 1198 159 1220 239 q 1116 35 1177 79 q 1040 9 1082 9 q 966 31 1001 9 q 899 101 926 56 q 872 206 872 145 q 883 263 872 237 q 990 396 925 365 q 1063 413 1026 413 q 1128 401 1095 413 q 1138 398 1138 398 q 1108 496 1133 450 q 1041 571 1084 543 q 939 600 998 600 q 823 559 881 600 q 696 338 732 496 q 705 113 705 191 q 702 43 705 65 q 705 32 705 38 m 1135 302 q 1125 308 1133 303 q 1069 325 1097 325 q 1025 315 1046 325 q 984 273 1006 306 q 962 200 962 241 q 976 145 962 170 q 1005 111 989 120 q 1040 96 1030 96 q 1069 109 1050 96 q 1108 172 1089 123 q 1135 302 1127 221 m 157 296 q 156 279 156 288 q 173 186 156 228 q 216 122 191 144 q 264 98 245 98 q 277 101 271 98 q 319 152 300 111 q 338 245 338 193 q 321 304 338 284 q 279 323 304 323 q 210 296 247 323 q 184 287 197 287 q 157 296 170 287 z "},"":{"ha":1858,"x_min":68,"x_max":1790,"o":"m 341 446 q 465 406 412 446 q 519 283 519 366 q 449 83 519 198 q 617 75 543 79 q 747 69 691 72 q 747 75 747 72 q 779 269 747 172 q 1038 618 859 505 q 1310 700 1167 700 q 1356 698 1333 700 q 1645 576 1523 683 q 1752 434 1714 515 q 1790 240 1790 352 q 1490 -359 1790 -43 q 1459 -374 1476 -374 q 1428 -359 1442 -374 q 1415 -327 1415 -345 q 1426 -298 1415 -311 q 1702 240 1702 -8 q 1672 397 1702 331 q 1586 511 1642 463 q 1463 585 1531 559 q 1311 611 1396 611 q 1085 544 1193 611 q 863 241 932 448 q 835 76 835 157 q 835 65 835 71 q 953 62 899 62 q 1196 87 1124 62 q 1267 139 1248 104 q 1287 239 1287 175 q 1257 508 1287 334 q 1256 517 1256 513 q 1270 547 1256 536 q 1301 558 1284 558 q 1328 550 1315 558 q 1343 523 1340 541 q 1365 386 1354 463 q 1375 242 1375 310 q 1368 158 1375 193 q 1223 -278 1345 -149 q 1143 -335 1185 -317 q 1059 -353 1101 -353 q 945 -323 997 -353 q 853 -244 892 -293 q 788 -136 813 -195 q 753 -20 763 -77 q 590 -12 686 -16 q 367 -1 493 -7 q 337 13 349 0 q 325 44 325 26 q 334 69 325 58 q 416 218 395 154 q 431 286 431 260 q 428 306 431 298 q 397 346 417 335 q 338 357 378 357 q 241 332 292 357 q 157 218 157 289 q 229 80 157 153 q 242 49 242 67 q 229 18 242 31 q 198 5 216 5 q 167 18 180 5 q 68 216 68 118 q 78 278 68 247 q 197 409 106 362 q 341 446 267 446 m 1262 20 q 945 -25 1175 -25 q 844 -23 898 -25 q 879 -124 854 -73 q 943 -213 905 -176 q 1029 -262 981 -251 q 1057 -265 1043 -265 q 1166 -210 1113 -265 q 1262 20 1231 -142 z "},"":{"ha":1896,"x_min":68,"x_max":1829,"o":"m 1717 437 q 1693 304 1717 359 q 1610 191 1668 249 q 1828 -38 1815 138 q 1829 -52 1829 -45 q 1725 -260 1829 -157 q 1612 -338 1681 -305 q 1462 -378 1542 -370 q 1458 -378 1460 -378 q 1427 -364 1438 -378 q 1415 -333 1415 -350 q 1425 -305 1415 -318 q 1454 -290 1434 -292 q 1617 -235 1550 -281 q 1723 -118 1685 -188 q 1741 -50 1741 -84 q 1718 28 1741 -11 q 1635 91 1693 68 q 1509 119 1576 113 q 1479 137 1489 122 q 1470 169 1470 151 q 1476 196 1470 183 q 1497 215 1483 209 q 1512 222 1508 219 q 1627 404 1623 312 q 1628 431 1628 418 q 1595 542 1628 498 q 1507 606 1563 585 q 1381 627 1451 627 q 1339 625 1360 627 q 1077 526 1202 614 q 863 237 924 418 q 835 71 835 153 q 835 60 835 66 q 953 58 899 58 q 1196 82 1124 58 q 1267 135 1248 99 q 1287 235 1287 170 q 1257 503 1287 329 q 1256 513 1256 508 q 1270 543 1256 532 q 1301 553 1284 553 q 1328 545 1315 553 q 1343 518 1340 536 q 1365 381 1354 458 q 1375 237 1375 305 q 1368 153 1375 188 q 1223 -283 1345 -154 q 1143 -340 1185 -322 q 1059 -357 1101 -357 q 945 -328 997 -357 q 853 -249 892 -298 q 788 -141 813 -199 q 753 -24 763 -82 q 590 -17 686 -21 q 367 -5 493 -12 q 337 8 349 -5 q 325 39 325 22 q 334 64 325 53 q 416 213 395 149 q 431 281 431 255 q 428 301 431 293 q 397 341 417 330 q 338 353 378 353 q 241 328 292 353 q 157 214 157 284 q 229 75 157 148 q 242 44 242 62 q 229 13 242 26 q 198 1 216 1 q 167 14 180 1 q 68 211 68 113 q 78 273 68 242 q 197 404 106 357 q 341 441 267 441 q 465 401 412 441 q 519 279 519 361 q 449 79 519 193 q 617 71 543 74 q 747 64 691 67 q 747 71 747 67 q 779 264 747 167 q 1027 598 849 473 q 1335 714 1173 701 q 1383 716 1360 716 q 1603 656 1514 716 q 1717 437 1717 578 m 1262 15 q 945 -30 1175 -30 q 844 -28 898 -30 q 879 -129 854 -78 q 943 -218 905 -180 q 1029 -267 981 -256 q 1057 -270 1043 -270 q 1166 -215 1114 -270 q 1262 15 1230 -147 z "},"":{"ha":2759,"x_min":68,"x_max":2695,"o":"m 1246 471 q 1371 431 1317 471 q 1424 309 1424 391 q 1354 109 1424 223 q 1522 100 1448 104 q 1652 94 1596 97 q 1652 100 1652 97 q 1685 294 1652 197 q 1943 644 1764 530 q 2215 725 2072 725 q 2261 723 2238 725 q 2551 601 2429 708 q 2657 459 2620 541 q 2695 265 2695 377 q 2395 -334 2695 -18 q 2365 -349 2382 -349 q 2334 -334 2347 -349 q 2320 -302 2320 -320 q 2332 -273 2320 -286 q 2607 265 2607 17 q 2577 422 2607 356 q 2491 537 2547 488 q 2369 610 2436 585 q 2217 636 2302 636 q 1990 569 2098 636 q 1768 267 1838 473 q 1740 101 1740 182 q 1740 90 1740 96 q 1858 87 1804 87 q 2102 112 2029 87 q 2173 164 2153 129 q 2193 264 2193 200 q 2162 533 2193 359 q 2161 543 2161 538 q 2175 572 2161 562 q 2206 583 2189 583 q 2233 575 2220 583 q 2249 548 2245 566 q 2270 411 2260 488 q 2281 267 2281 335 q 2273 183 2281 218 q 2128 -253 2251 -124 q 2049 -310 2091 -292 q 1965 -328 2007 -328 q 1850 -298 1902 -328 q 1759 -219 1799 -268 q 1694 -111 1719 -170 q 1659 5 1668 -52 q 1495 13 1592 9 q 1272 24 1398 18 q 1242 38 1255 25 q 1230 69 1230 52 q 1239 94 1230 83 q 1322 243 1300 179 q 1336 311 1336 285 q 1333 331 1336 323 q 1303 371 1322 360 q 1244 382 1283 382 q 1146 357 1196 382 q 1063 243 1063 314 q 1135 105 1063 178 q 1147 74 1147 92 q 1135 43 1147 56 q 1103 31 1122 31 q 1072 43 1085 31 q 973 241 973 143 q 983 303 973 272 q 1102 434 1012 387 q 1246 471 1173 471 m 459 708 q 614 680 542 708 q 742 601 687 651 q 829 483 798 550 q 861 340 861 416 q 825 166 861 254 q 730 1 789 79 q 698 -16 717 -16 q 665 -2 680 -16 q 650 31 650 12 q 659 56 650 44 q 743 196 715 130 q 770 333 770 262 q 699 517 770 445 q 592 590 656 562 q 459 618 528 618 q 309 575 374 618 q 210 474 243 533 q 313 494 265 494 q 446 444 389 494 q 496 371 480 413 q 513 283 513 330 q 484 157 513 218 q 330 2 426 34 q 272 -7 300 -7 q 161 35 214 -7 q 91 134 113 73 q 68 267 68 195 q 104 458 68 361 q 179 582 129 525 q 301 673 230 639 q 459 708 372 708 m 425 283 q 395 369 425 332 q 309 405 366 405 q 172 355 250 405 q 165 352 170 355 q 157 269 157 310 q 172 173 157 216 q 217 104 186 129 q 273 83 243 83 q 302 88 287 83 q 404 197 363 109 q 425 283 425 241 m 2167 45 q 1851 0 2081 0 q 1749 2 1803 0 q 1785 -99 1759 -48 q 1848 -188 1810 -151 q 1935 -237 1887 -226 q 1962 -240 1948 -240 q 2071 -184 2018 -240 q 2167 45 2136 -117 z "},"":{"ha":924,"x_min":68,"x_max":856,"o":"m 681 84 q 741 98 712 84 q 769 139 769 112 q 758 172 769 155 q 730 204 747 189 q 607 243 691 239 q 582 238 593 239 q 561 236 571 236 q 520 247 540 236 q 505 283 501 258 q 530 325 509 318 q 585 332 551 332 q 591 332 588 332 q 596 332 593 332 q 705 442 684 362 q 706 459 706 451 q 675 540 706 509 q 596 587 645 572 q 492 602 547 602 q 371 583 425 602 q 267 527 316 564 q 159 341 176 459 q 214 373 183 361 q 279 385 245 385 q 323 378 301 385 q 367 357 346 372 q 427 235 427 314 q 366 53 427 119 q 253 -1 315 -1 q 224 1 239 -1 q 135 58 169 12 q 84 172 100 104 q 68 313 68 239 l 68 316 q 218 600 79 496 q 343 667 277 644 q 491 690 409 690 q 642 663 573 690 q 752 585 711 636 q 794 461 794 534 q 792 428 794 445 q 791 422 792 425 q 725 307 774 354 q 816 243 776 288 q 856 141 856 198 q 805 35 856 74 q 682 -4 755 -4 q 511 38 607 -4 q 493 54 501 43 q 485 79 485 64 q 498 110 485 96 q 529 123 511 123 q 545 119 537 123 q 681 84 625 84 m 339 237 q 320 281 339 267 q 275 296 300 296 q 214 272 245 296 q 188 264 203 264 q 157 275 171 264 q 169 194 159 237 q 198 119 178 150 q 252 87 218 87 q 298 111 276 87 q 339 233 339 153 q 339 237 339 235 z "},"":{"ha":1455,"x_min":68,"x_max":1388,"o":"m 681 84 q 741 98 712 84 q 769 139 769 113 q 758 173 769 155 q 730 205 747 190 q 607 243 692 239 q 582 238 593 239 q 561 236 571 236 q 520 247 540 236 q 505 283 501 258 q 530 325 509 318 q 585 332 551 332 q 591 332 588 332 q 596 332 593 332 q 705 442 684 362 q 706 459 706 451 q 675 540 706 509 q 596 587 645 572 q 492 602 547 602 q 371 583 425 602 q 267 527 316 564 q 159 341 176 459 q 214 373 183 361 q 279 385 245 385 q 323 378 301 385 q 367 357 346 372 q 427 235 427 314 q 366 53 427 118 q 253 -1 315 -1 q 224 1 239 -1 q 135 58 169 12 q 84 172 100 104 q 68 313 68 239 l 68 316 q 218 600 79 496 q 343 667 277 644 q 492 690 410 690 q 643 663 574 690 q 753 585 711 636 q 794 461 794 534 q 792 428 794 445 q 791 422 792 425 q 725 307 774 354 q 816 243 776 288 q 856 142 856 199 q 805 35 856 75 q 682 -4 755 -4 q 511 38 607 -4 q 493 54 501 43 q 485 79 485 65 q 498 110 485 96 q 529 123 511 123 q 545 119 537 123 q 681 84 625 84 m 1009 512 q 994 491 1005 500 q 967 482 983 482 q 937 494 950 482 q 924 525 924 507 q 926 541 924 532 q 1057 678 965 652 q 1114 686 1086 686 q 1238 646 1177 686 q 1347 519 1306 602 q 1388 330 1388 437 q 1338 109 1388 203 q 1193 -14 1289 15 q 1129 -23 1160 -23 q 1020 8 1067 -23 q 947 81 972 40 q 941 104 941 92 q 955 135 941 122 q 987 148 970 148 q 1023 127 1010 148 q 1066 83 1038 102 q 1131 64 1094 64 q 1169 71 1149 64 q 1268 164 1236 91 q 1300 327 1300 237 q 1271 473 1300 409 q 1194 570 1242 538 q 1111 598 1150 598 q 1009 512 1040 598 m 339 237 q 320 281 339 267 q 275 296 300 296 q 214 272 245 296 q 188 264 203 264 q 157 275 171 264 q 169 194 159 237 q 198 119 178 150 q 252 87 218 87 q 298 111 276 87 q 339 233 339 153 q 339 237 339 235 z "},"":{"ha":1674,"x_min":68,"x_max":1622,"o":"m 1535 538 q 1533 568 1535 551 q 1526 600 1531 586 q 1515 614 1522 614 q 1409 551 1472 613 q 1291 388 1345 490 q 1244 358 1275 358 q 1188 414 1194 358 q 1172 477 1185 437 q 1082 604 1128 604 q 1035 576 1057 604 q 1007 526 1013 549 q 1004 500 1004 513 q 1067 365 1004 436 q 1078 341 1078 353 q 1063 314 1078 326 q 1031 302 1049 302 q 1000 317 1013 302 q 939 410 961 361 q 918 504 918 458 q 933 577 918 542 q 983 640 949 612 q 1088 682 1034 682 q 1257 494 1196 682 q 1361 620 1300 560 q 1480 688 1421 678 q 1509 690 1495 690 q 1595 646 1569 690 q 1622 541 1622 602 q 1594 384 1622 476 q 1518 224 1568 295 q 1411 106 1469 154 q 1209 2 1326 35 q 1196 0 1203 0 q 1166 11 1179 0 q 1152 38 1152 22 q 1162 63 1152 52 q 1183 77 1171 73 q 1361 170 1291 108 q 1482 328 1431 232 q 1507 389 1495 351 q 1527 469 1519 428 q 1535 538 1535 510 m 681 84 q 741 98 712 84 q 769 139 769 113 q 758 173 769 155 q 730 205 747 190 q 607 243 692 239 q 582 238 593 239 q 561 236 571 236 q 520 247 540 236 q 505 283 501 258 q 530 325 509 318 q 585 332 551 332 q 591 332 588 332 q 596 332 593 332 q 705 442 684 362 q 706 459 706 451 q 675 540 706 509 q 596 587 645 572 q 492 602 547 602 q 371 583 425 602 q 267 527 316 564 q 159 341 176 459 q 214 373 183 361 q 279 385 245 385 q 323 378 301 385 q 367 357 346 372 q 427 235 427 314 q 366 53 427 118 q 253 -1 315 -1 q 224 1 239 -1 q 135 58 169 12 q 84 172 100 104 q 68 313 68 239 l 68 316 q 218 600 79 496 q 343 667 277 644 q 492 690 410 690 q 643 663 574 690 q 753 585 711 636 q 794 461 794 534 q 792 428 794 445 q 791 422 792 425 q 725 307 774 354 q 816 243 776 288 q 856 142 856 199 q 805 35 856 75 q 682 -4 755 -4 q 511 38 607 -4 q 493 54 501 43 q 485 79 485 65 q 498 110 485 96 q 529 123 511 123 q 545 119 537 123 q 681 84 625 84 m 339 237 q 320 281 339 267 q 275 296 300 296 q 214 272 245 296 q 188 264 203 264 q 157 275 171 264 q 169 194 159 237 q 198 119 178 150 q 252 87 218 87 q 298 111 276 87 q 339 233 339 153 q 339 237 339 235 z "},"":{"ha":1088,"x_min":68,"x_max":1021,"o":"m 303 433 q 401 678 320 608 q 508 723 452 723 q 569 709 538 723 q 736 496 692 656 q 852 456 799 483 q 1005 315 966 403 q 1021 239 1021 276 q 986 130 1021 178 q 897 46 950 82 q 793 -13 844 11 q 775 -17 785 -17 q 744 -5 758 -17 q 730 26 730 7 q 738 52 730 41 q 757 67 746 62 q 887 151 848 109 q 922 194 910 176 q 934 240 934 212 q 924 279 934 260 q 752 401 888 360 q 753 379 753 390 q 753 356 753 368 q 742 202 753 274 q 702 79 730 131 q 618 5 673 28 q 559 -7 590 -7 q 432 41 498 -7 q 382 83 404 61 q 317 14 360 43 q 222 -16 274 -16 q 136 8 170 -16 q 83 67 101 31 q 68 136 68 100 q 178 345 68 235 q 303 433 238 397 m 398 474 q 610 509 501 509 q 639 509 625 509 q 541 625 602 599 q 511 632 526 632 q 456 610 483 632 q 398 474 416 575 m 157 132 q 176 88 157 103 q 220 73 195 73 q 290 104 265 73 q 320 180 315 136 q 316 207 316 194 q 328 249 316 231 q 365 267 340 267 q 396 255 382 267 q 410 227 409 243 q 410 211 410 218 q 410 199 410 204 q 427 165 410 189 q 457 133 434 154 q 508 96 479 113 q 558 79 536 79 q 611 107 591 79 q 644 178 632 134 q 661 272 656 222 q 665 368 665 322 q 662 418 665 393 q 607 421 634 421 q 387 376 493 421 q 372 354 383 364 q 345 344 361 344 q 330 347 337 344 q 237 280 281 317 q 202 238 221 263 q 171 185 184 213 q 157 132 157 157 z "},"":{"ha":1175,"x_min":68,"x_max":1107,"o":"m 661 419 q 506 578 661 578 q 366 545 441 578 q 249 471 300 517 q 171 361 197 426 q 262 393 217 393 q 379 329 328 393 q 408 284 399 304 q 434 163 434 218 q 389 39 434 87 q 280 -9 344 -9 q 218 3 249 -9 q 159 41 186 16 q 92 142 115 80 q 68 284 68 203 q 135 475 68 382 q 227 566 169 522 q 357 638 284 610 q 509 667 430 667 q 685 600 618 667 q 751 425 751 533 q 646 75 751 286 q 716 75 683 75 q 967 100 909 75 q 1012 150 1004 117 q 1019 243 1019 183 q 1017 358 1019 293 q 1013 487 1015 424 q 1010 592 1010 550 q 1010 626 1010 610 q 1025 657 1011 647 q 1055 667 1039 667 q 1085 657 1072 667 q 1099 627 1099 647 q 1098 601 1099 614 q 1098 573 1098 588 q 1100 472 1098 532 q 1105 349 1103 412 q 1107 239 1107 287 q 1101 141 1107 169 q 1003 19 1078 53 q 730 -14 928 -14 q 660 -13 699 -14 q 572 -11 620 -12 q 543 1 557 -10 q 528 32 528 13 q 535 54 528 43 q 661 419 661 283 m 281 79 q 328 103 311 79 q 346 163 346 127 q 326 249 346 200 q 260 303 297 303 q 201 271 233 303 q 171 257 187 257 q 157 259 164 257 q 218 106 164 155 q 281 79 248 79 z "},"":{"ha":1082,"x_min":68,"x_max":1014,"o":"m 710 670 q 861 622 791 670 q 972 493 930 574 q 1014 315 1014 412 q 956 132 1014 217 q 746 -3 890 32 q 735 -5 741 -5 q 704 8 717 -5 q 691 39 691 21 q 701 67 691 56 q 725 82 711 79 q 884 182 837 110 q 926 310 926 245 q 898 443 926 385 q 823 541 870 501 q 711 583 774 583 q 645 567 676 583 q 596 522 614 552 q 547 395 565 468 q 514 261 528 314 q 490 184 499 208 q 441 93 471 136 q 366 23 411 50 q 256 -5 321 -5 q 180 18 212 -5 q 98 133 127 56 q 68 304 68 211 q 100 489 68 411 q 191 622 131 566 q 220 633 203 633 q 251 621 237 633 q 264 589 264 609 q 251 558 264 570 q 156 296 156 469 q 195 133 156 208 q 256 83 220 83 q 323 101 294 83 q 372 146 353 119 q 427 273 410 203 q 463 421 444 344 q 680 669 518 652 q 710 670 695 670 z "},"":{"ha":1826,"x_min":67,"x_max":1758,"o":"m 1270 203 q 1226 61 1270 117 q 1093 5 1183 5 q 1088 5 1091 5 l 822 3 q 919 -90 848 -58 q 1009 -111 956 -106 q 1122 -117 1063 -117 q 1229 -114 1175 -117 q 1329 -111 1282 -112 q 1449 -101 1377 -110 q 1584 -52 1520 -92 q 1670 154 1670 2 q 1659 279 1670 207 q 1633 427 1649 352 q 1603 561 1618 502 q 1602 572 1602 566 q 1615 603 1602 590 q 1645 616 1628 616 q 1673 606 1662 616 q 1689 582 1685 595 q 1728 414 1712 486 q 1750 283 1743 342 q 1758 168 1758 224 q 1630 -127 1758 -48 q 1312 -200 1517 -197 q 1257 -202 1291 -201 q 1187 -205 1223 -204 q 1127 -206 1152 -206 q 883 -170 964 -206 q 787 -103 826 -144 q 728 3 749 -63 l 367 1 q 335 15 347 1 q 323 46 323 28 q 334 75 323 62 q 503 363 503 262 q 408 434 503 434 q 261 395 332 434 q 157 250 157 338 q 236 92 157 174 q 249 62 249 78 q 235 31 249 45 q 202 18 220 18 q 172 31 185 18 q 69 222 83 124 q 67 249 67 235 q 80 321 67 285 q 215 471 114 415 q 308 508 257 494 q 408 523 359 523 q 497 506 455 523 q 566 453 539 488 q 592 363 592 418 q 463 90 592 253 l 712 91 q 709 146 709 119 q 761 380 709 277 q 898 532 813 484 q 1007 562 952 562 q 1099 541 1053 562 q 1246 345 1201 494 q 1270 203 1270 267 m 800 92 l 1090 94 q 1093 94 1091 94 q 1168 132 1152 94 q 1183 206 1183 163 q 1164 315 1183 254 q 1057 464 1128 431 q 1010 474 1034 474 q 935 452 974 474 q 864 383 895 429 q 815 277 833 337 q 797 151 797 216 q 800 92 797 122 z "},"":{"ha":1176,"x_min":68,"x_max":1108,"o":"m 827 285 q 814 284 821 285 q 800 284 807 284 q 768 298 779 284 q 758 329 758 312 q 767 358 758 345 q 798 372 777 371 q 900 407 857 378 q 948 490 943 436 q 924 581 946 546 q 861 615 902 615 q 794 595 831 615 q 670 460 718 553 q 608 263 622 367 q 614 155 614 210 q 608 43 614 99 q 592 15 606 26 q 563 4 578 4 q 534 16 547 4 q 519 43 522 28 q 513 161 513 105 q 519 263 513 214 q 486 399 510 330 q 427 526 463 469 q 345 610 391 583 q 294 628 314 628 q 250 610 273 628 q 168 434 193 565 q 214 442 193 442 q 260 433 239 442 q 382 210 382 380 q 382 197 382 203 l 382 193 q 307 15 368 68 q 235 -13 274 -13 q 166 12 199 -13 q 68 347 70 85 q 69 358 68 350 q 71 380 70 366 q 195 679 98 603 q 295 714 239 714 q 390 686 345 714 q 565 444 500 619 q 751 672 632 606 q 859 703 807 703 q 935 686 898 703 q 1009 613 983 663 q 1036 486 1036 562 q 1015 408 1036 446 q 970 351 993 370 q 1066 285 1023 330 q 1108 179 1108 239 q 1078 81 1108 123 q 997 18 1047 40 q 888 -5 947 -5 q 758 20 827 -5 q 736 37 744 24 q 728 63 728 50 q 744 95 728 78 q 779 105 760 111 q 888 85 840 85 q 979 110 937 85 q 1020 178 1020 134 q 995 234 1020 209 q 827 285 943 285 m 157 328 q 182 147 159 202 q 218 83 205 93 q 235 73 232 73 q 249 81 239 73 q 295 201 283 111 q 295 208 295 204 q 231 349 295 323 q 212 353 222 353 q 173 336 193 353 q 157 328 166 331 z "},"":{"ha":1190,"x_min":69,"x_max":1122,"o":"m 409 430 q 316 410 355 430 q 278 344 278 390 q 283 313 278 328 q 296 282 288 297 q 304 254 304 269 q 293 223 304 236 q 264 210 282 210 q 222 234 235 210 q 191 347 191 294 q 222 441 191 404 q 301 498 252 479 q 404 517 349 517 q 491 505 448 517 q 569 469 535 493 q 644 328 644 418 q 644 323 644 326 q 445 79 644 165 l 884 79 q 1031 191 1021 79 q 1034 267 1034 233 q 1030 334 1034 304 q 1005 589 1005 530 q 1008 662 1005 630 q 1033 707 1012 694 q 1066 713 1048 717 q 1100 671 1100 705 q 1097 641 1100 654 q 1093 603 1093 627 q 1111 401 1093 537 q 1122 256 1122 319 q 1101 117 1122 168 q 884 -9 1049 -9 l 112 -9 q 80 5 91 -9 q 69 35 69 19 q 77 62 69 50 q 102 79 85 75 q 142 87 112 81 q 223 105 172 94 q 556 319 556 176 q 512 402 556 374 q 409 430 467 430 z "},"":{"ha":1601,"x_min":69,"x_max":1533,"o":"m 1323 -12 q 1145 59 1211 -12 q 1079 250 1079 131 q 1099 375 1079 309 q 1173 493 1118 441 q 1297 553 1229 544 q 1162 581 1239 581 q 1128 579 1146 581 q 1012 541 1067 572 q 919 463 958 509 q 865 362 881 416 q 857 307 857 334 q 886 206 857 255 q 964 128 913 161 q 1074 74 1016 95 q 1103 39 1103 64 q 1092 2 1103 17 q 1059 -12 1080 -12 l 112 -12 q 80 2 91 -12 q 69 32 69 16 q 77 58 69 46 q 102 75 85 71 q 139 84 111 78 q 214 100 167 90 q 302 123 262 111 q 377 149 343 136 q 472 201 445 176 q 509 245 498 226 q 529 324 529 292 q 489 398 529 372 q 399 423 448 423 q 328 410 362 423 q 271 374 293 397 q 248 317 248 350 q 255 282 248 301 q 262 248 262 262 q 250 218 262 231 q 216 205 237 205 q 184 223 196 205 q 167 267 172 241 q 162 316 162 292 q 195 423 162 380 q 283 489 229 467 q 400 511 337 511 q 536 473 480 511 q 610 366 591 434 q 616 322 616 346 q 590 210 616 273 q 431 76 558 134 l 886 76 q 800 181 831 121 q 769 309 769 241 q 804 450 769 386 q 892 562 838 514 q 1002 634 945 609 q 1080 661 1046 654 q 1163 669 1114 669 q 1448 545 1345 669 q 1533 296 1533 441 q 1480 85 1533 170 q 1323 -12 1419 -12 m 1168 246 q 1205 125 1168 174 q 1320 76 1242 76 q 1388 109 1360 76 q 1431 188 1416 141 q 1446 279 1446 235 q 1439 360 1446 323 q 1419 425 1432 397 q 1410 433 1415 429 q 1329 468 1376 468 q 1240 433 1282 468 q 1185 355 1198 398 q 1168 246 1168 297 z "},"":{"ha":1249,"x_min":68,"x_max":1181,"o":"m 531 -236 q 492 -196 492 -236 q 519 -138 492 -159 q 559 -113 533 -128 q 610 -84 585 -98 q 650 -60 636 -69 q 771 21 710 -25 q 883 125 833 67 q 965 251 934 182 q 996 400 996 320 q 954 539 996 487 q 859 596 909 596 q 740 515 798 596 q 637 141 659 400 q 631 26 637 85 q 616 -2 629 7 q 587 -11 603 -11 q 557 0 570 -11 q 543 31 543 10 q 545 89 543 60 q 549 144 547 117 q 475 454 549 326 q 357 572 422 546 q 300 585 326 585 q 250 568 272 585 q 188 481 210 536 q 218 488 198 488 q 264 481 244 488 q 311 462 284 475 q 383 409 349 443 q 440 328 418 374 q 463 228 463 281 q 458 186 463 207 q 372 45 444 105 q 249 -4 313 -4 q 221 -1 235 -4 q 132 47 165 8 q 83 146 98 86 q 68 277 68 205 q 100 493 68 398 q 191 634 132 587 q 304 675 245 675 q 382 659 342 675 q 595 404 525 598 q 650 534 614 469 q 738 641 686 598 q 858 684 789 684 q 1020 598 952 684 q 1084 397 1084 518 q 1033 190 1084 288 q 884 0 983 92 q 998 19 947 19 q 1130 -31 1080 19 q 1181 -151 1181 -80 q 1155 -255 1181 -208 q 1086 -331 1130 -302 q 986 -359 1042 -359 q 951 -356 969 -359 q 722 -205 842 -340 q 712 -165 706 -188 q 680 -180 693 -174 q 660 -191 667 -186 q 531 -236 577 -236 m 156 272 q 165 185 156 228 q 194 113 174 142 q 248 84 214 84 q 318 116 280 84 q 374 228 374 162 q 321 347 374 292 q 208 401 277 393 q 172 427 183 404 q 160 352 165 395 q 156 272 156 309 m 1093 -153 q 1065 -92 1093 -114 q 995 -70 1038 -70 q 884 -93 943 -70 q 775 -138 825 -116 q 787 -147 781 -141 q 970 -270 887 -259 q 987 -271 979 -271 q 1063 -235 1034 -271 q 1093 -153 1093 -198 z "},"":{"ha":2087,"x_min":68,"x_max":2020,"o":"m 986 201 q 1016 121 986 149 q 1092 94 1046 94 q 1188 120 1140 94 q 1324 298 1286 174 q 1338 634 1337 520 q 1353 664 1339 652 q 1386 676 1366 676 q 1419 655 1407 676 l 1426 632 q 1426 611 1426 622 q 1429 478 1426 553 q 1435 310 1431 403 q 1448 279 1440 294 q 1462 250 1455 264 q 1656 97 1546 113 q 1683 95 1670 95 q 1790 127 1742 95 q 1871 208 1838 159 q 1920 306 1904 256 q 1933 385 1933 346 q 1887 527 1933 466 q 1786 623 1842 587 q 1766 656 1766 635 q 1779 689 1766 674 q 1810 704 1792 704 q 1832 697 1822 704 q 1925 620 1882 666 q 1994 514 1967 574 q 2020 385 2020 455 q 2002 271 2020 328 q 1938 148 1982 208 q 1828 47 1893 87 q 1683 7 1763 7 q 1644 9 1664 7 q 1386 205 1493 31 q 1385 208 1385 207 q 1384 210 1385 209 q 1232 44 1332 100 q 1092 6 1163 6 q 955 57 1012 6 q 898 200 898 108 q 964 408 898 292 q 982 493 982 458 q 936 578 982 549 q 835 607 890 607 q 724 588 780 607 q 629 543 668 568 q 703 271 703 435 q 629 33 703 97 q 547 2 594 2 q 481 20 513 2 q 395 108 431 46 q 359 249 359 170 q 368 321 359 285 q 502 555 401 458 q 433 593 473 578 q 351 608 393 608 q 207 547 258 608 q 155 392 155 486 q 260 81 155 260 q 266 60 266 71 q 253 29 266 42 q 222 16 241 16 q 199 22 208 16 q 184 37 189 28 q 68 392 68 236 q 105 556 68 489 q 205 659 142 623 q 277 687 240 678 q 350 696 313 696 q 472 672 414 696 q 572 610 530 648 q 694 670 624 646 q 836 694 765 694 q 926 681 882 694 q 1004 638 969 668 q 1069 490 1069 582 q 1045 374 1069 436 q 1044 371 1044 373 q 1042 368 1043 370 q 986 201 986 270 m 560 488 q 453 300 481 411 q 447 250 447 275 q 469 156 447 198 q 522 97 491 114 q 548 88 540 88 q 576 104 558 88 q 606 172 598 123 q 614 273 614 220 q 603 390 614 339 q 560 488 591 441 z "},"":{"ha":1489,"x_min":68,"x_max":1421,"o":"m 1333 401 q 1302 512 1333 463 q 1221 588 1271 560 q 1113 616 1171 616 q 1047 606 1080 616 q 983 574 1015 596 q 1080 291 1051 471 q 1083 238 1083 263 q 1023 54 1083 120 q 917 3 977 3 q 888 5 903 3 q 777 85 816 20 q 738 241 738 151 q 742 299 738 270 q 861 581 772 477 q 792 609 827 609 q 749 598 770 609 q 610 373 654 552 q 601 334 605 354 q 595 292 597 313 q 600 168 600 233 q 595 31 600 103 q 582 3 594 16 q 553 -9 570 -9 q 508 24 522 -9 q 500 173 500 103 q 507 293 500 237 q 428 540 489 456 q 325 605 381 605 q 218 541 269 605 q 159 366 169 478 q 233 389 197 389 q 285 378 259 389 q 391 203 380 336 l 391 200 q 391 190 391 195 q 334 36 391 94 q 238 -9 290 -9 q 201 -3 220 -9 q 123 53 152 10 q 81 155 94 95 q 68 283 68 216 q 70 338 68 310 q 149 595 74 500 q 331 693 227 693 q 500 591 428 693 q 554 487 532 545 q 711 677 612 629 q 795 698 753 698 q 926 642 863 698 q 1018 689 970 674 q 1112 704 1065 704 q 1243 674 1180 704 q 1352 593 1306 645 q 1421 401 1421 515 q 1419 362 1421 382 q 1212 5 1401 181 q 1182 -5 1200 -5 q 1151 7 1164 -5 q 1138 39 1138 20 q 1152 70 1138 58 q 1331 371 1316 223 q 1333 401 1333 386 m 918 512 q 829 286 852 428 q 825 233 825 258 q 843 149 825 182 q 874 108 856 125 q 914 91 893 91 q 958 113 937 91 q 995 239 995 154 q 993 279 995 258 q 918 512 968 425 m 159 222 q 171 159 162 193 q 196 103 180 126 q 233 80 212 80 q 275 102 253 80 q 302 192 302 130 q 302 197 302 195 q 249 297 296 277 q 233 300 241 300 q 199 286 214 300 q 180 256 184 271 q 159 222 174 231 z "},"":{"ha":718,"x_min":68,"x_max":650,"o":"m 222 356 q 211 356 216 356 q 200 356 205 356 q 125 366 156 356 q 77 406 94 376 q 68 446 68 423 q 76 493 68 467 q 178 615 94 547 q 273 673 227 654 q 379 692 319 692 q 503 658 456 692 q 578 569 550 624 q 583 548 583 559 q 572 517 583 530 q 541 505 560 505 q 513 514 523 505 q 493 543 503 524 q 451 588 477 572 q 380 604 425 604 q 303 590 336 604 q 233 546 271 576 q 190 510 205 524 q 168 483 175 496 q 155 450 161 470 q 187 444 166 444 q 198 444 192 444 q 212 444 204 444 q 223 444 217 444 q 370 437 296 444 q 498 410 444 429 q 575 370 540 395 q 630 307 611 345 q 650 243 650 267 q 645 174 650 198 q 618 113 640 149 q 520 25 584 57 q 371 -7 456 -7 q 213 23 282 -7 q 105 104 144 52 q 81 144 89 125 q 73 184 73 162 q 117 236 73 236 q 148 224 136 236 q 161 194 160 212 q 181 149 163 168 q 220 117 199 130 q 286 91 247 101 q 368 81 326 81 q 461 96 417 81 q 533 142 505 111 q 560 222 560 173 q 532 292 560 270 q 467 328 504 314 q 353 350 419 345 q 222 356 287 356 z "},"":{"ha":814,"x_min":56,"x_max":747,"o":"m 511 646 q 534 644 524 648 q 652 572 604 616 q 723 474 700 528 q 747 353 747 421 q 689 151 747 245 q 526 12 626 49 q 439 -3 483 -3 q 416 -2 428 -3 q 98 161 183 22 q 66 233 76 197 q 56 307 56 270 q 77 420 56 365 q 131 521 98 475 q 199 600 163 568 q 290 656 241 636 q 391 677 338 677 q 511 646 453 677 m 555 535 q 537 531 546 531 q 509 542 523 531 q 391 588 454 588 q 254 530 319 588 q 180 435 214 495 q 145 307 145 374 q 152 256 145 281 q 173 206 158 231 q 425 85 235 104 q 441 85 433 85 q 536 114 494 85 q 607 186 578 143 q 648 274 635 230 q 659 347 659 311 q 631 460 659 415 q 555 535 602 505 z "},"":{"ha":1560,"x_min":67,"x_max":1492,"o":"m 1253 9 q 1124 43 1182 9 q 1024 129 1067 77 q 955 239 981 182 q 776 37 890 89 q 680 14 727 14 q 585 40 631 14 q 494 143 523 74 q 465 302 465 213 q 482 451 465 373 q 488 509 488 483 q 466 589 488 559 q 396 619 444 619 q 351 613 375 619 q 263 569 304 602 q 195 488 222 535 q 160 389 168 441 q 156 336 156 363 q 238 79 156 213 q 245 56 245 68 q 232 26 245 39 q 201 12 220 12 q 163 33 176 12 q 92 186 117 109 q 67 339 67 264 q 90 473 67 409 q 161 593 113 538 q 263 672 199 635 q 395 709 327 709 q 455 699 425 709 q 511 667 485 689 q 577 511 577 613 q 569 433 577 475 q 557 365 562 399 q 553 297 553 330 q 569 189 553 237 q 626 118 586 140 q 680 104 651 104 q 745 120 710 104 q 820 182 787 139 q 876 282 853 226 q 909 395 899 338 q 900 522 900 457 q 912 672 900 595 q 927 699 915 690 q 955 708 940 708 q 983 699 970 708 q 1000 671 996 690 q 1009 530 1009 597 q 999 395 1009 459 q 1092 184 1022 262 q 1166 120 1130 142 q 1249 98 1202 98 q 1344 142 1305 98 q 1404 355 1404 211 q 1383 498 1404 439 q 1312 612 1362 557 q 1286 635 1297 629 q 1271 670 1271 645 q 1283 701 1271 689 q 1313 713 1295 713 q 1415 624 1352 713 q 1474 501 1457 564 q 1492 354 1492 438 q 1411 85 1492 178 q 1253 9 1345 9 z "},"":{"ha":1602,"x_min":68,"x_max":1533,"o":"m 868 670 q 898 657 884 670 q 911 630 911 645 q 912 578 911 616 q 914 499 913 541 q 915 429 915 458 q 915 407 915 415 q 989 235 937 313 q 1109 116 1042 158 q 1242 74 1178 74 q 1284 79 1263 74 q 1368 131 1334 91 q 1420 230 1401 172 q 1446 351 1440 288 q 1447 363 1447 357 q 1447 375 1447 370 q 1310 328 1388 328 q 1169 385 1220 328 q 1118 537 1118 441 q 1157 639 1118 601 q 1256 677 1196 677 q 1290 673 1273 677 q 1443 591 1381 657 q 1512 492 1491 541 q 1533 363 1533 444 q 1521 259 1533 310 q 1492 168 1510 209 q 1308 -7 1429 22 q 1238 -15 1272 -15 q 1075 34 1154 -15 q 897 216 964 102 q 874 137 893 192 q 838 63 857 87 q 785 13 818 39 q 677 -20 743 -20 q 510 35 566 -20 q 454 189 454 89 q 470 316 454 252 q 487 443 487 380 q 460 542 487 504 q 374 581 433 581 q 235 521 304 581 q 177 444 198 488 q 156 336 156 399 q 281 54 156 203 q 292 27 292 41 q 277 -5 292 9 q 244 -18 262 -18 q 213 -3 226 -18 q 68 336 68 171 q 97 481 68 420 q 176 587 125 543 q 272 646 219 624 q 377 669 325 669 q 462 650 422 669 q 533 589 503 631 q 575 441 575 532 q 567 356 575 403 q 550 262 558 309 q 542 182 542 216 q 578 94 542 119 q 680 68 615 68 q 726 79 711 68 q 761 109 749 97 q 781 140 772 121 q 801 197 789 159 q 826 399 821 262 q 814 518 814 456 q 824 633 814 574 q 840 660 827 650 q 868 670 852 670 m 1206 533 q 1233 448 1206 481 q 1307 415 1259 415 q 1368 429 1341 415 q 1409 463 1394 442 q 1421 475 1416 471 q 1362 545 1401 512 q 1285 585 1324 578 q 1255 588 1267 588 q 1206 533 1206 588 z "},"":{"ha":1723,"x_min":68,"x_max":1657,"o":"m 673 60 q 663 18 673 36 q 629 0 653 0 q 594 17 604 0 q 584 64 585 35 q 582 172 582 102 q 574 314 582 243 q 473 602 549 530 q 408 633 440 633 q 374 628 393 633 q 332 610 356 622 q 229 514 277 584 q 166 393 182 447 q 263 432 212 432 q 336 407 304 432 q 388 344 368 382 q 410 266 408 306 q 412 231 412 248 q 352 39 412 104 q 312 7 335 20 q 258 -5 288 -5 q 215 2 237 -5 q 132 66 165 20 q 84 178 100 113 q 68 314 68 243 q 70 360 68 337 q 148 553 80 454 q 292 690 216 653 q 406 720 355 720 q 478 704 444 720 q 545 656 513 688 q 637 463 602 600 q 648 492 642 478 q 660 520 654 507 q 811 701 721 656 q 884 720 849 720 q 948 703 918 720 q 1007 659 978 686 q 1087 471 1061 610 q 1160 588 1116 533 q 1263 677 1204 643 q 1396 711 1322 711 q 1556 651 1486 711 q 1630 548 1602 612 q 1657 398 1657 484 q 1534 80 1657 256 q 1509 45 1521 61 q 1487 17 1497 30 q 1465 -3 1476 5 q 1441 -12 1453 -12 q 1412 2 1426 -12 q 1398 31 1398 16 q 1417 72 1398 50 q 1439 99 1428 84 q 1462 130 1450 113 q 1569 396 1569 284 q 1550 509 1569 460 q 1501 583 1530 557 q 1393 623 1454 623 q 1364 621 1379 623 q 1223 526 1286 609 q 1144 377 1172 456 q 1102 207 1116 298 q 1092 74 1099 128 q 1079 19 1087 38 q 1044 0 1071 0 q 1009 17 1018 0 q 1001 68 1001 35 q 1005 136 1001 102 q 1015 216 1008 170 q 1016 277 1016 250 q 1013 363 1016 321 q 932 609 998 547 q 886 632 908 632 q 850 622 871 632 q 747 498 789 592 q 695 346 714 426 q 674 179 675 265 q 673 130 673 151 q 673 95 673 109 q 673 77 673 85 q 673 60 673 68 m 156 298 q 166 209 157 254 q 196 130 176 163 q 244 85 215 96 q 260 82 253 82 q 274 86 268 82 q 287 98 280 91 q 323 231 323 138 q 322 260 323 245 q 302 318 320 292 q 258 343 283 343 q 219 323 238 343 q 198 302 208 311 q 175 294 188 294 q 156 298 166 294 z "},"":{"ha":1213,"x_min":68,"x_max":1145,"o":"m 575 614 q 682 671 619 647 q 806 696 745 696 q 899 683 852 696 q 1020 622 964 665 q 1111 515 1076 579 q 1145 372 1145 451 q 1139 303 1145 338 q 944 3 1108 144 q 917 -8 931 -8 q 885 6 899 -8 q 871 39 871 21 q 887 70 871 57 q 1052 319 1027 191 q 1057 368 1057 344 q 1023 491 1057 437 q 932 576 989 545 q 808 608 876 608 q 740 598 775 608 q 670 570 705 589 q 637 550 654 562 q 687 463 667 510 q 716 361 707 416 q 730 243 730 299 q 703 109 730 167 q 621 22 675 52 q 536 0 581 0 q 401 61 456 0 q 360 130 373 91 q 347 211 347 168 q 366 320 347 264 q 508 554 425 465 q 440 587 479 574 q 361 599 402 599 q 211 537 265 599 q 156 378 156 476 q 257 76 156 250 q 263 54 263 65 q 251 23 263 36 q 220 10 239 10 q 196 16 206 10 q 181 32 186 22 q 68 380 68 227 q 108 547 68 480 q 217 652 148 614 q 287 679 251 670 q 360 687 323 687 q 477 667 420 687 q 575 614 534 646 m 436 211 q 463 125 436 162 q 538 88 489 88 q 581 100 564 88 q 612 130 599 111 q 643 242 643 172 q 630 343 643 287 q 629 346 630 345 q 571 492 616 432 q 449 290 500 414 q 436 211 436 250 z "},"":{"ha":1056,"x_min":67,"x_max":989,"o":"m 334 90 q 360 90 347 90 q 389 90 372 90 q 531 87 445 90 q 358 429 358 269 q 400 577 358 514 q 513 675 442 640 q 668 710 583 710 q 839 663 767 710 q 950 535 911 616 q 989 353 989 454 q 980 247 989 303 q 882 55 954 115 q 675 -5 810 -5 q 587 -3 640 -5 q 478 1 534 -1 q 376 3 422 3 q 353 2 363 3 q 331 2 342 2 q 132 87 197 2 q 67 314 67 172 q 131 669 67 459 q 146 690 135 680 q 173 700 157 700 q 205 687 193 700 q 216 657 216 675 q 212 630 216 645 q 155 317 155 442 q 194 152 155 214 q 334 90 233 90 m 667 622 q 556 598 606 622 q 476 531 507 575 q 446 429 446 488 q 608 134 446 296 q 622 104 622 121 q 617 85 622 95 q 653 84 636 84 q 804 108 765 84 q 880 205 859 140 q 901 351 901 269 q 873 490 901 429 q 794 587 846 551 q 667 622 742 622 z "},"":{"ha":876,"x_min":68,"x_max":806,"o":"m 718 180 q 686 230 718 212 q 611 257 654 249 q 534 266 568 266 q 483 270 497 266 q 459 293 469 274 q 458 324 452 306 q 513 365 465 341 q 571 399 538 377 q 634 446 604 420 q 675 492 663 471 q 688 530 688 518 q 681 550 688 541 q 656 574 673 559 q 601 597 642 587 q 508 607 559 607 q 316 552 416 607 q 166 351 206 492 q 156 280 156 315 q 269 64 156 170 q 283 31 283 51 q 272 0 283 14 q 241 -14 261 -14 q 207 1 223 -14 q 182 24 191 16 q 170 38 178 29 q 151 58 162 46 q 68 275 68 153 q 81 374 68 323 q 287 636 132 551 q 507 695 393 695 q 632 680 577 695 q 714 640 687 665 q 772 525 772 586 q 751 448 772 488 q 642 340 722 395 q 764 280 727 321 q 806 180 806 233 q 789 106 806 144 q 743 54 777 81 q 663 8 709 26 q 568 -11 616 -11 q 445 12 511 -11 q 424 27 433 16 q 415 54 415 38 q 428 84 415 72 q 459 97 441 97 q 473 95 466 97 q 566 77 524 77 q 628 89 597 77 q 681 117 659 101 q 710 147 704 134 q 718 180 718 165 z "},"":{"ha":1078,"x_min":70,"x_max":1012,"o":"m 559 680 q 590 667 578 680 q 606 639 603 654 q 604 578 605 609 q 604 516 604 547 q 604 460 604 488 q 608 407 605 433 q 630 276 614 342 q 676 159 647 210 q 747 90 705 109 q 782 82 766 82 q 809 88 796 82 q 836 104 823 94 q 900 202 877 136 q 924 347 924 268 q 869 608 924 467 q 866 624 866 615 q 878 654 866 641 q 909 668 890 668 q 936 660 925 668 q 951 640 947 651 q 1012 347 1012 483 q 979 160 1012 241 q 889 35 946 79 q 838 6 866 16 q 780 -5 810 -5 q 713 9 746 -5 q 562 197 614 50 q 553 224 557 211 q 545 253 549 238 q 486 134 522 192 q 398 37 450 75 q 280 -1 347 -1 q 201 19 235 -1 q 144 64 168 38 q 70 293 70 147 q 178 667 70 466 q 216 688 190 688 q 253 669 238 688 q 256 625 269 650 q 158 292 158 445 q 210 123 158 182 q 281 87 241 87 q 352 115 317 87 q 412 181 387 142 q 482 352 457 250 q 514 569 507 454 q 516 618 515 593 q 526 662 517 644 q 559 680 534 680 z "},"":{"ha":1207,"x_min":68,"x_max":1139,"o":"m 850 669 q 996 627 930 669 q 1101 515 1062 585 q 1139 363 1139 446 q 1034 112 1139 231 q 890 -9 974 45 q 866 -17 878 -17 q 835 -2 848 -17 q 822 30 822 12 q 842 64 822 52 q 939 142 891 96 q 1020 244 987 187 q 1052 368 1052 301 q 1034 453 1052 412 q 979 528 1016 494 q 852 581 921 581 q 700 500 763 581 q 629 347 654 440 q 598 145 604 254 q 599 98 599 121 q 597 30 599 63 q 583 -1 597 9 q 554 -11 570 -11 q 524 0 537 -11 q 509 31 510 10 q 509 80 509 57 q 510 146 509 116 q 494 311 507 233 q 454 449 480 389 q 345 574 411 550 q 311 581 327 581 q 277 573 292 581 q 247 555 262 566 q 180 458 204 522 q 156 313 156 393 q 214 54 156 194 q 218 35 218 44 q 203 5 218 16 q 172 -6 189 -6 q 149 0 160 -6 q 132 20 138 7 q 68 314 68 177 q 101 499 68 419 q 193 624 135 579 q 248 655 218 643 q 313 668 278 668 q 374 657 343 668 q 535 484 476 622 q 559 420 549 454 q 631 554 588 499 q 850 669 720 669 z "},"":{"ha":1257,"x_min":68,"x_max":1189,"o":"m 328 454 q 445 418 395 454 q 522 325 495 383 q 549 196 549 266 q 517 74 549 123 q 457 17 491 36 q 368 -3 424 -3 q 330 -1 351 -3 q 174 85 258 7 q 74 284 88 165 q 68 355 68 319 q 103 525 68 454 q 199 639 138 596 q 360 690 273 690 q 518 649 450 690 q 636 542 587 608 q 714 401 685 476 q 895 667 766 616 q 958 679 927 679 q 1070 636 1017 679 q 1153 515 1118 598 q 1189 330 1189 432 q 1120 31 1189 199 q 1104 11 1115 20 q 1078 3 1094 3 q 1047 16 1059 3 q 1035 47 1035 30 q 1038 64 1035 56 q 1101 328 1101 217 q 1089 427 1101 379 q 1058 512 1076 475 q 1021 563 1039 548 q 954 590 986 590 q 926 585 940 590 q 827 465 864 559 q 781 277 790 369 q 775 193 777 231 q 774 118 774 155 q 774 83 774 101 q 774 48 774 66 q 761 12 774 26 q 729 -3 747 -3 q 699 12 711 -3 q 686 46 687 26 q 683 123 685 90 q 675 194 680 157 q 661 283 671 231 q 568 484 641 387 q 408 597 497 580 q 360 602 383 602 q 256 572 300 602 q 188 492 212 542 q 158 382 163 442 q 236 436 196 418 q 328 454 276 454 m 461 199 q 437 300 461 259 q 370 357 413 342 q 328 365 350 365 q 249 341 286 365 q 193 292 212 317 q 167 263 173 267 q 240 143 184 194 q 304 97 277 109 q 377 85 331 85 q 442 118 422 85 q 461 199 461 151 z "},"":{"ha":1297,"x_min":68,"x_max":1230,"o":"m 486 281 q 454 333 486 319 q 371 347 421 347 q 256 321 316 347 q 157 210 157 278 q 238 73 157 148 q 252 42 252 60 q 226 1 252 15 q 178 8 201 -12 q 68 208 68 111 q 80 272 68 240 q 215 400 113 355 q 376 435 294 435 q 562 342 520 435 q 574 283 574 315 q 471 69 574 193 q 510 71 485 69 q 561 73 535 72 q 603 74 587 74 q 677 73 641 74 q 747 72 713 72 q 1137 133 1119 72 q 1141 166 1141 147 q 1123 263 1141 205 q 1122 267 1122 264 q 1086 549 1086 422 q 1093 654 1086 604 q 1108 682 1095 671 q 1137 692 1122 692 q 1168 677 1155 692 q 1180 642 1182 662 q 1174 549 1174 598 q 1208 289 1174 433 q 1230 166 1230 218 q 1157 33 1230 70 q 1058 1 1114 10 q 874 -8 1031 -4 q 429 -17 717 -12 q 381 3 403 -14 q 359 47 359 20 q 389 109 359 76 q 486 281 486 218 z "},"":{"ha":1433,"x_min":68,"x_max":1364,"o":"m 248 35 q 235 4 248 17 q 203 -9 222 -9 q 174 2 186 -9 q 68 198 68 100 q 78 259 68 229 q 203 395 106 343 q 371 437 283 437 q 551 343 504 437 q 568 264 568 307 q 510 78 568 184 l 823 76 q 746 199 772 127 q 719 362 719 271 q 752 510 719 444 q 839 621 785 576 q 957 686 892 667 q 1032 696 995 696 l 1164 663 q 1324 464 1268 609 q 1364 268 1364 357 q 1278 61 1364 135 q 1044 -14 1192 -14 l 432 -9 q 404 1 416 -9 q 389 26 392 11 q 391 52 385 44 q 429 110 408 75 q 465 184 450 144 q 480 263 480 224 q 451 329 480 308 q 370 349 421 349 q 281 333 325 349 q 205 290 237 317 q 161 231 172 262 q 156 199 156 216 q 234 67 156 138 q 248 35 248 55 m 1044 75 q 1162 95 1109 75 q 1247 156 1215 115 q 1279 262 1279 198 q 1241 432 1279 334 q 1051 607 1179 594 q 1032 608 1042 608 q 939 584 982 608 q 865 523 896 560 q 821 447 834 486 q 807 354 807 404 q 832 216 807 279 q 904 123 857 153 q 922 86 922 111 q 920 75 922 81 l 1044 75 z "},"":{"ha":1350,"x_min":38,"x_max":1288,"o":"m 477 54 q 480 106 477 70 q 482 174 482 142 q 472 295 482 227 q 362 545 446 466 q 267 589 317 589 q 193 557 223 589 q 146 479 163 526 q 127 387 130 433 q 216 420 171 420 q 276 405 245 420 q 357 332 327 380 q 388 220 388 284 q 369 116 388 168 q 315 30 349 64 q 237 -5 281 -5 q 153 29 196 -5 q 68 154 99 71 q 38 350 38 236 q 61 501 38 431 q 128 617 83 571 q 240 675 173 664 q 271 677 256 677 q 420 612 351 677 q 540 399 503 533 q 607 527 566 465 q 708 630 649 589 q 843 670 767 670 q 985 614 924 670 q 1053 445 1053 552 q 1003 256 1053 347 q 859 69 954 164 q 980 66 927 66 q 1168 92 1140 66 q 1179 99 1171 94 q 1195 134 1187 104 q 1200 195 1200 153 q 1198 275 1200 238 q 1189 352 1195 312 q 1174 448 1183 393 q 1162 575 1162 519 q 1164 627 1162 601 q 1178 669 1167 652 q 1213 686 1189 686 q 1242 674 1230 686 q 1255 642 1255 663 q 1251 610 1255 626 q 1248 575 1248 595 q 1257 484 1248 538 q 1288 194 1288 298 q 1274 89 1288 131 q 1224 23 1259 47 q 1132 -13 1192 -3 q 1003 -22 1073 -22 q 747 -14 906 -22 q 718 2 729 -12 q 707 32 707 16 q 722 64 707 52 q 827 164 782 115 q 929 306 895 237 q 964 443 964 374 q 932 542 964 502 q 845 583 900 583 q 825 581 836 583 q 684 484 749 570 q 570 119 590 359 q 568 64 569 92 q 557 17 566 36 q 522 -2 548 -2 q 488 14 499 -2 q 477 54 477 29 m 300 229 q 289 275 300 252 q 258 314 277 298 q 218 330 239 330 q 175 312 195 330 q 146 278 155 294 q 134 256 136 258 q 207 98 151 142 q 242 85 231 81 q 300 214 287 102 q 300 229 300 221 z "},"":{"ha":941,"x_min":68,"x_max":873,"o":"m 738 221 q 688 219 717 221 q 637 216 659 216 q 475 310 475 216 q 505 385 475 345 q 612 491 534 425 q 630 519 630 506 q 611 557 630 534 q 553 592 593 578 q 467 606 513 606 q 309 560 388 606 q 234 498 269 538 q 178 407 199 458 q 156 294 156 355 q 161 237 156 266 q 287 64 181 138 q 305 31 305 51 q 292 -2 305 13 q 260 -16 279 -16 q 236 -8 248 -16 q 128 99 170 39 q 83 194 97 145 q 68 292 68 243 q 95 431 68 364 q 166 551 121 498 q 264 636 210 605 q 466 694 364 694 q 534 688 500 694 q 615 659 572 681 q 689 604 659 637 q 719 525 719 570 q 704 467 719 494 q 670 425 690 440 q 583 343 600 366 q 564 315 567 321 q 640 304 588 304 q 684 307 659 304 q 730 309 709 309 q 831 274 790 309 q 873 177 873 239 q 857 109 873 144 q 781 21 834 56 q 654 -14 728 -14 q 497 26 581 -14 q 473 66 473 37 q 491 102 473 86 q 534 106 509 117 q 654 75 600 75 q 729 94 696 75 q 774 141 762 113 q 785 180 785 164 q 781 195 785 189 q 764 216 773 210 q 738 221 755 221 z "},"":{"ha":888,"x_min":68,"x_max":819,"o":"m 304 2 q 224 1 258 2 q 160 0 191 0 q 71 59 71 0 q 166 134 71 117 q 203 141 180 136 q 239 148 227 145 q 231 153 234 151 q 68 434 68 298 q 74 485 68 460 q 220 661 99 594 q 350 711 277 692 q 496 730 422 730 q 638 705 571 730 q 748 631 705 681 q 790 504 790 581 q 773 411 790 459 q 800 367 800 401 q 798 343 800 356 q 788 258 788 302 q 810 121 788 192 q 819 68 819 90 q 797 17 819 31 q 736 1 775 3 q 644 -1 696 -1 q 536 -1 600 -1 q 409 1 472 0 q 304 2 346 2 m 492 642 q 376 627 435 642 q 267 586 317 613 q 186 521 217 559 q 155 435 155 483 q 190 331 155 385 q 290 219 225 276 q 304 186 304 206 q 297 162 304 173 q 322 170 307 165 q 356 181 337 175 q 479 226 427 203 q 571 280 530 250 q 650 353 612 310 q 703 505 703 443 q 670 586 703 556 q 590 629 638 616 q 492 642 541 642 m 701 278 q 546 160 627 199 q 417 107 464 121 q 379 96 393 100 q 361 90 365 92 q 443 89 394 90 q 544 86 491 87 q 644 85 597 85 q 691 86 669 85 q 728 87 712 86 q 707 171 714 128 q 701 253 701 214 q 701 278 701 266 z "},"":{"ha":1264,"x_min":68,"x_max":1197,"o":"m 895 10 q 707 62 778 10 q 471 -7 598 -7 q 260 45 350 -7 q 127 182 170 97 q 68 409 68 300 q 100 547 68 485 q 199 643 132 608 q 294 666 245 666 q 397 642 344 666 q 463 603 429 628 q 520 547 497 578 q 583 661 537 615 q 688 706 629 706 q 742 695 715 706 q 798 661 770 684 q 868 562 841 624 q 895 422 895 499 q 884 332 895 378 q 779 121 858 205 q 880 98 824 98 q 1045 159 983 98 q 1107 326 1107 219 q 1102 391 1107 357 q 976 642 1082 505 q 966 669 966 655 q 981 700 966 687 q 1013 713 995 713 q 1045 696 1032 713 q 1197 324 1197 500 q 1170 183 1197 241 q 1090 81 1142 125 q 895 10 1005 10 m 550 496 q 589 412 571 456 q 713 180 656 250 q 778 280 751 220 q 805 415 805 340 q 790 518 805 472 q 745 590 775 564 q 686 618 713 618 q 638 592 658 618 q 606 525 618 566 q 590 504 602 513 q 564 494 579 494 q 550 496 557 494 m 643 127 q 523 342 581 205 q 434 511 465 479 q 374 555 412 533 q 292 577 335 577 q 190 525 224 577 q 156 405 156 473 q 206 222 156 323 q 307 121 237 160 q 468 82 377 82 q 561 94 515 82 q 643 127 606 106 z "},"":{"ha":945,"x_min":68,"x_max":878,"o":"m 859 280 q 696 46 798 113 q 568 2 629 2 q 505 14 535 2 q 383 160 416 50 q 366 273 366 218 q 405 427 366 361 q 503 532 444 492 q 647 591 562 572 q 550 604 603 604 q 377 573 461 604 q 234 488 294 543 q 160 361 175 433 q 156 318 156 340 q 273 75 156 204 q 284 47 284 62 q 270 15 284 29 q 237 1 256 1 q 207 16 220 1 q 68 317 68 172 q 74 378 68 348 q 227 594 100 511 q 377 665 291 637 q 550 692 463 692 q 661 679 607 692 q 761 634 715 665 q 878 409 878 555 q 859 280 878 350 m 757 518 q 744 516 754 517 q 718 514 734 515 q 592 480 654 509 q 503 414 531 450 q 456 273 456 354 q 471 174 456 227 q 508 114 482 136 q 568 92 534 92 q 642 116 604 92 q 774 307 725 170 q 789 406 789 361 q 757 518 789 473 z "},"":{"ha":774,"x_min":68,"x_max":707,"o":"m 397 692 q 557 654 488 692 q 667 547 627 615 q 707 390 707 478 q 684 248 707 319 q 625 114 660 177 q 555 3 590 52 q 522 -15 543 -15 q 482 7 496 -15 q 484 54 467 30 q 597 269 566 170 q 618 387 618 332 q 574 526 618 471 q 454 598 530 581 q 397 605 425 605 q 254 559 312 605 q 173 448 196 514 q 156 342 156 399 q 233 62 156 222 q 238 42 238 52 q 223 12 238 24 q 191 0 208 0 q 153 24 164 0 q 68 344 68 202 q 117 539 68 460 q 245 656 167 618 q 397 692 321 692 z "},"":{"ha":1118,"x_min":67,"x_max":1049,"o":"m 314 696 q 435 679 372 696 q 553 632 498 663 q 642 559 608 602 q 676 466 676 517 q 641 377 676 416 q 483 294 589 321 q 209 261 379 269 q 208 261 208 261 q 176 275 189 261 q 163 306 163 288 q 176 336 163 323 q 205 349 189 349 q 451 380 357 355 q 576 437 545 404 q 591 465 591 454 q 586 481 591 473 q 573 502 581 490 q 514 553 554 529 q 423 593 474 578 q 321 608 372 608 q 220 584 263 608 q 168 505 177 559 q 155 326 155 401 q 177 176 155 227 q 232 110 197 129 q 324 88 267 91 q 381 85 342 87 q 467 81 420 83 q 559 76 514 78 q 634 75 604 75 q 797 90 725 75 q 909 150 869 105 q 961 345 961 208 q 949 497 961 423 q 919 642 937 570 q 918 653 918 648 q 932 684 918 673 q 964 696 947 696 q 989 688 977 696 q 1004 663 1000 680 q 1049 345 1049 477 q 976 92 1049 175 q 832 8 922 30 q 625 -13 742 -13 q 554 -11 598 -13 q 465 -7 511 -9 q 382 -3 418 -5 q 333 -1 345 -1 q 139 70 194 5 q 84 179 100 115 q 67 328 67 243 q 81 517 67 410 q 158 649 95 602 q 314 696 221 696 z "},"":{"ha":967,"x_min":68,"x_max":900,"o":"m 442 165 q 406 40 442 91 q 293 -10 369 -10 q 246 -3 269 -10 q 115 110 161 22 q 68 316 68 198 q 159 555 68 467 q 296 643 214 609 q 476 677 378 677 q 646 648 568 677 q 762 569 724 619 q 784 528 776 549 q 793 480 793 507 q 675 301 793 391 q 840 205 802 279 q 853 151 853 179 q 852 133 853 142 q 801 38 843 79 q 702 -32 759 -3 q 590 -75 645 -60 l 322 -149 q 189 -229 213 -180 q 197 -237 186 -233 q 216 -245 207 -241 q 273 -255 239 -252 q 349 -258 306 -258 q 397 -258 370 -258 l 854 -246 l 865 -246 q 888 -260 876 -246 q 900 -287 900 -275 q 887 -321 900 -308 q 857 -334 875 -334 l 399 -346 q 343 -347 370 -347 q 127 -294 182 -347 q 98 -232 98 -267 q 115 -178 98 -204 q 158 -132 132 -152 q 298 -64 218 -86 l 566 9 q 707 74 655 35 q 750 115 735 96 q 766 156 766 134 q 758 175 766 169 q 739 188 751 180 q 566 223 684 220 q 555 223 561 223 q 545 226 550 223 q 525 245 534 231 q 515 274 515 259 q 522 294 515 286 q 536 311 532 307 q 548 320 541 315 q 574 336 556 325 q 707 480 707 422 q 696 510 707 496 q 610 568 669 547 q 480 588 551 588 q 268 532 355 588 q 161 375 180 477 q 238 393 199 393 q 330 368 288 393 q 396 310 372 342 q 431 245 420 278 q 442 165 442 212 m 294 76 q 339 100 323 76 q 355 156 355 123 q 333 248 355 212 q 272 298 311 284 q 237 304 254 304 q 169 272 193 304 q 159 262 165 267 q 281 78 176 109 q 294 76 288 76 z "},"":{"ha":854,"x_min":57,"x_max":819,"o":"m 592 713 q 754 669 689 713 q 819 530 819 624 q 772 393 819 463 q 707 326 741 348 q 627 286 674 304 q 668 230 651 264 q 686 155 686 195 q 629 43 686 81 q 488 4 572 4 q 380 20 431 4 q 298 69 330 37 q 260 150 265 102 q 259 156 259 153 q 273 187 259 176 q 304 197 288 197 q 332 189 319 197 q 348 161 345 180 q 432 98 355 115 q 488 93 463 93 q 585 122 551 93 q 600 154 600 134 q 585 201 600 174 q 519 256 568 227 q 387 243 453 243 q 78 378 157 243 q 62 418 66 398 q 57 459 57 439 q 79 564 57 513 q 118 650 102 614 q 133 664 121 657 q 157 670 144 670 q 188 657 174 670 q 201 625 201 644 q 199 613 201 619 q 190 594 196 608 q 172 557 183 580 q 145 460 145 499 q 154 423 145 439 q 368 332 205 338 q 294 397 325 359 q 263 496 263 435 q 307 608 263 562 q 404 677 351 654 q 492 703 441 693 q 592 713 542 713 m 730 535 q 709 591 730 572 q 655 618 688 611 q 586 625 622 625 q 511 618 551 625 q 439 595 476 612 q 378 554 403 579 q 353 493 353 528 q 363 452 353 473 q 436 395 385 421 q 531 348 486 368 q 648 393 593 363 q 704 453 677 412 q 730 535 730 493 z "},"":{"ha":1147,"x_min":68,"x_max":1080,"o":"m 1042 629 q 1040 605 1042 616 q 1038 580 1038 593 q 1045 511 1038 547 q 1055 450 1052 475 q 1071 353 1062 406 q 1080 244 1080 300 q 886 -12 1080 15 q 831 -13 873 -13 q 498 -5 738 -13 q 455 39 455 -4 q 491 83 455 66 q 572 140 533 102 q 642 224 612 177 q 686 319 672 271 q 699 399 699 362 q 673 491 699 453 q 601 552 646 528 q 443 583 544 583 q 323 567 371 583 q 227 511 275 552 q 176 445 195 483 q 157 358 157 407 q 174 262 157 313 q 307 71 205 176 q 319 41 319 58 q 307 10 319 24 q 275 -4 294 -4 q 274 -4 275 -4 q 243 9 256 -4 q 68 338 81 178 q 68 361 68 349 q 92 474 68 423 q 154 562 115 524 q 235 624 192 600 q 432 671 320 671 q 610 643 529 671 q 739 554 690 614 q 787 403 787 494 q 764 273 787 334 q 707 162 742 212 q 636 79 673 113 q 833 77 760 77 q 876 77 858 77 q 964 122 937 85 q 991 224 991 159 q 983 347 991 301 q 968 437 973 401 q 954 527 964 473 q 951 553 952 538 q 949 585 949 568 q 959 647 949 618 q 998 675 969 675 q 1042 629 1042 675 z "},"":{"ha":1172,"x_min":68,"x_max":1105,"o":"m 659 270 q 702 458 659 376 q 806 581 744 540 q 756 585 781 585 q 612 538 675 585 q 529 332 529 477 q 503 172 529 248 q 429 44 477 96 q 311 -17 380 -7 q 286 -19 298 -19 q 220 -3 252 -19 q 108 118 149 31 q 68 340 68 205 q 82 454 68 394 q 117 567 96 514 q 159 654 138 621 q 195 673 171 673 q 234 652 218 673 q 233 606 249 631 q 180 482 201 558 q 156 330 158 406 q 256 77 164 121 q 288 70 271 70 q 350 94 317 70 q 415 189 391 124 q 440 332 440 254 q 564 613 441 521 q 753 674 646 674 q 889 651 825 674 q 988 597 953 627 q 1005 582 998 588 q 1015 573 1012 576 q 1027 559 1023 567 q 1105 362 1105 476 q 1088 252 1105 310 q 929 1 1037 65 q 857 -19 894 -19 q 785 -1 821 -19 q 718 59 747 17 q 674 156 690 100 q 659 270 659 211 m 956 507 q 909 526 937 526 q 839 496 870 526 q 771 396 793 452 q 748 267 748 341 q 795 102 748 168 q 854 69 820 69 q 930 117 888 69 q 1006 288 975 168 q 1018 364 1018 328 q 956 507 1018 446 z "}}}
